%TF.GenerationSoftware,KiCad,Pcbnew,(5.99.0-11144-gea0c162604)*%
%TF.CreationDate,2021-09-15T06:49:40-05:00*%
%TF.ProjectId,The-Force-V2,5468652d-466f-4726-9365-2d56322e6b69,rev?*%
%TF.SameCoordinates,Original*%
%TF.FileFunction,Paste,Top*%
%TF.FilePolarity,Positive*%
%FSLAX46Y46*%
G04 Gerber Fmt 4.6, Leading zero omitted, Abs format (unit mm)*
G04 Created by KiCad (PCBNEW (5.99.0-11144-gea0c162604)) date 2021-09-15 06:49:40*
%MOMM*%
%LPD*%
G01*
G04 APERTURE LIST*
G04 Aperture macros list*
%AMRoundRect*
0 Rectangle with rounded corners*
0 $1 Rounding radius*
0 $2 $3 $4 $5 $6 $7 $8 $9 X,Y pos of 4 corners*
0 Add a 4 corners polygon primitive as box body*
4,1,4,$2,$3,$4,$5,$6,$7,$8,$9,$2,$3,0*
0 Add four circle primitives for the rounded corners*
1,1,$1+$1,$2,$3*
1,1,$1+$1,$4,$5*
1,1,$1+$1,$6,$7*
1,1,$1+$1,$8,$9*
0 Add four rect primitives between the rounded corners*
20,1,$1+$1,$2,$3,$4,$5,0*
20,1,$1+$1,$4,$5,$6,$7,0*
20,1,$1+$1,$6,$7,$8,$9,0*
20,1,$1+$1,$8,$9,$2,$3,0*%
G04 Aperture macros list end*
%ADD10RoundRect,0.250000X0.450000X-0.350000X0.450000X0.350000X-0.450000X0.350000X-0.450000X-0.350000X0*%
%ADD11RoundRect,0.250000X-0.337500X-0.475000X0.337500X-0.475000X0.337500X0.475000X-0.337500X0.475000X0*%
%ADD12RoundRect,0.250000X-0.450000X0.350000X-0.450000X-0.350000X0.450000X-0.350000X0.450000X0.350000X0*%
%ADD13RoundRect,0.250000X0.337500X0.475000X-0.337500X0.475000X-0.337500X-0.475000X0.337500X-0.475000X0*%
%ADD14RoundRect,0.250000X-0.350000X-0.450000X0.350000X-0.450000X0.350000X0.450000X-0.350000X0.450000X0*%
%ADD15RoundRect,0.100000X-0.637500X-0.100000X0.637500X-0.100000X0.637500X0.100000X-0.637500X0.100000X0*%
%ADD16RoundRect,0.250000X0.350000X0.450000X-0.350000X0.450000X-0.350000X-0.450000X0.350000X-0.450000X0*%
%ADD17RoundRect,0.150000X0.150000X-0.587500X0.150000X0.587500X-0.150000X0.587500X-0.150000X-0.587500X0*%
%ADD18RoundRect,0.150000X-0.825000X-0.150000X0.825000X-0.150000X0.825000X0.150000X-0.825000X0.150000X0*%
%ADD19R,1.944599X1.345400*%
G04 APERTURE END LIST*
D10*
%TO.C,R5*%
X117500000Y-57000000D03*
X117500000Y-55000000D03*
%TD*%
D11*
%TO.C,C1*%
X176925000Y-55000000D03*
X179000000Y-55000000D03*
%TD*%
D12*
%TO.C,R11*%
X167000000Y-59000000D03*
X167000000Y-61000000D03*
%TD*%
D10*
%TO.C,R2*%
X106000000Y-71500000D03*
X106000000Y-69500000D03*
%TD*%
D11*
%TO.C,C6*%
X181900000Y-81500000D03*
X183975000Y-81500000D03*
%TD*%
D10*
%TO.C,R3*%
X110000000Y-57000000D03*
X110000000Y-55000000D03*
%TD*%
%TO.C,R6*%
X124500000Y-71500000D03*
X124500000Y-69500000D03*
%TD*%
D13*
%TO.C,C5*%
X175500000Y-85000000D03*
X173425000Y-85000000D03*
%TD*%
D14*
%TO.C,R9*%
X143500000Y-104000000D03*
X145500000Y-104000000D03*
%TD*%
D15*
%TO.C,U2*%
X180137500Y-84875000D03*
X180137500Y-85525000D03*
X180137500Y-86175000D03*
X180137500Y-86825000D03*
X180137500Y-87475000D03*
X180137500Y-88125000D03*
X180137500Y-88775000D03*
X180137500Y-89425000D03*
X180137500Y-90075000D03*
X180137500Y-90725000D03*
X185862500Y-90725000D03*
X185862500Y-90075000D03*
X185862500Y-89425000D03*
X185862500Y-88775000D03*
X185862500Y-88125000D03*
X185862500Y-87475000D03*
X185862500Y-86825000D03*
X185862500Y-86175000D03*
X185862500Y-85525000D03*
X185862500Y-84875000D03*
%TD*%
D16*
%TO.C,R12*%
X189950000Y-81500000D03*
X187950000Y-81500000D03*
%TD*%
D10*
%TO.C,R4*%
X115500000Y-71500000D03*
X115500000Y-69500000D03*
%TD*%
D11*
%TO.C,C2*%
X168425000Y-85000000D03*
X170500000Y-85000000D03*
%TD*%
D17*
%TO.C,Q2*%
X115500000Y-65000000D03*
X117400000Y-65000000D03*
X116450000Y-63125000D03*
%TD*%
D10*
%TO.C,R1*%
X103000000Y-57000000D03*
X103000000Y-55000000D03*
%TD*%
D17*
%TO.C,Q3*%
X124300000Y-65000000D03*
X126200000Y-65000000D03*
X125250000Y-63125000D03*
%TD*%
D11*
%TO.C,C3*%
X173425000Y-88000000D03*
X175500000Y-88000000D03*
%TD*%
D12*
%TO.C,R14*%
X176500000Y-66000000D03*
X176500000Y-68000000D03*
%TD*%
D18*
%TO.C,U1*%
X174025000Y-58595000D03*
X174025000Y-59865000D03*
X174025000Y-61135000D03*
X174025000Y-62405000D03*
X178975000Y-62405000D03*
X178975000Y-61135000D03*
X178975000Y-59865000D03*
X178975000Y-58595000D03*
%TD*%
D14*
%TO.C,R8*%
X138500000Y-104000000D03*
X140500000Y-104000000D03*
%TD*%
%TO.C,R10*%
X148500000Y-104000000D03*
X150500000Y-104000000D03*
%TD*%
D17*
%TO.C,Q1*%
X106100000Y-65000000D03*
X108000000Y-65000000D03*
X107050000Y-63125000D03*
%TD*%
D11*
%TO.C,C4*%
X173425000Y-91000000D03*
X175500000Y-91000000D03*
%TD*%
D12*
%TO.C,R7*%
X149500000Y-64000000D03*
X149500000Y-66000000D03*
%TD*%
%TO.C,R13*%
X184500000Y-66000000D03*
X184500000Y-68000000D03*
%TD*%
D19*
%TO.C,TR1*%
X149779800Y-70460000D03*
X149779800Y-73000000D03*
X149779800Y-75540000D03*
X159000000Y-75540000D03*
X159000000Y-73000000D03*
X159000000Y-70460000D03*
%TD*%
M02*
