%TF.GenerationSoftware,KiCad,Pcbnew,(5.99.0-11144-gea0c162604)*%
%TF.CreationDate,2021-09-15T06:49:40-05:00*%
%TF.ProjectId,The-Force-V2,5468652d-466f-4726-9365-2d56322e6b69,rev?*%
%TF.SameCoordinates,Original*%
%TF.FileFunction,Copper,L1,Top*%
%TF.FilePolarity,Positive*%
%FSLAX46Y46*%
G04 Gerber Fmt 4.6, Leading zero omitted, Abs format (unit mm)*
G04 Created by KiCad (PCBNEW (5.99.0-11144-gea0c162604)) date 2021-09-15 06:49:40*
%MOMM*%
%LPD*%
G01*
G04 APERTURE LIST*
G04 Aperture macros list*
%AMRoundRect*
0 Rectangle with rounded corners*
0 $1 Rounding radius*
0 $2 $3 $4 $5 $6 $7 $8 $9 X,Y pos of 4 corners*
0 Add a 4 corners polygon primitive as box body*
4,1,4,$2,$3,$4,$5,$6,$7,$8,$9,$2,$3,0*
0 Add four circle primitives for the rounded corners*
1,1,$1+$1,$2,$3*
1,1,$1+$1,$4,$5*
1,1,$1+$1,$6,$7*
1,1,$1+$1,$8,$9*
0 Add four rect primitives between the rounded corners*
20,1,$1+$1,$2,$3,$4,$5,0*
20,1,$1+$1,$4,$5,$6,$7,0*
20,1,$1+$1,$6,$7,$8,$9,0*
20,1,$1+$1,$8,$9,$2,$3,0*%
G04 Aperture macros list end*
%TA.AperFunction,SMDPad,CuDef*%
%ADD10RoundRect,0.250000X0.450000X-0.350000X0.450000X0.350000X-0.450000X0.350000X-0.450000X-0.350000X0*%
%TD*%
%TA.AperFunction,ComponentPad*%
%ADD11R,1.700000X1.700000*%
%TD*%
%TA.AperFunction,ComponentPad*%
%ADD12O,1.700000X1.700000*%
%TD*%
%TA.AperFunction,SMDPad,CuDef*%
%ADD13RoundRect,0.250000X-0.337500X-0.475000X0.337500X-0.475000X0.337500X0.475000X-0.337500X0.475000X0*%
%TD*%
%TA.AperFunction,SMDPad,CuDef*%
%ADD14RoundRect,0.250000X-0.450000X0.350000X-0.450000X-0.350000X0.450000X-0.350000X0.450000X0.350000X0*%
%TD*%
%TA.AperFunction,SMDPad,CuDef*%
%ADD15RoundRect,0.250000X0.337500X0.475000X-0.337500X0.475000X-0.337500X-0.475000X0.337500X-0.475000X0*%
%TD*%
%TA.AperFunction,SMDPad,CuDef*%
%ADD16RoundRect,0.250000X-0.350000X-0.450000X0.350000X-0.450000X0.350000X0.450000X-0.350000X0.450000X0*%
%TD*%
%TA.AperFunction,SMDPad,CuDef*%
%ADD17RoundRect,0.100000X-0.637500X-0.100000X0.637500X-0.100000X0.637500X0.100000X-0.637500X0.100000X0*%
%TD*%
%TA.AperFunction,SMDPad,CuDef*%
%ADD18RoundRect,0.250000X0.350000X0.450000X-0.350000X0.450000X-0.350000X-0.450000X0.350000X-0.450000X0*%
%TD*%
%TA.AperFunction,SMDPad,CuDef*%
%ADD19RoundRect,0.150000X0.150000X-0.587500X0.150000X0.587500X-0.150000X0.587500X-0.150000X-0.587500X0*%
%TD*%
%TA.AperFunction,SMDPad,CuDef*%
%ADD20RoundRect,0.150000X-0.825000X-0.150000X0.825000X-0.150000X0.825000X0.150000X-0.825000X0.150000X0*%
%TD*%
%TA.AperFunction,SMDPad,CuDef*%
%ADD21R,1.944599X1.345400*%
%TD*%
%TA.AperFunction,ViaPad*%
%ADD22C,0.800000*%
%TD*%
%TA.AperFunction,Conductor*%
%ADD23C,0.250000*%
%TD*%
%TA.AperFunction,Conductor*%
%ADD24C,2.000000*%
%TD*%
%TA.AperFunction,Conductor*%
%ADD25C,0.300000*%
%TD*%
%TA.AperFunction,Conductor*%
%ADD26C,1.000000*%
%TD*%
G04 APERTURE END LIST*
D10*
%TO.P,R5,1*%
%TO.N,+5V*%
X117500000Y-57000000D03*
%TO.P,R5,2*%
%TO.N,Net-(J13-Pad1)*%
X117500000Y-55000000D03*
%TD*%
D11*
%TO.P,J10,1,Pin_1*%
%TO.N,GND*%
X162000000Y-60000000D03*
D12*
%TO.P,J10,2,Pin_2*%
%TO.N,+12V*%
X162000000Y-57460000D03*
%TO.P,J10,3,Pin_3*%
%TO.N,+5V*%
X162000000Y-54920000D03*
%TD*%
D11*
%TO.P,J17,1,Pin_1*%
%TO.N,unconnected-(J17-Pad1)*%
X180000000Y-143000000D03*
D12*
%TO.P,J17,2,Pin_2*%
%TO.N,unconnected-(J17-Pad2)*%
X180000000Y-140460000D03*
%TO.P,J17,3,Pin_3*%
%TO.N,COMM_BIT_4*%
X180000000Y-137920000D03*
%TO.P,J17,4,Pin_4*%
%TO.N,COMM_BIT_3*%
X180000000Y-135380000D03*
%TO.P,J17,5,Pin_5*%
%TO.N,COMM_BIT_2*%
X180000000Y-132840000D03*
%TO.P,J17,6,Pin_6*%
%TO.N,COMM_BIT_1*%
X180000000Y-130300000D03*
%TO.P,J17,7,Pin_7*%
%TO.N,COMM_BIT_0*%
X180000000Y-127760000D03*
%TO.P,J17,8,Pin_8*%
%TO.N,unconnected-(J17-Pad8)*%
X180000000Y-125220000D03*
%TO.P,J17,9,Pin_9*%
%TO.N,unconnected-(J17-Pad9)*%
X180000000Y-122680000D03*
%TO.P,J17,10,Pin_10*%
%TO.N,DMX_DATA*%
X180000000Y-120140000D03*
%TO.P,J17,11,Pin_11*%
%TO.N,RS_232_DATA*%
X180000000Y-117600000D03*
%TO.P,J17,12,Pin_12*%
%TO.N,GND*%
X180000000Y-115060000D03*
%TO.P,J17,13,Pin_13*%
%TO.N,unconnected-(J17-Pad13)*%
X180000000Y-112520000D03*
%TO.P,J17,14,Pin_14*%
%TO.N,unconnected-(J17-Pad14)*%
X180000000Y-109980000D03*
%TO.P,J17,15,Pin_15*%
%TO.N,unconnected-(J17-Pad15)*%
X180000000Y-107440000D03*
%TD*%
D11*
%TO.P,J16,1,Pin_1*%
%TO.N,unconnected-(J16-Pad1)*%
X175240000Y-143020000D03*
D12*
%TO.P,J16,2,Pin_2*%
%TO.N,unconnected-(J16-Pad2)*%
X175240000Y-140480000D03*
%TO.P,J16,3,Pin_3*%
%TO.N,unconnected-(J16-Pad3)*%
X175240000Y-137940000D03*
%TO.P,J16,4,Pin_4*%
%TO.N,unconnected-(J16-Pad4)*%
X175240000Y-135400000D03*
%TO.P,J16,5,Pin_5*%
%TO.N,unconnected-(J16-Pad5)*%
X175240000Y-132860000D03*
%TO.P,J16,6,Pin_6*%
%TO.N,unconnected-(J16-Pad6)*%
X175240000Y-130320000D03*
%TO.P,J16,7,Pin_7*%
%TO.N,unconnected-(J16-Pad7)*%
X175240000Y-127780000D03*
%TO.P,J16,8,Pin_8*%
%TO.N,unconnected-(J16-Pad8)*%
X175240000Y-125240000D03*
%TO.P,J16,9,Pin_9*%
%TO.N,unconnected-(J16-Pad9)*%
X175240000Y-122700000D03*
%TO.P,J16,10,Pin_10*%
%TO.N,unconnected-(J16-Pad10)*%
X175240000Y-120160000D03*
%TO.P,J16,11,Pin_11*%
%TO.N,unconnected-(J16-Pad11)*%
X175240000Y-117620000D03*
%TO.P,J16,12,Pin_12*%
%TO.N,+5V*%
X175240000Y-115080000D03*
%TO.P,J16,13,Pin_13*%
%TO.N,unconnected-(J16-Pad13)*%
X175240000Y-112540000D03*
%TO.P,J16,14,Pin_14*%
%TO.N,GND*%
X175240000Y-110000000D03*
%TO.P,J16,15,Pin_15*%
%TO.N,unconnected-(J16-Pad15)*%
X175240000Y-107460000D03*
%TD*%
D13*
%TO.P,C1,1*%
%TO.N,GND*%
X176925000Y-55000000D03*
%TO.P,C1,2*%
%TO.N,+5V*%
X179000000Y-55000000D03*
%TD*%
D14*
%TO.P,R11,1*%
%TO.N,Net-(R11-Pad1)*%
X167000000Y-59000000D03*
%TO.P,R11,2*%
%TO.N,GND*%
X167000000Y-61000000D03*
%TD*%
D10*
%TO.P,R2,1*%
%TO.N,LED_ON*%
X106000000Y-71500000D03*
%TO.P,R2,2*%
%TO.N,Net-(Q1-Pad1)*%
X106000000Y-69500000D03*
%TD*%
D11*
%TO.P,J2,1,Pin_1*%
%TO.N,+3V3*%
X105000000Y-127000000D03*
D12*
%TO.P,J2,2,Pin_2*%
%TO.N,+5V*%
X105000000Y-124460000D03*
%TO.P,J2,3,Pin_3*%
%TO.N,unconnected-(J2-Pad3)*%
X107540000Y-127000000D03*
%TO.P,J2,4,Pin_4*%
%TO.N,+5V*%
X107540000Y-124460000D03*
%TO.P,J2,5,Pin_5*%
%TO.N,unconnected-(J2-Pad5)*%
X110080000Y-127000000D03*
%TO.P,J2,6,Pin_6*%
%TO.N,GND*%
X110080000Y-124460000D03*
%TO.P,J2,7,Pin_7*%
%TO.N,unconnected-(J2-Pad7)*%
X112620000Y-127000000D03*
%TO.P,J2,8,Pin_8*%
%TO.N,unconnected-(J2-Pad8)*%
X112620000Y-124460000D03*
%TO.P,J2,9,Pin_9*%
%TO.N,GND*%
X115160000Y-127000000D03*
%TO.P,J2,10,Pin_10*%
%TO.N,unconnected-(J2-Pad10)*%
X115160000Y-124460000D03*
%TO.P,J2,11,Pin_11*%
%TO.N,LED_ON*%
X117700000Y-127000000D03*
%TO.P,J2,12,Pin_12*%
%TO.N,COMM_BIT_0*%
X117700000Y-124460000D03*
%TO.P,J2,13,Pin_13*%
%TO.N,LED_PLAYING*%
X120240000Y-127000000D03*
%TO.P,J2,14,Pin_14*%
%TO.N,GND*%
X120240000Y-124460000D03*
%TO.P,J2,15,Pin_15*%
%TO.N,LED_MUTE*%
X122780000Y-127000000D03*
%TO.P,J2,16,Pin_16*%
%TO.N,COMM_BIT_1*%
X122780000Y-124460000D03*
%TO.P,J2,17,Pin_17*%
%TO.N,+3V3*%
X125320000Y-127000000D03*
%TO.P,J2,18,Pin_18*%
%TO.N,COMM_BIT_2*%
X125320000Y-124460000D03*
%TO.P,J2,19,Pin_19*%
%TO.N,unconnected-(J2-Pad19)*%
X127860000Y-127000000D03*
%TO.P,J2,20,Pin_20*%
%TO.N,GND*%
X127860000Y-124460000D03*
%TO.P,J2,21,Pin_21*%
%TO.N,unconnected-(J2-Pad21)*%
X130400000Y-127000000D03*
%TO.P,J2,22,Pin_22*%
%TO.N,COMM_BIT_3*%
X130400000Y-124460000D03*
%TO.P,J2,23,Pin_23*%
%TO.N,unconnected-(J2-Pad23)*%
X132940000Y-127000000D03*
%TO.P,J2,24,Pin_24*%
%TO.N,COMM_BIT_4*%
X132940000Y-124460000D03*
%TO.P,J2,25,Pin_25*%
%TO.N,GND*%
X135480000Y-127000000D03*
%TO.P,J2,26,Pin_26*%
%TO.N,unconnected-(J2-Pad26)*%
X135480000Y-124460000D03*
%TO.P,J2,27,Pin_27*%
%TO.N,unconnected-(J2-Pad27)*%
X138020000Y-127000000D03*
%TO.P,J2,28,Pin_28*%
%TO.N,unconnected-(J2-Pad28)*%
X138020000Y-124460000D03*
%TO.P,J2,29,Pin_29*%
%TO.N,unconnected-(J2-Pad29)*%
X140560000Y-127000000D03*
%TO.P,J2,30,Pin_30*%
%TO.N,GND*%
X140560000Y-124460000D03*
%TO.P,J2,31,Pin_31*%
X143100000Y-127000000D03*
%TO.P,J2,32,Pin_32*%
%TO.N,REBOOT*%
X143100000Y-124460000D03*
%TO.P,J2,33,Pin_33*%
%TO.N,unconnected-(J2-Pad33)*%
X145640000Y-127000000D03*
%TO.P,J2,34,Pin_34*%
%TO.N,GND*%
X145640000Y-124460000D03*
%TO.P,J2,35,Pin_35*%
%TO.N,unconnected-(J2-Pad35)*%
X148180000Y-127000000D03*
%TO.P,J2,36,Pin_36*%
%TO.N,SHUTDOWN*%
X148180000Y-124460000D03*
%TO.P,J2,37,Pin_37*%
%TO.N,START_BUTTON*%
X150720000Y-127000000D03*
%TO.P,J2,38,Pin_38*%
%TO.N,MUTE*%
X150720000Y-124460000D03*
%TO.P,J2,39,Pin_39*%
%TO.N,GND*%
X153260000Y-127000000D03*
%TO.P,J2,40,Pin_40*%
%TO.N,unconnected-(J2-Pad40)*%
X153260000Y-124460000D03*
%TD*%
D13*
%TO.P,C6,1*%
%TO.N,GND*%
X181900000Y-81500000D03*
%TO.P,C6,2*%
%TO.N,+5V*%
X183975000Y-81500000D03*
%TD*%
D11*
%TO.P,J8,1,Pin_1*%
%TO.N,SHUTDOWN*%
X136000000Y-54920000D03*
D12*
%TO.P,J8,2,Pin_2*%
%TO.N,GND*%
X136000000Y-57460000D03*
%TD*%
D10*
%TO.P,R3,1*%
%TO.N,+5V*%
X110000000Y-57000000D03*
%TO.P,R3,2*%
%TO.N,Net-(J12-Pad1)*%
X110000000Y-55000000D03*
%TD*%
%TO.P,R6,1*%
%TO.N,LED_MUTE*%
X124500000Y-71500000D03*
%TO.P,R6,2*%
%TO.N,Net-(Q3-Pad1)*%
X124500000Y-69500000D03*
%TD*%
D15*
%TO.P,C5,1*%
%TO.N,GND*%
X175500000Y-85000000D03*
%TO.P,C5,2*%
%TO.N,/DMX_RS232/V+*%
X173425000Y-85000000D03*
%TD*%
D16*
%TO.P,R9,1*%
%TO.N,+3V3*%
X143500000Y-104000000D03*
%TO.P,R9,2*%
%TO.N,SHUTDOWN*%
X145500000Y-104000000D03*
%TD*%
D11*
%TO.P,J3,1,Pin_1*%
%TO.N,+3V3*%
X105000000Y-112000000D03*
D12*
%TO.P,J3,2,Pin_2*%
%TO.N,+5V*%
X105000000Y-109460000D03*
%TO.P,J3,3,Pin_3*%
%TO.N,unconnected-(J3-Pad3)*%
X107540000Y-112000000D03*
%TO.P,J3,4,Pin_4*%
%TO.N,+5V*%
X107540000Y-109460000D03*
%TO.P,J3,5,Pin_5*%
%TO.N,unconnected-(J3-Pad5)*%
X110080000Y-112000000D03*
%TO.P,J3,6,Pin_6*%
%TO.N,GND*%
X110080000Y-109460000D03*
%TO.P,J3,7,Pin_7*%
%TO.N,unconnected-(J3-Pad7)*%
X112620000Y-112000000D03*
%TO.P,J3,8,Pin_8*%
%TO.N,unconnected-(J3-Pad8)*%
X112620000Y-109460000D03*
%TO.P,J3,9,Pin_9*%
%TO.N,GND*%
X115160000Y-112000000D03*
%TO.P,J3,10,Pin_10*%
%TO.N,unconnected-(J3-Pad10)*%
X115160000Y-109460000D03*
%TO.P,J3,11,Pin_11*%
%TO.N,unconnected-(J3-Pad11)*%
X117700000Y-112000000D03*
%TO.P,J3,12,Pin_12*%
%TO.N,COMM_BIT_0*%
X117700000Y-109460000D03*
%TO.P,J3,13,Pin_13*%
%TO.N,unconnected-(J3-Pad13)*%
X120240000Y-112000000D03*
%TO.P,J3,14,Pin_14*%
%TO.N,GND*%
X120240000Y-109460000D03*
%TO.P,J3,15,Pin_15*%
%TO.N,unconnected-(J3-Pad15)*%
X122780000Y-112000000D03*
%TO.P,J3,16,Pin_16*%
%TO.N,COMM_BIT_1*%
X122780000Y-109460000D03*
%TO.P,J3,17,Pin_17*%
%TO.N,+3V3*%
X125320000Y-112000000D03*
%TO.P,J3,18,Pin_18*%
%TO.N,COMM_BIT_2*%
X125320000Y-109460000D03*
%TO.P,J3,19,Pin_19*%
%TO.N,unconnected-(J3-Pad19)*%
X127860000Y-112000000D03*
%TO.P,J3,20,Pin_20*%
%TO.N,GND*%
X127860000Y-109460000D03*
%TO.P,J3,21,Pin_21*%
%TO.N,unconnected-(J3-Pad21)*%
X130400000Y-112000000D03*
%TO.P,J3,22,Pin_22*%
%TO.N,COMM_BIT_3*%
X130400000Y-109460000D03*
%TO.P,J3,23,Pin_23*%
%TO.N,unconnected-(J3-Pad23)*%
X132940000Y-112000000D03*
%TO.P,J3,24,Pin_24*%
%TO.N,COMM_BIT_4*%
X132940000Y-109460000D03*
%TO.P,J3,25,Pin_25*%
%TO.N,GND*%
X135480000Y-112000000D03*
%TO.P,J3,26,Pin_26*%
%TO.N,unconnected-(J3-Pad26)*%
X135480000Y-109460000D03*
%TO.P,J3,27,Pin_27*%
%TO.N,unconnected-(J3-Pad27)*%
X138020000Y-112000000D03*
%TO.P,J3,28,Pin_28*%
%TO.N,unconnected-(J3-Pad28)*%
X138020000Y-109460000D03*
%TO.P,J3,29,Pin_29*%
%TO.N,unconnected-(J3-Pad29)*%
X140560000Y-112000000D03*
%TO.P,J3,30,Pin_30*%
%TO.N,GND*%
X140560000Y-109460000D03*
%TO.P,J3,31,Pin_31*%
%TO.N,unconnected-(J3-Pad31)*%
X143100000Y-112000000D03*
%TO.P,J3,32,Pin_32*%
%TO.N,REBOOT*%
X143100000Y-109460000D03*
%TO.P,J3,33,Pin_33*%
%TO.N,GND*%
X145640000Y-112000000D03*
%TO.P,J3,34,Pin_34*%
X145640000Y-109460000D03*
%TO.P,J3,35,Pin_35*%
%TO.N,unconnected-(J3-Pad35)*%
X148180000Y-112000000D03*
%TO.P,J3,36,Pin_36*%
%TO.N,SHUTDOWN*%
X148180000Y-109460000D03*
%TO.P,J3,37,Pin_37*%
%TO.N,unconnected-(J3-Pad37)*%
X150720000Y-112000000D03*
%TO.P,J3,38,Pin_38*%
%TO.N,MUTE*%
X150720000Y-109460000D03*
%TO.P,J3,39,Pin_39*%
%TO.N,GND*%
X153260000Y-112000000D03*
%TO.P,J3,40,Pin_40*%
%TO.N,unconnected-(J3-Pad40)*%
X153260000Y-109460000D03*
%TD*%
D17*
%TO.P,U2,1,\u002AEN*%
%TO.N,GND*%
X180137500Y-84875000D03*
%TO.P,U2,2,C1+*%
%TO.N,Net-(C2-Pad2)*%
X180137500Y-85525000D03*
%TO.P,U2,3,V+*%
%TO.N,/DMX_RS232/V+*%
X180137500Y-86175000D03*
%TO.P,U2,4,C1-*%
%TO.N,Net-(C2-Pad1)*%
X180137500Y-86825000D03*
%TO.P,U2,5,C2+*%
%TO.N,Net-(C3-Pad2)*%
X180137500Y-87475000D03*
%TO.P,U2,6,C2-*%
%TO.N,Net-(C3-Pad1)*%
X180137500Y-88125000D03*
%TO.P,U2,7,V-*%
%TO.N,Net-(C4-Pad2)*%
X180137500Y-88775000D03*
%TO.P,U2,8,T2OUT*%
%TO.N,unconnected-(U2-Pad8)*%
X180137500Y-89425000D03*
%TO.P,U2,9,R2IN*%
%TO.N,unconnected-(U2-Pad9)*%
X180137500Y-90075000D03*
%TO.P,U2,10,R2OUT*%
%TO.N,unconnected-(U2-Pad10)*%
X180137500Y-90725000D03*
%TO.P,U2,11,NC*%
%TO.N,unconnected-(U2-Pad11)*%
X185862500Y-90725000D03*
%TO.P,U2,12,T2IN*%
%TO.N,unconnected-(U2-Pad12)*%
X185862500Y-90075000D03*
%TO.P,U2,13,T1IN*%
%TO.N,RS_232_DATA*%
X185862500Y-89425000D03*
%TO.P,U2,14,NC*%
%TO.N,unconnected-(U2-Pad14)*%
X185862500Y-88775000D03*
%TO.P,U2,15,R1OUT*%
%TO.N,unconnected-(U2-Pad15)*%
X185862500Y-88125000D03*
%TO.P,U2,16,R1IN*%
%TO.N,unconnected-(U2-Pad16)*%
X185862500Y-87475000D03*
%TO.P,U2,17,T1OUT*%
%TO.N,RS232_OUT*%
X185862500Y-86825000D03*
%TO.P,U2,18,GND*%
%TO.N,GND*%
X185862500Y-86175000D03*
%TO.P,U2,19,VCC*%
%TO.N,+5V*%
X185862500Y-85525000D03*
%TO.P,U2,20,\u002ASHDN*%
%TO.N,Net-(R12-Pad2)*%
X185862500Y-84875000D03*
%TD*%
D18*
%TO.P,R12,1*%
%TO.N,+5V*%
X189950000Y-81500000D03*
%TO.P,R12,2*%
%TO.N,Net-(R12-Pad2)*%
X187950000Y-81500000D03*
%TD*%
D10*
%TO.P,R4,1*%
%TO.N,LED_PLAYING*%
X115500000Y-71500000D03*
%TO.P,R4,2*%
%TO.N,Net-(Q2-Pad1)*%
X115500000Y-69500000D03*
%TD*%
D11*
%TO.P,J5,1,Pin_1*%
%TO.N,+12V*%
X151000000Y-54920000D03*
D12*
%TO.P,J5,2,Pin_2*%
%TO.N,Net-(J5-Pad2)*%
X151000000Y-57460000D03*
%TD*%
D11*
%TO.P,J13,1,Pin_1*%
%TO.N,Net-(J13-Pad1)*%
X121000000Y-54920000D03*
D12*
%TO.P,J13,2,Pin_2*%
%TO.N,Net-(J13-Pad2)*%
X121000000Y-57460000D03*
%TD*%
D13*
%TO.P,C2,1*%
%TO.N,Net-(C2-Pad1)*%
X168425000Y-85000000D03*
%TO.P,C2,2*%
%TO.N,Net-(C2-Pad2)*%
X170500000Y-85000000D03*
%TD*%
D19*
%TO.P,Q2,1,B*%
%TO.N,Net-(Q2-Pad1)*%
X115500000Y-65000000D03*
%TO.P,Q2,2,E*%
%TO.N,GND*%
X117400000Y-65000000D03*
%TO.P,Q2,3,C*%
%TO.N,Net-(J12-Pad2)*%
X116450000Y-63125000D03*
%TD*%
D11*
%TO.P,J9,1,Pin_1*%
%TO.N,MUTE*%
X143500000Y-54920000D03*
D12*
%TO.P,J9,2,Pin_2*%
%TO.N,GND*%
X143500000Y-57460000D03*
%TD*%
D10*
%TO.P,R1,1*%
%TO.N,+5V*%
X103000000Y-57000000D03*
%TO.P,R1,2*%
%TO.N,Net-(J11-Pad1)*%
X103000000Y-55000000D03*
%TD*%
D11*
%TO.P,J12,1,Pin_1*%
%TO.N,Net-(J12-Pad1)*%
X113500000Y-54920000D03*
D12*
%TO.P,J12,2,Pin_2*%
%TO.N,Net-(J12-Pad2)*%
X113500000Y-57460000D03*
%TD*%
D11*
%TO.P,J15,1,Pin_1*%
%TO.N,unconnected-(J15-Pad1)*%
X160000000Y-143020000D03*
D12*
%TO.P,J15,2,Pin_2*%
%TO.N,unconnected-(J15-Pad2)*%
X160000000Y-140480000D03*
%TO.P,J15,3,Pin_3*%
%TO.N,COMM_BIT_4*%
X160000000Y-137940000D03*
%TO.P,J15,4,Pin_4*%
%TO.N,COMM_BIT_3*%
X160000000Y-135400000D03*
%TO.P,J15,5,Pin_5*%
%TO.N,COMM_BIT_2*%
X160000000Y-132860000D03*
%TO.P,J15,6,Pin_6*%
%TO.N,COMM_BIT_1*%
X160000000Y-130320000D03*
%TO.P,J15,7,Pin_7*%
%TO.N,COMM_BIT_0*%
X160000000Y-127780000D03*
%TO.P,J15,8,Pin_8*%
%TO.N,unconnected-(J15-Pad8)*%
X160000000Y-125240000D03*
%TO.P,J15,9,Pin_9*%
%TO.N,unconnected-(J15-Pad9)*%
X160000000Y-122700000D03*
%TO.P,J15,10,Pin_10*%
%TO.N,DMX_DATA*%
X160000000Y-120160000D03*
%TO.P,J15,11,Pin_11*%
%TO.N,RS_232_DATA*%
X160000000Y-117620000D03*
%TO.P,J15,12,Pin_12*%
%TO.N,GND*%
X160000000Y-115080000D03*
%TO.P,J15,13,Pin_13*%
%TO.N,unconnected-(J15-Pad13)*%
X160000000Y-112540000D03*
%TO.P,J15,14,Pin_14*%
%TO.N,unconnected-(J15-Pad14)*%
X160000000Y-110000000D03*
%TO.P,J15,15,Pin_15*%
%TO.N,unconnected-(J15-Pad15)*%
X160000000Y-107460000D03*
%TD*%
D11*
%TO.P,J4,1*%
%TO.N,GND*%
X193000000Y-59000000D03*
D12*
%TO.P,J4,2*%
%TO.N,DMXB*%
X193000000Y-61540000D03*
%TO.P,J4,3*%
%TO.N,DMXA*%
X193000000Y-64080000D03*
%TD*%
D19*
%TO.P,Q3,1,B*%
%TO.N,Net-(Q3-Pad1)*%
X124300000Y-65000000D03*
%TO.P,Q3,2,E*%
%TO.N,GND*%
X126200000Y-65000000D03*
%TO.P,Q3,3,C*%
%TO.N,Net-(J13-Pad2)*%
X125250000Y-63125000D03*
%TD*%
D13*
%TO.P,C3,1*%
%TO.N,Net-(C3-Pad1)*%
X173425000Y-88000000D03*
%TO.P,C3,2*%
%TO.N,Net-(C3-Pad2)*%
X175500000Y-88000000D03*
%TD*%
D11*
%TO.P,J1,1,Pin_1*%
%TO.N,+3V3*%
X105000000Y-141275000D03*
D12*
%TO.P,J1,2,Pin_2*%
%TO.N,+5V*%
X105000000Y-138735000D03*
%TO.P,J1,3,Pin_3*%
%TO.N,unconnected-(J1-Pad3)*%
X107540000Y-141275000D03*
%TO.P,J1,4,Pin_4*%
%TO.N,+5V*%
X107540000Y-138735000D03*
%TO.P,J1,5,Pin_5*%
%TO.N,unconnected-(J1-Pad5)*%
X110080000Y-141275000D03*
%TO.P,J1,6,Pin_6*%
%TO.N,GND*%
X110080000Y-138735000D03*
%TO.P,J1,7,Pin_7*%
%TO.N,unconnected-(J1-Pad7)*%
X112620000Y-141275000D03*
%TO.P,J1,8,Pin_8*%
%TO.N,unconnected-(J1-Pad8)*%
X112620000Y-138735000D03*
%TO.P,J1,9,Pin_9*%
%TO.N,GND*%
X115160000Y-141275000D03*
%TO.P,J1,10,Pin_10*%
%TO.N,unconnected-(J1-Pad10)*%
X115160000Y-138735000D03*
%TO.P,J1,11,Pin_11*%
%TO.N,unconnected-(J1-Pad11)*%
X117700000Y-141275000D03*
%TO.P,J1,12,Pin_12*%
%TO.N,COMM_BIT_0*%
X117700000Y-138735000D03*
%TO.P,J1,13,Pin_13*%
%TO.N,unconnected-(J1-Pad13)*%
X120240000Y-141275000D03*
%TO.P,J1,14,Pin_14*%
%TO.N,GND*%
X120240000Y-138735000D03*
%TO.P,J1,15,Pin_15*%
%TO.N,unconnected-(J1-Pad15)*%
X122780000Y-141275000D03*
%TO.P,J1,16,Pin_16*%
%TO.N,COMM_BIT_1*%
X122780000Y-138735000D03*
%TO.P,J1,17,Pin_17*%
%TO.N,+3V3*%
X125320000Y-141275000D03*
%TO.P,J1,18,Pin_18*%
%TO.N,COMM_BIT_2*%
X125320000Y-138735000D03*
%TO.P,J1,19,Pin_19*%
%TO.N,unconnected-(J1-Pad19)*%
X127860000Y-141275000D03*
%TO.P,J1,20,Pin_20*%
%TO.N,GND*%
X127860000Y-138735000D03*
%TO.P,J1,21,Pin_21*%
%TO.N,unconnected-(J1-Pad21)*%
X130400000Y-141275000D03*
%TO.P,J1,22,Pin_22*%
%TO.N,COMM_BIT_3*%
X130400000Y-138735000D03*
%TO.P,J1,23,Pin_23*%
%TO.N,unconnected-(J1-Pad23)*%
X132940000Y-141275000D03*
%TO.P,J1,24,Pin_24*%
%TO.N,COMM_BIT_4*%
X132940000Y-138735000D03*
%TO.P,J1,25,Pin_25*%
%TO.N,GND*%
X135480000Y-141275000D03*
%TO.P,J1,26,Pin_26*%
%TO.N,unconnected-(J1-Pad26)*%
X135480000Y-138735000D03*
%TO.P,J1,27,Pin_27*%
%TO.N,unconnected-(J1-Pad27)*%
X138020000Y-141275000D03*
%TO.P,J1,28,Pin_28*%
%TO.N,unconnected-(J1-Pad28)*%
X138020000Y-138735000D03*
%TO.P,J1,29,Pin_29*%
%TO.N,GND*%
X140560000Y-141275000D03*
%TO.P,J1,30,Pin_30*%
X140560000Y-138735000D03*
%TO.P,J1,31,Pin_31*%
%TO.N,unconnected-(J1-Pad31)*%
X143100000Y-141275000D03*
%TO.P,J1,32,Pin_32*%
%TO.N,REBOOT*%
X143100000Y-138735000D03*
%TO.P,J1,33,Pin_33*%
%TO.N,unconnected-(J1-Pad33)*%
X145640000Y-141275000D03*
%TO.P,J1,34,Pin_34*%
%TO.N,GND*%
X145640000Y-138735000D03*
%TO.P,J1,35,Pin_35*%
%TO.N,unconnected-(J1-Pad35)*%
X148180000Y-141275000D03*
%TO.P,J1,36,Pin_36*%
%TO.N,SHUTDOWN*%
X148180000Y-138735000D03*
%TO.P,J1,37,Pin_37*%
%TO.N,unconnected-(J1-Pad37)*%
X150720000Y-141275000D03*
%TO.P,J1,38,Pin_38*%
%TO.N,MUTE*%
X150720000Y-138735000D03*
%TO.P,J1,39,Pin_39*%
%TO.N,GND*%
X153260000Y-141275000D03*
%TO.P,J1,40,Pin_40*%
%TO.N,unconnected-(J1-Pad40)*%
X153260000Y-138735000D03*
%TD*%
D14*
%TO.P,R14,1*%
%TO.N,DMXB*%
X176500000Y-66000000D03*
%TO.P,R14,2*%
%TO.N,GND*%
X176500000Y-68000000D03*
%TD*%
D20*
%TO.P,U1,1,R*%
%TO.N,Net-(R11-Pad1)*%
X174025000Y-58595000D03*
%TO.P,U1,2,\u002ARE*%
%TO.N,GND*%
X174025000Y-59865000D03*
%TO.P,U1,3,DE*%
%TO.N,+5V*%
X174025000Y-61135000D03*
%TO.P,U1,4,D*%
%TO.N,DMX_DATA*%
X174025000Y-62405000D03*
%TO.P,U1,5,GND*%
%TO.N,GND*%
X178975000Y-62405000D03*
%TO.P,U1,6,A*%
%TO.N,DMXA*%
X178975000Y-61135000D03*
%TO.P,U1,7,B*%
%TO.N,DMXB*%
X178975000Y-59865000D03*
%TO.P,U1,8,VCC*%
%TO.N,+5V*%
X178975000Y-58595000D03*
%TD*%
D16*
%TO.P,R8,1*%
%TO.N,+3V3*%
X138500000Y-104000000D03*
%TO.P,R8,2*%
%TO.N,REBOOT*%
X140500000Y-104000000D03*
%TD*%
%TO.P,R10,1*%
%TO.N,+3V3*%
X148500000Y-104000000D03*
%TO.P,R10,2*%
%TO.N,MUTE*%
X150500000Y-104000000D03*
%TD*%
D19*
%TO.P,Q1,1,B*%
%TO.N,Net-(Q1-Pad1)*%
X106100000Y-65000000D03*
%TO.P,Q1,2,E*%
%TO.N,GND*%
X108000000Y-65000000D03*
%TO.P,Q1,3,C*%
%TO.N,Net-(J11-Pad2)*%
X107050000Y-63125000D03*
%TD*%
D11*
%TO.P,J7,1,Pin_1*%
%TO.N,REBOOT*%
X128500000Y-54920000D03*
D12*
%TO.P,J7,2,Pin_2*%
%TO.N,GND*%
X128500000Y-57460000D03*
%TD*%
D11*
%TO.P,J6,1,Pin_1*%
%TO.N,GND*%
X193000000Y-86460000D03*
D12*
%TO.P,J6,2,Pin_2*%
%TO.N,RS232_OUT*%
X193000000Y-89000000D03*
%TD*%
D13*
%TO.P,C4,1*%
%TO.N,GND*%
X173425000Y-91000000D03*
%TO.P,C4,2*%
%TO.N,Net-(C4-Pad2)*%
X175500000Y-91000000D03*
%TD*%
D14*
%TO.P,R7,1*%
%TO.N,Net-(J5-Pad2)*%
X149500000Y-64000000D03*
%TO.P,R7,2*%
%TO.N,Net-(R7-Pad2)*%
X149500000Y-66000000D03*
%TD*%
D11*
%TO.P,J14,1,Pin_1*%
%TO.N,unconnected-(J14-Pad1)*%
X195240000Y-142970000D03*
D12*
%TO.P,J14,2,Pin_2*%
%TO.N,unconnected-(J14-Pad2)*%
X195240000Y-140430000D03*
%TO.P,J14,3,Pin_3*%
%TO.N,unconnected-(J14-Pad3)*%
X195240000Y-137890000D03*
%TO.P,J14,4,Pin_4*%
%TO.N,unconnected-(J14-Pad4)*%
X195240000Y-135350000D03*
%TO.P,J14,5,Pin_5*%
%TO.N,unconnected-(J14-Pad5)*%
X195240000Y-132810000D03*
%TO.P,J14,6,Pin_6*%
%TO.N,unconnected-(J14-Pad6)*%
X195240000Y-130270000D03*
%TO.P,J14,7,Pin_7*%
%TO.N,unconnected-(J14-Pad7)*%
X195240000Y-127730000D03*
%TO.P,J14,8,Pin_8*%
%TO.N,unconnected-(J14-Pad8)*%
X195240000Y-125190000D03*
%TO.P,J14,9,Pin_9*%
%TO.N,unconnected-(J14-Pad9)*%
X195240000Y-122650000D03*
%TO.P,J14,10,Pin_10*%
%TO.N,unconnected-(J14-Pad10)*%
X195240000Y-120110000D03*
%TO.P,J14,11,Pin_11*%
%TO.N,unconnected-(J14-Pad11)*%
X195240000Y-117570000D03*
%TO.P,J14,12,Pin_12*%
%TO.N,+5V*%
X195240000Y-115030000D03*
%TO.P,J14,13,Pin_13*%
%TO.N,unconnected-(J14-Pad13)*%
X195240000Y-112490000D03*
%TO.P,J14,14,Pin_14*%
%TO.N,GND*%
X195240000Y-109950000D03*
%TO.P,J14,15,Pin_15*%
%TO.N,unconnected-(J14-Pad15)*%
X195240000Y-107410000D03*
%TD*%
D11*
%TO.P,J11,1,Pin_1*%
%TO.N,Net-(J11-Pad1)*%
X106270000Y-55027500D03*
D12*
%TO.P,J11,2,Pin_2*%
%TO.N,Net-(J11-Pad2)*%
X106270000Y-57567500D03*
%TD*%
D14*
%TO.P,R13,1*%
%TO.N,DMXA*%
X184500000Y-66000000D03*
%TO.P,R13,2*%
%TO.N,+5V*%
X184500000Y-68000000D03*
%TD*%
D21*
%TO.P,TR1,1,1*%
%TO.N,Net-(R7-Pad2)*%
X149779800Y-70460000D03*
%TO.P,TR1,2,2*%
%TO.N,GND*%
X149779800Y-73000000D03*
%TO.P,TR1,3,3*%
%TO.N,unconnected-(TR1-Pad3)*%
X149779800Y-75540000D03*
%TO.P,TR1,4,4*%
%TO.N,GND*%
X159000000Y-75540000D03*
%TO.P,TR1,5,5*%
%TO.N,START_BUTTON*%
X159000000Y-73000000D03*
%TO.P,TR1,6,6*%
%TO.N,unconnected-(TR1-Pad6)*%
X159000000Y-70460000D03*
%TD*%
D22*
%TO.N,GND*%
X147000000Y-73000000D03*
X170500000Y-60500000D03*
X109800000Y-65000000D03*
X180000000Y-81500000D03*
X181500000Y-62500000D03*
X177000000Y-85000000D03*
X119000000Y-65000000D03*
X171500000Y-91000000D03*
X128200000Y-65000000D03*
X176500000Y-70000000D03*
X162000000Y-75500000D03*
%TO.N,+5V*%
X117440000Y-60950000D03*
X109880000Y-60950000D03*
X191080000Y-98470000D03*
X102770000Y-60950000D03*
%TO.N,+3V3*%
X143500000Y-101500000D03*
X138500000Y-101500000D03*
X148500000Y-101500000D03*
%TO.N,LED_ON*%
X110000000Y-132000000D03*
%TO.N,LED_PLAYING*%
X113000000Y-133500000D03*
%TO.N,LED_MUTE*%
X115000000Y-135000000D03*
%TO.N,START_BUTTON*%
X156500000Y-120000000D03*
%TD*%
D23*
%TO.N,GND*%
X171135000Y-59865000D02*
X174025000Y-59865000D01*
X173425000Y-91000000D02*
X171500000Y-91000000D01*
X170500000Y-60500000D02*
X171135000Y-59865000D01*
X181900000Y-81500000D02*
X180000000Y-81500000D01*
X181405000Y-62405000D02*
X181500000Y-62500000D01*
X167000000Y-61000000D02*
X170000000Y-61000000D01*
X192715000Y-86175000D02*
X193000000Y-86460000D01*
X117400000Y-65000000D02*
X119000000Y-65000000D01*
X167000000Y-61000000D02*
X163000000Y-61000000D01*
X163000000Y-61000000D02*
X162000000Y-60000000D01*
X176925000Y-55000000D02*
X176925000Y-57940000D01*
X126200000Y-65000000D02*
X128200000Y-65000000D01*
X161960000Y-75540000D02*
X162000000Y-75500000D01*
X178975000Y-62405000D02*
X181405000Y-62405000D01*
X108000000Y-65000000D02*
X109800000Y-65000000D01*
X149779800Y-73000000D02*
X147000000Y-73000000D01*
X175000000Y-59865000D02*
X174025000Y-59865000D01*
X170000000Y-61000000D02*
X170500000Y-60500000D01*
X176500000Y-68000000D02*
X176500000Y-70000000D01*
X180137500Y-84875000D02*
X181000000Y-84012500D01*
X181000000Y-84012500D02*
X181000000Y-82000000D01*
X181500000Y-81500000D02*
X181900000Y-81500000D01*
X175500000Y-85000000D02*
X177000000Y-85000000D01*
X185862500Y-86175000D02*
X192715000Y-86175000D01*
X159000000Y-75540000D02*
X161960000Y-75540000D01*
X176925000Y-57940000D02*
X175000000Y-59865000D01*
X181000000Y-82000000D02*
X181500000Y-81500000D01*
X180012500Y-85000000D02*
X180137500Y-84875000D01*
%TO.N,RS_232_DATA*%
X182920000Y-117580000D02*
X180000000Y-117580000D01*
X188000000Y-90000000D02*
X188000000Y-112500000D01*
X187425000Y-89425000D02*
X188000000Y-90000000D01*
X188000000Y-112500000D02*
X182920000Y-117580000D01*
X185862500Y-89425000D02*
X187425000Y-89425000D01*
%TO.N,DMX_DATA*%
X172840000Y-63590000D02*
X172840000Y-73660000D01*
X158000000Y-119000000D02*
X159160000Y-120160000D01*
X172840000Y-73660000D02*
X158000000Y-88500000D01*
X174025000Y-62405000D02*
X172840000Y-63590000D01*
X159160000Y-120160000D02*
X160000000Y-120160000D01*
X158000000Y-88500000D02*
X158000000Y-119000000D01*
%TO.N,COMM_BIT_0*%
X117700000Y-124460000D02*
X116334511Y-125825489D01*
X116334511Y-137369511D02*
X117700000Y-138735000D01*
X116525489Y-123285489D02*
X117700000Y-124460000D01*
X116334511Y-125825489D02*
X116334511Y-137369511D01*
X116525489Y-110634511D02*
X116525489Y-123285489D01*
X117700000Y-109460000D02*
X116525489Y-110634511D01*
%TO.N,COMM_BIT_1*%
X121605489Y-137560489D02*
X122780000Y-138735000D01*
X121605489Y-123285489D02*
X122780000Y-124460000D01*
X122780000Y-109460000D02*
X121605489Y-110634511D01*
X121605489Y-125634511D02*
X121605489Y-137560489D01*
X121605489Y-110634511D02*
X121605489Y-123285489D01*
X122780000Y-124460000D02*
X121605489Y-125634511D01*
%TO.N,COMM_BIT_2*%
X126685489Y-110825489D02*
X128346499Y-110825489D01*
X128346499Y-125825489D02*
X129034511Y-126513501D01*
X128346499Y-110825489D02*
X129034511Y-111513501D01*
X126685489Y-125825489D02*
X128346499Y-125825489D01*
X129034511Y-111513501D02*
X129034511Y-120745489D01*
X129034511Y-135020489D02*
X125320000Y-138735000D01*
X129034511Y-126513501D02*
X129034511Y-135020489D01*
X125320000Y-109460000D02*
X126685489Y-110825489D01*
X129034511Y-120745489D02*
X125320000Y-124460000D01*
X125320000Y-124460000D02*
X126685489Y-125825489D01*
D24*
%TO.N,+5V*%
X103000000Y-57000000D02*
X103000000Y-60720000D01*
X117500000Y-57000000D02*
X117500000Y-60890000D01*
X103000000Y-60720000D02*
X102770000Y-60950000D01*
X193500000Y-77500000D02*
X193500000Y-78300000D01*
D23*
X189950000Y-80800000D02*
X189950000Y-81500000D01*
D24*
X183975000Y-80129538D02*
X183975000Y-81500000D01*
X194180000Y-52470000D02*
X196970000Y-55260000D01*
D25*
X189950000Y-82950000D02*
X189950000Y-81500000D01*
D24*
X110000000Y-60830000D02*
X109880000Y-60950000D01*
X193500000Y-77500000D02*
X193500000Y-77950000D01*
X179010000Y-53150000D02*
X178330000Y-52470000D01*
X164450000Y-52470000D02*
X162000000Y-54920000D01*
X193660000Y-115030000D02*
X195240000Y-115030000D01*
X193500000Y-78300000D02*
X196540000Y-81340000D01*
X196970000Y-55260000D02*
X196970000Y-67300000D01*
X191180000Y-112550000D02*
X193660000Y-115030000D01*
X178330000Y-52470000D02*
X164450000Y-52470000D01*
D25*
X175365000Y-61135000D02*
X177905000Y-58595000D01*
X174025000Y-61135000D02*
X175365000Y-61135000D01*
X177905000Y-58595000D02*
X178975000Y-58595000D01*
D24*
X179000000Y-54205498D02*
X179010000Y-54195498D01*
D25*
X187475000Y-85525000D02*
X190000000Y-83000000D01*
D24*
X179000000Y-55000000D02*
X179000000Y-54205498D01*
D25*
X185862500Y-85525000D02*
X187475000Y-85525000D01*
D24*
X196540000Y-93010000D02*
X191080000Y-98470000D01*
X193500000Y-77950000D02*
X189950000Y-81500000D01*
X110000000Y-57000000D02*
X110000000Y-60830000D01*
X193500000Y-77950000D02*
X186154538Y-77950000D01*
X186154538Y-77950000D02*
X183975000Y-80129538D01*
X117500000Y-60890000D02*
X117440000Y-60950000D01*
D25*
X179000000Y-58570000D02*
X178975000Y-58595000D01*
D24*
X191080000Y-98470000D02*
X191080000Y-112550000D01*
D23*
X190000000Y-80750000D02*
X189950000Y-80800000D01*
D24*
X196270000Y-68000000D02*
X196970000Y-67300000D01*
X191080000Y-112550000D02*
X191180000Y-112550000D01*
X196970000Y-74030000D02*
X193500000Y-77500000D01*
D25*
X179000000Y-55000000D02*
X179000000Y-58570000D01*
D24*
X184500000Y-68000000D02*
X196270000Y-68000000D01*
X178330000Y-52470000D02*
X194180000Y-52470000D01*
D25*
X190000000Y-83000000D02*
X189950000Y-82950000D01*
D24*
X179010000Y-54195498D02*
X179010000Y-53150000D01*
X196970000Y-67300000D02*
X196970000Y-74030000D01*
X196540000Y-81340000D02*
X196540000Y-93010000D01*
D23*
%TO.N,COMM_BIT_3*%
X131765489Y-110825489D02*
X131765489Y-123094511D01*
X130400000Y-109460000D02*
X131765489Y-110825489D01*
X131765489Y-137369511D02*
X130400000Y-138735000D01*
X130400000Y-124460000D02*
X131765489Y-125825489D01*
X131765489Y-123094511D02*
X130400000Y-124460000D01*
X131765489Y-125825489D02*
X131765489Y-137369511D01*
%TO.N,COMM_BIT_4*%
X132940000Y-124460000D02*
X134114511Y-125634511D01*
X132940000Y-109460000D02*
X134305489Y-110825489D01*
X134114511Y-137560489D02*
X132940000Y-138735000D01*
X134114511Y-125634511D02*
X134114511Y-137560489D01*
X134305489Y-123094511D02*
X132940000Y-124460000D01*
X134305489Y-110825489D02*
X134305489Y-123094511D01*
D26*
%TO.N,+3V3*%
X138500000Y-104000000D02*
X138500000Y-101500000D01*
X143500000Y-104000000D02*
X143500000Y-101500000D01*
X148500000Y-104000000D02*
X148500000Y-101500000D01*
D23*
%TO.N,REBOOT*%
X143100000Y-124460000D02*
X144465489Y-125825489D01*
X140500000Y-100500000D02*
X140500000Y-106860000D01*
X129600000Y-54920000D02*
X140500000Y-65820000D01*
X140500000Y-106860000D02*
X143100000Y-109460000D01*
X143100000Y-109460000D02*
X144274511Y-110634511D01*
X144274511Y-110634511D02*
X144274511Y-123285489D01*
X144274511Y-123285489D02*
X143100000Y-124460000D01*
X144465489Y-137369511D02*
X143100000Y-138735000D01*
X140500000Y-65820000D02*
X140500000Y-100500000D01*
X128500000Y-54920000D02*
X129600000Y-54920000D01*
X144465489Y-125825489D02*
X144465489Y-137369511D01*
%TO.N,SHUTDOWN*%
X143000000Y-65000000D02*
X143000000Y-90500000D01*
X149545489Y-125825489D02*
X149545489Y-137369511D01*
X145500000Y-106780000D02*
X148180000Y-109460000D01*
X148180000Y-124460000D02*
X149545489Y-125825489D01*
X148180000Y-109460000D02*
X149545489Y-110825489D01*
X137420000Y-54920000D02*
X139500000Y-57000000D01*
X149545489Y-123094511D02*
X148180000Y-124460000D01*
X145500000Y-93000000D02*
X145500000Y-100500000D01*
X145500000Y-100500000D02*
X145500000Y-106780000D01*
X139500000Y-57000000D02*
X139500000Y-61500000D01*
X143000000Y-90500000D02*
X145500000Y-93000000D01*
X136000000Y-54920000D02*
X137420000Y-54920000D01*
X149545489Y-110825489D02*
X149545489Y-123094511D01*
X149545489Y-137369511D02*
X148180000Y-138735000D01*
X139500000Y-61500000D02*
X143000000Y-65000000D01*
%TO.N,MUTE*%
X152085489Y-123094511D02*
X150720000Y-124460000D01*
X150500000Y-109240000D02*
X150720000Y-109460000D01*
X152085489Y-110825489D02*
X152085489Y-123094511D01*
X145500000Y-55500000D02*
X145500000Y-85500000D01*
X150720000Y-109460000D02*
X152085489Y-110825489D01*
X150720000Y-124460000D02*
X152085489Y-125825489D01*
X152085489Y-137369511D02*
X150720000Y-138735000D01*
X152085489Y-125825489D02*
X152085489Y-137369511D01*
X144920000Y-54920000D02*
X145500000Y-55500000D01*
X143500000Y-54920000D02*
X144920000Y-54920000D01*
X150500000Y-90500000D02*
X150500000Y-100500000D01*
X150500000Y-100500000D02*
X150500000Y-109240000D01*
X145500000Y-85500000D02*
X150500000Y-90500000D01*
%TO.N,LED_ON*%
X106000000Y-71500000D02*
X106365489Y-71865489D01*
X106365489Y-71865489D02*
X106365489Y-128365489D01*
X106365489Y-128365489D02*
X110000000Y-132000000D01*
%TO.N,LED_PLAYING*%
X115500000Y-73000000D02*
X115500000Y-71500000D01*
X108905489Y-129405489D02*
X108905489Y-79594511D01*
X108905489Y-79594511D02*
X115500000Y-73000000D01*
X108905489Y-129405489D02*
X113000000Y-133500000D01*
%TO.N,LED_MUTE*%
X124500000Y-71500000D02*
X120500000Y-71500000D01*
X111445489Y-80554511D02*
X111445489Y-129445489D01*
X111500000Y-80500000D02*
X111445489Y-80554511D01*
X120500000Y-71500000D02*
X111500000Y-80500000D01*
X115000000Y-133000000D02*
X115000000Y-135000000D01*
X111445489Y-129445489D02*
X115000000Y-133000000D01*
%TO.N,DMXB*%
X190040000Y-61540000D02*
X193000000Y-61540000D01*
X178000000Y-59865000D02*
X176500000Y-61365000D01*
X188365000Y-59865000D02*
X190040000Y-61540000D01*
X178975000Y-59865000D02*
X188365000Y-59865000D01*
X178975000Y-59865000D02*
X178000000Y-59865000D01*
X176500000Y-61365000D02*
X176500000Y-66000000D01*
%TO.N,DMXA*%
X190580000Y-64080000D02*
X193000000Y-64080000D01*
X184500000Y-66000000D02*
X184500000Y-61270000D01*
X184500000Y-61270000D02*
X184365000Y-61135000D01*
X178975000Y-61135000D02*
X184365000Y-61135000D01*
X184365000Y-61135000D02*
X187635000Y-61135000D01*
X187635000Y-61135000D02*
X190580000Y-64080000D01*
%TO.N,Net-(J5-Pad2)*%
X149500000Y-64000000D02*
X149500000Y-58960000D01*
X149500000Y-58960000D02*
X151000000Y-57460000D01*
%TO.N,RS232_OUT*%
X185862500Y-86825000D02*
X188825000Y-86825000D01*
X191000000Y-89000000D02*
X193000000Y-89000000D01*
X188825000Y-86825000D02*
X191000000Y-89000000D01*
%TO.N,Net-(J11-Pad1)*%
X106242500Y-55000000D02*
X106270000Y-55027500D01*
X103000000Y-55000000D02*
X106242500Y-55000000D01*
%TO.N,Net-(J11-Pad2)*%
X107050000Y-58347500D02*
X106270000Y-57567500D01*
X107050000Y-63125000D02*
X107050000Y-58347500D01*
%TO.N,Net-(J12-Pad1)*%
X113420000Y-55000000D02*
X113500000Y-54920000D01*
X110000000Y-55000000D02*
X113420000Y-55000000D01*
%TO.N,Net-(J12-Pad2)*%
X113500000Y-57460000D02*
X113500000Y-60175000D01*
X113500000Y-60175000D02*
X116450000Y-63125000D01*
%TO.N,Net-(J13-Pad1)*%
X117500000Y-55000000D02*
X120920000Y-55000000D01*
X120920000Y-55000000D02*
X121000000Y-54920000D01*
%TO.N,Net-(J13-Pad2)*%
X121000000Y-57460000D02*
X121000000Y-58875000D01*
X121000000Y-58875000D02*
X125250000Y-63125000D01*
%TO.N,Net-(R7-Pad2)*%
X149500000Y-66000000D02*
X149500000Y-70180200D01*
X149500000Y-70180200D02*
X149779800Y-70460000D01*
%TO.N,START_BUTTON*%
X159000000Y-73000000D02*
X156500000Y-75500000D01*
X156500000Y-75500000D02*
X156500000Y-120000000D01*
%TO.N,Net-(R11-Pad1)*%
X167000000Y-59000000D02*
X170000000Y-59000000D01*
X170000000Y-59000000D02*
X170405000Y-58595000D01*
X170405000Y-58595000D02*
X174025000Y-58595000D01*
%TO.N,Net-(C2-Pad2)*%
X177000000Y-83500000D02*
X172000000Y-83500000D01*
X179025000Y-85525000D02*
X177000000Y-83500000D01*
X172000000Y-83500000D02*
X170500000Y-85000000D01*
X180137500Y-85525000D02*
X179025000Y-85525000D01*
%TO.N,/DMX_RS232/V+*%
X174600000Y-86175000D02*
X173425000Y-85000000D01*
X180137500Y-86175000D02*
X174600000Y-86175000D01*
%TO.N,Net-(C2-Pad1)*%
X168825000Y-86825000D02*
X168425000Y-86425000D01*
X168425000Y-86425000D02*
X168425000Y-85000000D01*
X180137500Y-86825000D02*
X168825000Y-86825000D01*
%TO.N,Net-(C3-Pad2)*%
X177025000Y-87475000D02*
X180137500Y-87475000D01*
X175500000Y-88000000D02*
X176500000Y-88000000D01*
X176500000Y-88000000D02*
X177025000Y-87475000D01*
%TO.N,Net-(C3-Pad1)*%
X180137500Y-88125000D02*
X177875000Y-88125000D01*
X173425000Y-88925000D02*
X173425000Y-88000000D01*
X174000000Y-89500000D02*
X173425000Y-88925000D01*
X176500000Y-89500000D02*
X174000000Y-89500000D01*
X177875000Y-88125000D02*
X176500000Y-89500000D01*
%TO.N,Net-(C4-Pad2)*%
X176500000Y-91000000D02*
X178725000Y-88775000D01*
X175500000Y-91000000D02*
X176500000Y-91000000D01*
X178725000Y-88775000D02*
X180137500Y-88775000D01*
%TO.N,Net-(R12-Pad2)*%
X185862500Y-84875000D02*
X187950000Y-82787500D01*
X187950000Y-82787500D02*
X187950000Y-81500000D01*
%TO.N,Net-(Q1-Pad1)*%
X106100000Y-69400000D02*
X106000000Y-69500000D01*
X106100000Y-65000000D02*
X106100000Y-69400000D01*
%TO.N,Net-(Q2-Pad1)*%
X115540000Y-69460000D02*
X115500000Y-69500000D01*
X115500000Y-65000000D02*
X115500000Y-69500000D01*
%TO.N,Net-(Q3-Pad1)*%
X124300000Y-69300000D02*
X124500000Y-69500000D01*
X124300000Y-65000000D02*
X124300000Y-69300000D01*
X124270000Y-69270000D02*
X124500000Y-69500000D01*
%TD*%
M02*
