%TF.GenerationSoftware,KiCad,Pcbnew,(5.99.0-11144-gea0c162604)*%
%TF.CreationDate,2021-09-15T06:49:40-05:00*%
%TF.ProjectId,The-Force-V2,5468652d-466f-4726-9365-2d56322e6b69,rev?*%
%TF.SameCoordinates,Original*%
%TF.FileFunction,Soldermask,Bot*%
%TF.FilePolarity,Negative*%
%FSLAX46Y46*%
G04 Gerber Fmt 4.6, Leading zero omitted, Abs format (unit mm)*
G04 Created by KiCad (PCBNEW (5.99.0-11144-gea0c162604)) date 2021-09-15 06:49:40*
%MOMM*%
%LPD*%
G01*
G04 APERTURE LIST*
%ADD10R,1.700000X1.700000*%
%ADD11O,1.700000X1.700000*%
G04 APERTURE END LIST*
D10*
%TO.C,J10*%
X162000000Y-60000000D03*
D11*
X162000000Y-57460000D03*
X162000000Y-54920000D03*
%TD*%
D10*
%TO.C,J17*%
X180000000Y-143000000D03*
D11*
X180000000Y-140460000D03*
X180000000Y-137920000D03*
X180000000Y-135380000D03*
X180000000Y-132840000D03*
X180000000Y-130300000D03*
X180000000Y-127760000D03*
X180000000Y-125220000D03*
X180000000Y-122680000D03*
X180000000Y-120140000D03*
X180000000Y-117600000D03*
X180000000Y-115060000D03*
X180000000Y-112520000D03*
X180000000Y-109980000D03*
X180000000Y-107440000D03*
%TD*%
D10*
%TO.C,J16*%
X175240000Y-143020000D03*
D11*
X175240000Y-140480000D03*
X175240000Y-137940000D03*
X175240000Y-135400000D03*
X175240000Y-132860000D03*
X175240000Y-130320000D03*
X175240000Y-127780000D03*
X175240000Y-125240000D03*
X175240000Y-122700000D03*
X175240000Y-120160000D03*
X175240000Y-117620000D03*
X175240000Y-115080000D03*
X175240000Y-112540000D03*
X175240000Y-110000000D03*
X175240000Y-107460000D03*
%TD*%
D10*
%TO.C,J2*%
X105000000Y-127000000D03*
D11*
X105000000Y-124460000D03*
X107540000Y-127000000D03*
X107540000Y-124460000D03*
X110080000Y-127000000D03*
X110080000Y-124460000D03*
X112620000Y-127000000D03*
X112620000Y-124460000D03*
X115160000Y-127000000D03*
X115160000Y-124460000D03*
X117700000Y-127000000D03*
X117700000Y-124460000D03*
X120240000Y-127000000D03*
X120240000Y-124460000D03*
X122780000Y-127000000D03*
X122780000Y-124460000D03*
X125320000Y-127000000D03*
X125320000Y-124460000D03*
X127860000Y-127000000D03*
X127860000Y-124460000D03*
X130400000Y-127000000D03*
X130400000Y-124460000D03*
X132940000Y-127000000D03*
X132940000Y-124460000D03*
X135480000Y-127000000D03*
X135480000Y-124460000D03*
X138020000Y-127000000D03*
X138020000Y-124460000D03*
X140560000Y-127000000D03*
X140560000Y-124460000D03*
X143100000Y-127000000D03*
X143100000Y-124460000D03*
X145640000Y-127000000D03*
X145640000Y-124460000D03*
X148180000Y-127000000D03*
X148180000Y-124460000D03*
X150720000Y-127000000D03*
X150720000Y-124460000D03*
X153260000Y-127000000D03*
X153260000Y-124460000D03*
%TD*%
D10*
%TO.C,J8*%
X136000000Y-54920000D03*
D11*
X136000000Y-57460000D03*
%TD*%
D10*
%TO.C,J3*%
X105000000Y-112000000D03*
D11*
X105000000Y-109460000D03*
X107540000Y-112000000D03*
X107540000Y-109460000D03*
X110080000Y-112000000D03*
X110080000Y-109460000D03*
X112620000Y-112000000D03*
X112620000Y-109460000D03*
X115160000Y-112000000D03*
X115160000Y-109460000D03*
X117700000Y-112000000D03*
X117700000Y-109460000D03*
X120240000Y-112000000D03*
X120240000Y-109460000D03*
X122780000Y-112000000D03*
X122780000Y-109460000D03*
X125320000Y-112000000D03*
X125320000Y-109460000D03*
X127860000Y-112000000D03*
X127860000Y-109460000D03*
X130400000Y-112000000D03*
X130400000Y-109460000D03*
X132940000Y-112000000D03*
X132940000Y-109460000D03*
X135480000Y-112000000D03*
X135480000Y-109460000D03*
X138020000Y-112000000D03*
X138020000Y-109460000D03*
X140560000Y-112000000D03*
X140560000Y-109460000D03*
X143100000Y-112000000D03*
X143100000Y-109460000D03*
X145640000Y-112000000D03*
X145640000Y-109460000D03*
X148180000Y-112000000D03*
X148180000Y-109460000D03*
X150720000Y-112000000D03*
X150720000Y-109460000D03*
X153260000Y-112000000D03*
X153260000Y-109460000D03*
%TD*%
D10*
%TO.C,J5*%
X151000000Y-54920000D03*
D11*
X151000000Y-57460000D03*
%TD*%
D10*
%TO.C,J13*%
X121000000Y-54920000D03*
D11*
X121000000Y-57460000D03*
%TD*%
D10*
%TO.C,J9*%
X143500000Y-54920000D03*
D11*
X143500000Y-57460000D03*
%TD*%
D10*
%TO.C,J12*%
X113500000Y-54920000D03*
D11*
X113500000Y-57460000D03*
%TD*%
D10*
%TO.C,J15*%
X160000000Y-143020000D03*
D11*
X160000000Y-140480000D03*
X160000000Y-137940000D03*
X160000000Y-135400000D03*
X160000000Y-132860000D03*
X160000000Y-130320000D03*
X160000000Y-127780000D03*
X160000000Y-125240000D03*
X160000000Y-122700000D03*
X160000000Y-120160000D03*
X160000000Y-117620000D03*
X160000000Y-115080000D03*
X160000000Y-112540000D03*
X160000000Y-110000000D03*
X160000000Y-107460000D03*
%TD*%
D10*
%TO.C,J4*%
X193000000Y-59000000D03*
D11*
X193000000Y-61540000D03*
X193000000Y-64080000D03*
%TD*%
D10*
%TO.C,J1*%
X105000000Y-141275000D03*
D11*
X105000000Y-138735000D03*
X107540000Y-141275000D03*
X107540000Y-138735000D03*
X110080000Y-141275000D03*
X110080000Y-138735000D03*
X112620000Y-141275000D03*
X112620000Y-138735000D03*
X115160000Y-141275000D03*
X115160000Y-138735000D03*
X117700000Y-141275000D03*
X117700000Y-138735000D03*
X120240000Y-141275000D03*
X120240000Y-138735000D03*
X122780000Y-141275000D03*
X122780000Y-138735000D03*
X125320000Y-141275000D03*
X125320000Y-138735000D03*
X127860000Y-141275000D03*
X127860000Y-138735000D03*
X130400000Y-141275000D03*
X130400000Y-138735000D03*
X132940000Y-141275000D03*
X132940000Y-138735000D03*
X135480000Y-141275000D03*
X135480000Y-138735000D03*
X138020000Y-141275000D03*
X138020000Y-138735000D03*
X140560000Y-141275000D03*
X140560000Y-138735000D03*
X143100000Y-141275000D03*
X143100000Y-138735000D03*
X145640000Y-141275000D03*
X145640000Y-138735000D03*
X148180000Y-141275000D03*
X148180000Y-138735000D03*
X150720000Y-141275000D03*
X150720000Y-138735000D03*
X153260000Y-141275000D03*
X153260000Y-138735000D03*
%TD*%
D10*
%TO.C,J7*%
X128500000Y-54920000D03*
D11*
X128500000Y-57460000D03*
%TD*%
D10*
%TO.C,J6*%
X193000000Y-86460000D03*
D11*
X193000000Y-89000000D03*
%TD*%
D10*
%TO.C,J14*%
X195240000Y-142970000D03*
D11*
X195240000Y-140430000D03*
X195240000Y-137890000D03*
X195240000Y-135350000D03*
X195240000Y-132810000D03*
X195240000Y-130270000D03*
X195240000Y-127730000D03*
X195240000Y-125190000D03*
X195240000Y-122650000D03*
X195240000Y-120110000D03*
X195240000Y-117570000D03*
X195240000Y-115030000D03*
X195240000Y-112490000D03*
X195240000Y-109950000D03*
X195240000Y-107410000D03*
%TD*%
D10*
%TO.C,J11*%
X106270000Y-55027500D03*
D11*
X106270000Y-57567500D03*
%TD*%
M02*
