%TF.GenerationSoftware,KiCad,Pcbnew,(5.99.0-11144-gea0c162604)*%
%TF.CreationDate,2021-09-15T06:49:40-05:00*%
%TF.ProjectId,The-Force-V2,5468652d-466f-4726-9365-2d56322e6b69,rev?*%
%TF.SameCoordinates,Original*%
%TF.FileFunction,Legend,Top*%
%TF.FilePolarity,Positive*%
%FSLAX46Y46*%
G04 Gerber Fmt 4.6, Leading zero omitted, Abs format (unit mm)*
G04 Created by KiCad (PCBNEW (5.99.0-11144-gea0c162604)) date 2021-09-15 06:49:40*
%MOMM*%
%LPD*%
G01*
G04 APERTURE LIST*
%ADD10C,0.575000*%
%ADD11C,0.200000*%
%ADD12C,0.500000*%
%ADD13C,0.150000*%
%ADD14C,0.120000*%
G04 APERTURE END LIST*
D10*
X173787500Y-56500000D02*
G75*
G03*
X173787500Y-56500000I-287500J0D01*
G01*
X147787500Y-69000000D02*
G75*
G03*
X147787500Y-69000000I-287500J0D01*
G01*
X102287500Y-112500000D02*
G75*
G03*
X102287500Y-112500000I-287500J0D01*
G01*
X102287500Y-127500000D02*
G75*
G03*
X102287500Y-127500000I-287500J0D01*
G01*
X102287500Y-142000000D02*
G75*
G03*
X102287500Y-142000000I-287500J0D01*
G01*
X178787500Y-83000000D02*
G75*
G03*
X178787500Y-83000000I-287500J0D01*
G01*
D11*
X165607142Y-144678571D02*
X165607142Y-145892857D01*
X165678571Y-146035714D01*
X165750000Y-146107142D01*
X165892857Y-146178571D01*
X166178571Y-146178571D01*
X166321428Y-146107142D01*
X166392857Y-146035714D01*
X166464285Y-145892857D01*
X166464285Y-144678571D01*
X167107142Y-146107142D02*
X167321428Y-146178571D01*
X167678571Y-146178571D01*
X167821428Y-146107142D01*
X167892857Y-146035714D01*
X167964285Y-145892857D01*
X167964285Y-145750000D01*
X167892857Y-145607142D01*
X167821428Y-145535714D01*
X167678571Y-145464285D01*
X167392857Y-145392857D01*
X167250000Y-145321428D01*
X167178571Y-145250000D01*
X167107142Y-145107142D01*
X167107142Y-144964285D01*
X167178571Y-144821428D01*
X167250000Y-144750000D01*
X167392857Y-144678571D01*
X167750000Y-144678571D01*
X167964285Y-144750000D01*
X169107142Y-145392857D02*
X169321428Y-145464285D01*
X169392857Y-145535714D01*
X169464285Y-145678571D01*
X169464285Y-145892857D01*
X169392857Y-146035714D01*
X169321428Y-146107142D01*
X169178571Y-146178571D01*
X168607142Y-146178571D01*
X168607142Y-144678571D01*
X169107142Y-144678571D01*
X169250000Y-144750000D01*
X169321428Y-144821428D01*
X169392857Y-144964285D01*
X169392857Y-145107142D01*
X169321428Y-145250000D01*
X169250000Y-145321428D01*
X169107142Y-145392857D01*
X168607142Y-145392857D01*
D12*
X114202380Y-147130952D02*
X113369047Y-145940476D01*
X112773809Y-147130952D02*
X112773809Y-144630952D01*
X113726190Y-144630952D01*
X113964285Y-144750000D01*
X114083333Y-144869047D01*
X114202380Y-145107142D01*
X114202380Y-145464285D01*
X114083333Y-145702380D01*
X113964285Y-145821428D01*
X113726190Y-145940476D01*
X112773809Y-145940476D01*
X115035714Y-145464285D02*
X115630952Y-147130952D01*
X116226190Y-145464285D02*
X115630952Y-147130952D01*
X115392857Y-147726190D01*
X115273809Y-147845238D01*
X115035714Y-147964285D01*
X118250000Y-147130952D02*
X118250000Y-145821428D01*
X118130952Y-145583333D01*
X117892857Y-145464285D01*
X117416666Y-145464285D01*
X117178571Y-145583333D01*
X118250000Y-147011904D02*
X118011904Y-147130952D01*
X117416666Y-147130952D01*
X117178571Y-147011904D01*
X117059523Y-146773809D01*
X117059523Y-146535714D01*
X117178571Y-146297619D01*
X117416666Y-146178571D01*
X118011904Y-146178571D01*
X118250000Y-146059523D01*
X119440476Y-145464285D02*
X119440476Y-147130952D01*
X119440476Y-145702380D02*
X119559523Y-145583333D01*
X119797619Y-145464285D01*
X120154761Y-145464285D01*
X120392857Y-145583333D01*
X120511904Y-145821428D01*
X120511904Y-147130952D01*
X123488095Y-146416666D02*
X124678571Y-146416666D01*
X123250000Y-147130952D02*
X124083333Y-144630952D01*
X124916666Y-147130952D01*
X125750000Y-147130952D02*
X125750000Y-144630952D01*
X125750000Y-145583333D02*
X125988095Y-145464285D01*
X126464285Y-145464285D01*
X126702380Y-145583333D01*
X126821428Y-145702380D01*
X126940476Y-145940476D01*
X126940476Y-146654761D01*
X126821428Y-146892857D01*
X126702380Y-147011904D01*
X126464285Y-147130952D01*
X125988095Y-147130952D01*
X125750000Y-147011904D01*
X127892857Y-147011904D02*
X128130952Y-147130952D01*
X128607142Y-147130952D01*
X128845238Y-147011904D01*
X128964285Y-146773809D01*
X128964285Y-146654761D01*
X128845238Y-146416666D01*
X128607142Y-146297619D01*
X128250000Y-146297619D01*
X128011904Y-146178571D01*
X127892857Y-145940476D01*
X127892857Y-145821428D01*
X128011904Y-145583333D01*
X128250000Y-145464285D01*
X128607142Y-145464285D01*
X128845238Y-145583333D01*
X130035714Y-147130952D02*
X130035714Y-144630952D01*
X131107142Y-147130952D02*
X131107142Y-145821428D01*
X130988095Y-145583333D01*
X130750000Y-145464285D01*
X130392857Y-145464285D01*
X130154761Y-145583333D01*
X130035714Y-145702380D01*
X133250000Y-147011904D02*
X133011904Y-147130952D01*
X132535714Y-147130952D01*
X132297619Y-147011904D01*
X132178571Y-146773809D01*
X132178571Y-145821428D01*
X132297619Y-145583333D01*
X132535714Y-145464285D01*
X133011904Y-145464285D01*
X133250000Y-145583333D01*
X133369047Y-145821428D01*
X133369047Y-146059523D01*
X132178571Y-146297619D01*
X134440476Y-147130952D02*
X134440476Y-145464285D01*
X134440476Y-145940476D02*
X134559523Y-145702380D01*
X134678571Y-145583333D01*
X134916666Y-145464285D01*
X135154761Y-145464285D01*
X137773809Y-144869047D02*
X137892857Y-144750000D01*
X138130952Y-144630952D01*
X138726190Y-144630952D01*
X138964285Y-144750000D01*
X139083333Y-144869047D01*
X139202380Y-145107142D01*
X139202380Y-145345238D01*
X139083333Y-145702380D01*
X137654761Y-147130952D01*
X139202380Y-147130952D01*
X140750000Y-144630952D02*
X140988095Y-144630952D01*
X141226190Y-144750000D01*
X141345238Y-144869047D01*
X141464285Y-145107142D01*
X141583333Y-145583333D01*
X141583333Y-146178571D01*
X141464285Y-146654761D01*
X141345238Y-146892857D01*
X141226190Y-147011904D01*
X140988095Y-147130952D01*
X140750000Y-147130952D01*
X140511904Y-147011904D01*
X140392857Y-146892857D01*
X140273809Y-146654761D01*
X140154761Y-146178571D01*
X140154761Y-145583333D01*
X140273809Y-145107142D01*
X140392857Y-144869047D01*
X140511904Y-144750000D01*
X140750000Y-144630952D01*
X142535714Y-144869047D02*
X142654761Y-144750000D01*
X142892857Y-144630952D01*
X143488095Y-144630952D01*
X143726190Y-144750000D01*
X143845238Y-144869047D01*
X143964285Y-145107142D01*
X143964285Y-145345238D01*
X143845238Y-145702380D01*
X142416666Y-147130952D01*
X143964285Y-147130952D01*
X146345238Y-147130952D02*
X144916666Y-147130952D01*
X145630952Y-147130952D02*
X145630952Y-144630952D01*
X145392857Y-144988095D01*
X145154761Y-145226190D01*
X144916666Y-145345238D01*
D11*
X185607142Y-144678571D02*
X185607142Y-145892857D01*
X185678571Y-146035714D01*
X185750000Y-146107142D01*
X185892857Y-146178571D01*
X186178571Y-146178571D01*
X186321428Y-146107142D01*
X186392857Y-146035714D01*
X186464285Y-145892857D01*
X186464285Y-144678571D01*
X187107142Y-146107142D02*
X187321428Y-146178571D01*
X187678571Y-146178571D01*
X187821428Y-146107142D01*
X187892857Y-146035714D01*
X187964285Y-145892857D01*
X187964285Y-145750000D01*
X187892857Y-145607142D01*
X187821428Y-145535714D01*
X187678571Y-145464285D01*
X187392857Y-145392857D01*
X187250000Y-145321428D01*
X187178571Y-145250000D01*
X187107142Y-145107142D01*
X187107142Y-144964285D01*
X187178571Y-144821428D01*
X187250000Y-144750000D01*
X187392857Y-144678571D01*
X187750000Y-144678571D01*
X187964285Y-144750000D01*
X189107142Y-145392857D02*
X189321428Y-145464285D01*
X189392857Y-145535714D01*
X189464285Y-145678571D01*
X189464285Y-145892857D01*
X189392857Y-146035714D01*
X189321428Y-146107142D01*
X189178571Y-146178571D01*
X188607142Y-146178571D01*
X188607142Y-144678571D01*
X189107142Y-144678571D01*
X189250000Y-144750000D01*
X189321428Y-144821428D01*
X189392857Y-144964285D01*
X189392857Y-145107142D01*
X189321428Y-145250000D01*
X189250000Y-145321428D01*
X189107142Y-145392857D01*
X188607142Y-145392857D01*
D13*
X187532380Y-131469047D02*
X188246666Y-131469047D01*
X188389523Y-131516666D01*
X188484761Y-131611904D01*
X188532380Y-131754761D01*
X188532380Y-131850000D01*
X188532380Y-130516666D02*
X188532380Y-130992857D01*
X187532380Y-130992857D01*
X188437142Y-129611904D02*
X188484761Y-129659523D01*
X188532380Y-129802380D01*
X188532380Y-129897619D01*
X188484761Y-130040476D01*
X188389523Y-130135714D01*
X188294285Y-130183333D01*
X188103809Y-130230952D01*
X187960952Y-130230952D01*
X187770476Y-130183333D01*
X187675238Y-130135714D01*
X187580000Y-130040476D01*
X187532380Y-129897619D01*
X187532380Y-129802380D01*
X187580000Y-129659523D01*
X187627619Y-129611904D01*
X187532380Y-128897619D02*
X188246666Y-128897619D01*
X188389523Y-128945238D01*
X188484761Y-129040476D01*
X188532380Y-129183333D01*
X188532380Y-129278571D01*
X188532380Y-127945238D02*
X188532380Y-128421428D01*
X187532380Y-128421428D01*
X188437142Y-127040476D02*
X188484761Y-127088095D01*
X188532380Y-127230952D01*
X188532380Y-127326190D01*
X188484761Y-127469047D01*
X188389523Y-127564285D01*
X188294285Y-127611904D01*
X188103809Y-127659523D01*
X187960952Y-127659523D01*
X187770476Y-127611904D01*
X187675238Y-127564285D01*
X187580000Y-127469047D01*
X187532380Y-127326190D01*
X187532380Y-127230952D01*
X187580000Y-127088095D01*
X187627619Y-127040476D01*
X187532380Y-126326190D02*
X188246666Y-126326190D01*
X188389523Y-126373809D01*
X188484761Y-126469047D01*
X188532380Y-126611904D01*
X188532380Y-126707142D01*
X188532380Y-125373809D02*
X188532380Y-125850000D01*
X187532380Y-125850000D01*
X188437142Y-124469047D02*
X188484761Y-124516666D01*
X188532380Y-124659523D01*
X188532380Y-124754761D01*
X188484761Y-124897619D01*
X188389523Y-124992857D01*
X188294285Y-125040476D01*
X188103809Y-125088095D01*
X187960952Y-125088095D01*
X187770476Y-125040476D01*
X187675238Y-124992857D01*
X187580000Y-124897619D01*
X187532380Y-124754761D01*
X187532380Y-124659523D01*
X187580000Y-124516666D01*
X187627619Y-124469047D01*
X187532380Y-123754761D02*
X188246666Y-123754761D01*
X188389523Y-123802380D01*
X188484761Y-123897619D01*
X188532380Y-124040476D01*
X188532380Y-124135714D01*
X188532380Y-122802380D02*
X188532380Y-123278571D01*
X187532380Y-123278571D01*
X188437142Y-121897619D02*
X188484761Y-121945238D01*
X188532380Y-122088095D01*
X188532380Y-122183333D01*
X188484761Y-122326190D01*
X188389523Y-122421428D01*
X188294285Y-122469047D01*
X188103809Y-122516666D01*
X187960952Y-122516666D01*
X187770476Y-122469047D01*
X187675238Y-122421428D01*
X187580000Y-122326190D01*
X187532380Y-122183333D01*
X187532380Y-122088095D01*
X187580000Y-121945238D01*
X187627619Y-121897619D01*
D12*
X105011904Y-117130952D02*
X106440476Y-117130952D01*
X105726190Y-119630952D02*
X105726190Y-117130952D01*
X107273809Y-119630952D02*
X107273809Y-117130952D01*
X108345238Y-119630952D02*
X108345238Y-118321428D01*
X108226190Y-118083333D01*
X107988095Y-117964285D01*
X107630952Y-117964285D01*
X107392857Y-118083333D01*
X107273809Y-118202380D01*
X110488095Y-119511904D02*
X110250000Y-119630952D01*
X109773809Y-119630952D01*
X109535714Y-119511904D01*
X109416666Y-119273809D01*
X109416666Y-118321428D01*
X109535714Y-118083333D01*
X109773809Y-117964285D01*
X110250000Y-117964285D01*
X110488095Y-118083333D01*
X110607142Y-118321428D01*
X110607142Y-118559523D01*
X109416666Y-118797619D01*
X114416666Y-118321428D02*
X113583333Y-118321428D01*
X113583333Y-119630952D02*
X113583333Y-117130952D01*
X114773809Y-117130952D01*
X116202380Y-117130952D02*
X116678571Y-117130952D01*
X116916666Y-117250000D01*
X117154761Y-117488095D01*
X117273809Y-117964285D01*
X117273809Y-118797619D01*
X117154761Y-119273809D01*
X116916666Y-119511904D01*
X116678571Y-119630952D01*
X116202380Y-119630952D01*
X115964285Y-119511904D01*
X115726190Y-119273809D01*
X115607142Y-118797619D01*
X115607142Y-117964285D01*
X115726190Y-117488095D01*
X115964285Y-117250000D01*
X116202380Y-117130952D01*
X119773809Y-119630952D02*
X118940476Y-118440476D01*
X118345238Y-119630952D02*
X118345238Y-117130952D01*
X119297619Y-117130952D01*
X119535714Y-117250000D01*
X119654761Y-117369047D01*
X119773809Y-117607142D01*
X119773809Y-117964285D01*
X119654761Y-118202380D01*
X119535714Y-118321428D01*
X119297619Y-118440476D01*
X118345238Y-118440476D01*
X122273809Y-119392857D02*
X122154761Y-119511904D01*
X121797619Y-119630952D01*
X121559523Y-119630952D01*
X121202380Y-119511904D01*
X120964285Y-119273809D01*
X120845238Y-119035714D01*
X120726190Y-118559523D01*
X120726190Y-118202380D01*
X120845238Y-117726190D01*
X120964285Y-117488095D01*
X121202380Y-117250000D01*
X121559523Y-117130952D01*
X121797619Y-117130952D01*
X122154761Y-117250000D01*
X122273809Y-117369047D01*
X123345238Y-118321428D02*
X124178571Y-118321428D01*
X124535714Y-119630952D02*
X123345238Y-119630952D01*
X123345238Y-117130952D01*
X124535714Y-117130952D01*
X128940476Y-119392857D02*
X128821428Y-119511904D01*
X128464285Y-119630952D01*
X128226190Y-119630952D01*
X127869047Y-119511904D01*
X127630952Y-119273809D01*
X127511904Y-119035714D01*
X127392857Y-118559523D01*
X127392857Y-118202380D01*
X127511904Y-117726190D01*
X127630952Y-117488095D01*
X127869047Y-117250000D01*
X128226190Y-117130952D01*
X128464285Y-117130952D01*
X128821428Y-117250000D01*
X128940476Y-117369047D01*
X130369047Y-119630952D02*
X130130952Y-119511904D01*
X130011904Y-119392857D01*
X129892857Y-119154761D01*
X129892857Y-118440476D01*
X130011904Y-118202380D01*
X130130952Y-118083333D01*
X130369047Y-117964285D01*
X130726190Y-117964285D01*
X130964285Y-118083333D01*
X131083333Y-118202380D01*
X131202380Y-118440476D01*
X131202380Y-119154761D01*
X131083333Y-119392857D01*
X130964285Y-119511904D01*
X130726190Y-119630952D01*
X130369047Y-119630952D01*
X132273809Y-117964285D02*
X132273809Y-119630952D01*
X132273809Y-118202380D02*
X132392857Y-118083333D01*
X132630952Y-117964285D01*
X132988095Y-117964285D01*
X133226190Y-118083333D01*
X133345238Y-118321428D01*
X133345238Y-119630952D01*
X134178571Y-117964285D02*
X135130952Y-117964285D01*
X134535714Y-117130952D02*
X134535714Y-119273809D01*
X134654761Y-119511904D01*
X134892857Y-119630952D01*
X135130952Y-119630952D01*
X135964285Y-119630952D02*
X135964285Y-117964285D01*
X135964285Y-118440476D02*
X136083333Y-118202380D01*
X136202380Y-118083333D01*
X136440476Y-117964285D01*
X136678571Y-117964285D01*
X137869047Y-119630952D02*
X137630952Y-119511904D01*
X137511904Y-119392857D01*
X137392857Y-119154761D01*
X137392857Y-118440476D01*
X137511904Y-118202380D01*
X137630952Y-118083333D01*
X137869047Y-117964285D01*
X138226190Y-117964285D01*
X138464285Y-118083333D01*
X138583333Y-118202380D01*
X138702380Y-118440476D01*
X138702380Y-119154761D01*
X138583333Y-119392857D01*
X138464285Y-119511904D01*
X138226190Y-119630952D01*
X137869047Y-119630952D01*
X140130952Y-119630952D02*
X139892857Y-119511904D01*
X139773809Y-119273809D01*
X139773809Y-117130952D01*
X143821428Y-118321428D02*
X144178571Y-118440476D01*
X144297619Y-118559523D01*
X144416666Y-118797619D01*
X144416666Y-119154761D01*
X144297619Y-119392857D01*
X144178571Y-119511904D01*
X143940476Y-119630952D01*
X142988095Y-119630952D01*
X142988095Y-117130952D01*
X143821428Y-117130952D01*
X144059523Y-117250000D01*
X144178571Y-117369047D01*
X144297619Y-117607142D01*
X144297619Y-117845238D01*
X144178571Y-118083333D01*
X144059523Y-118202380D01*
X143821428Y-118321428D01*
X142988095Y-118321428D01*
X145845238Y-119630952D02*
X145607142Y-119511904D01*
X145488095Y-119392857D01*
X145369047Y-119154761D01*
X145369047Y-118440476D01*
X145488095Y-118202380D01*
X145607142Y-118083333D01*
X145845238Y-117964285D01*
X146202380Y-117964285D01*
X146440476Y-118083333D01*
X146559523Y-118202380D01*
X146678571Y-118440476D01*
X146678571Y-119154761D01*
X146559523Y-119392857D01*
X146440476Y-119511904D01*
X146202380Y-119630952D01*
X145845238Y-119630952D01*
X148821428Y-119630952D02*
X148821428Y-118321428D01*
X148702380Y-118083333D01*
X148464285Y-117964285D01*
X147988095Y-117964285D01*
X147750000Y-118083333D01*
X148821428Y-119511904D02*
X148583333Y-119630952D01*
X147988095Y-119630952D01*
X147750000Y-119511904D01*
X147630952Y-119273809D01*
X147630952Y-119035714D01*
X147750000Y-118797619D01*
X147988095Y-118678571D01*
X148583333Y-118678571D01*
X148821428Y-118559523D01*
X150011904Y-119630952D02*
X150011904Y-117964285D01*
X150011904Y-118440476D02*
X150130952Y-118202380D01*
X150250000Y-118083333D01*
X150488095Y-117964285D01*
X150726190Y-117964285D01*
X152630952Y-119630952D02*
X152630952Y-117130952D01*
X152630952Y-119511904D02*
X152392857Y-119630952D01*
X151916666Y-119630952D01*
X151678571Y-119511904D01*
X151559523Y-119392857D01*
X151440476Y-119154761D01*
X151440476Y-118440476D01*
X151559523Y-118202380D01*
X151678571Y-118083333D01*
X151916666Y-117964285D01*
X152392857Y-117964285D01*
X152630952Y-118083333D01*
D13*
%TO.C,R5*%
X116302380Y-56166666D02*
X115826190Y-56500000D01*
X116302380Y-56738095D02*
X115302380Y-56738095D01*
X115302380Y-56357142D01*
X115350000Y-56261904D01*
X115397619Y-56214285D01*
X115492857Y-56166666D01*
X115635714Y-56166666D01*
X115730952Y-56214285D01*
X115778571Y-56261904D01*
X115826190Y-56357142D01*
X115826190Y-56738095D01*
X115302380Y-55261904D02*
X115302380Y-55738095D01*
X115778571Y-55785714D01*
X115730952Y-55738095D01*
X115683333Y-55642857D01*
X115683333Y-55404761D01*
X115730952Y-55309523D01*
X115778571Y-55261904D01*
X115873809Y-55214285D01*
X116111904Y-55214285D01*
X116207142Y-55261904D01*
X116254761Y-55309523D01*
X116302380Y-55404761D01*
X116302380Y-55642857D01*
X116254761Y-55738095D01*
X116207142Y-55785714D01*
X117380952Y-53842380D02*
X116809523Y-53842380D01*
X117095238Y-53842380D02*
X117095238Y-52842380D01*
X117000000Y-52985238D01*
X116904761Y-53080476D01*
X116809523Y-53128095D01*
X117809523Y-53842380D02*
X117809523Y-52842380D01*
X117904761Y-53461428D02*
X118190476Y-53842380D01*
X118190476Y-53175714D02*
X117809523Y-53556666D01*
%TO.C,J10*%
X161190476Y-61782380D02*
X161190476Y-62496666D01*
X161142857Y-62639523D01*
X161047619Y-62734761D01*
X160904761Y-62782380D01*
X160809523Y-62782380D01*
X162190476Y-62782380D02*
X161619047Y-62782380D01*
X161904761Y-62782380D02*
X161904761Y-61782380D01*
X161809523Y-61925238D01*
X161714285Y-62020476D01*
X161619047Y-62068095D01*
X162809523Y-61782380D02*
X162904761Y-61782380D01*
X163000000Y-61830000D01*
X163047619Y-61877619D01*
X163095238Y-61972857D01*
X163142857Y-62163333D01*
X163142857Y-62401428D01*
X163095238Y-62591904D01*
X163047619Y-62687142D01*
X163000000Y-62734761D01*
X162904761Y-62782380D01*
X162809523Y-62782380D01*
X162714285Y-62734761D01*
X162666666Y-62687142D01*
X162619047Y-62591904D01*
X162571428Y-62401428D01*
X162571428Y-62163333D01*
X162619047Y-61972857D01*
X162666666Y-61877619D01*
X162714285Y-61830000D01*
X162809523Y-61782380D01*
X159012380Y-52772380D02*
X159012380Y-51772380D01*
X159393333Y-51772380D01*
X159488571Y-51820000D01*
X159536190Y-51867619D01*
X159583809Y-51962857D01*
X159583809Y-52105714D01*
X159536190Y-52200952D01*
X159488571Y-52248571D01*
X159393333Y-52296190D01*
X159012380Y-52296190D01*
X160155238Y-52772380D02*
X160060000Y-52724761D01*
X160012380Y-52677142D01*
X159964761Y-52581904D01*
X159964761Y-52296190D01*
X160012380Y-52200952D01*
X160060000Y-52153333D01*
X160155238Y-52105714D01*
X160298095Y-52105714D01*
X160393333Y-52153333D01*
X160440952Y-52200952D01*
X160488571Y-52296190D01*
X160488571Y-52581904D01*
X160440952Y-52677142D01*
X160393333Y-52724761D01*
X160298095Y-52772380D01*
X160155238Y-52772380D01*
X160821904Y-52105714D02*
X161012380Y-52772380D01*
X161202857Y-52296190D01*
X161393333Y-52772380D01*
X161583809Y-52105714D01*
X162345714Y-52724761D02*
X162250476Y-52772380D01*
X162060000Y-52772380D01*
X161964761Y-52724761D01*
X161917142Y-52629523D01*
X161917142Y-52248571D01*
X161964761Y-52153333D01*
X162060000Y-52105714D01*
X162250476Y-52105714D01*
X162345714Y-52153333D01*
X162393333Y-52248571D01*
X162393333Y-52343809D01*
X161917142Y-52439047D01*
X162821904Y-52772380D02*
X162821904Y-52105714D01*
X162821904Y-52296190D02*
X162869523Y-52200952D01*
X162917142Y-52153333D01*
X163012380Y-52105714D01*
X163107619Y-52105714D01*
X164202857Y-52772380D02*
X164202857Y-51772380D01*
X164679047Y-52105714D02*
X164679047Y-52772380D01*
X164679047Y-52200952D02*
X164726666Y-52153333D01*
X164821904Y-52105714D01*
X164964761Y-52105714D01*
X165060000Y-52153333D01*
X165107619Y-52248571D01*
X165107619Y-52772380D01*
%TO.C,C1*%
X174903333Y-55397142D02*
X174855714Y-55444761D01*
X174712857Y-55492380D01*
X174617619Y-55492380D01*
X174474761Y-55444761D01*
X174379523Y-55349523D01*
X174331904Y-55254285D01*
X174284285Y-55063809D01*
X174284285Y-54920952D01*
X174331904Y-54730476D01*
X174379523Y-54635238D01*
X174474761Y-54540000D01*
X174617619Y-54492380D01*
X174712857Y-54492380D01*
X174855714Y-54540000D01*
X174903333Y-54587619D01*
X175855714Y-55492380D02*
X175284285Y-55492380D01*
X175570000Y-55492380D02*
X175570000Y-54492380D01*
X175474761Y-54635238D01*
X175379523Y-54730476D01*
X175284285Y-54778095D01*
X180597142Y-54542380D02*
X180692380Y-54542380D01*
X180787619Y-54590000D01*
X180835238Y-54637619D01*
X180882857Y-54732857D01*
X180930476Y-54923333D01*
X180930476Y-55161428D01*
X180882857Y-55351904D01*
X180835238Y-55447142D01*
X180787619Y-55494761D01*
X180692380Y-55542380D01*
X180597142Y-55542380D01*
X180501904Y-55494761D01*
X180454285Y-55447142D01*
X180406666Y-55351904D01*
X180359047Y-55161428D01*
X180359047Y-54923333D01*
X180406666Y-54732857D01*
X180454285Y-54637619D01*
X180501904Y-54590000D01*
X180597142Y-54542380D01*
X181359047Y-55447142D02*
X181406666Y-55494761D01*
X181359047Y-55542380D01*
X181311428Y-55494761D01*
X181359047Y-55447142D01*
X181359047Y-55542380D01*
X182359047Y-55542380D02*
X181787619Y-55542380D01*
X182073333Y-55542380D02*
X182073333Y-54542380D01*
X181978095Y-54685238D01*
X181882857Y-54780476D01*
X181787619Y-54828095D01*
X183216190Y-54875714D02*
X183216190Y-55542380D01*
X182787619Y-54875714D02*
X182787619Y-55399523D01*
X182835238Y-55494761D01*
X182930476Y-55542380D01*
X183073333Y-55542380D01*
X183168571Y-55494761D01*
X183216190Y-55447142D01*
X184025714Y-55018571D02*
X183692380Y-55018571D01*
X183692380Y-55542380D02*
X183692380Y-54542380D01*
X184168571Y-54542380D01*
%TO.C,R11*%
X169102380Y-60642857D02*
X168626190Y-60976190D01*
X169102380Y-61214285D02*
X168102380Y-61214285D01*
X168102380Y-60833333D01*
X168150000Y-60738095D01*
X168197619Y-60690476D01*
X168292857Y-60642857D01*
X168435714Y-60642857D01*
X168530952Y-60690476D01*
X168578571Y-60738095D01*
X168626190Y-60833333D01*
X168626190Y-61214285D01*
X169102380Y-59690476D02*
X169102380Y-60261904D01*
X169102380Y-59976190D02*
X168102380Y-59976190D01*
X168245238Y-60071428D01*
X168340476Y-60166666D01*
X168388095Y-60261904D01*
X169102380Y-58738095D02*
X169102380Y-59309523D01*
X169102380Y-59023809D02*
X168102380Y-59023809D01*
X168245238Y-59119047D01*
X168340476Y-59214285D01*
X168388095Y-59309523D01*
X165802380Y-61166666D02*
X165802380Y-61738095D01*
X165802380Y-61452380D02*
X164802380Y-61452380D01*
X164945238Y-61547619D01*
X165040476Y-61642857D01*
X165088095Y-61738095D01*
X164802380Y-60547619D02*
X164802380Y-60452380D01*
X164850000Y-60357142D01*
X164897619Y-60309523D01*
X164992857Y-60261904D01*
X165183333Y-60214285D01*
X165421428Y-60214285D01*
X165611904Y-60261904D01*
X165707142Y-60309523D01*
X165754761Y-60357142D01*
X165802380Y-60452380D01*
X165802380Y-60547619D01*
X165754761Y-60642857D01*
X165707142Y-60690476D01*
X165611904Y-60738095D01*
X165421428Y-60785714D01*
X165183333Y-60785714D01*
X164992857Y-60738095D01*
X164897619Y-60690476D01*
X164850000Y-60642857D01*
X164802380Y-60547619D01*
X164802380Y-59595238D02*
X164802380Y-59500000D01*
X164850000Y-59404761D01*
X164897619Y-59357142D01*
X164992857Y-59309523D01*
X165183333Y-59261904D01*
X165421428Y-59261904D01*
X165611904Y-59309523D01*
X165707142Y-59357142D01*
X165754761Y-59404761D01*
X165802380Y-59500000D01*
X165802380Y-59595238D01*
X165754761Y-59690476D01*
X165707142Y-59738095D01*
X165611904Y-59785714D01*
X165421428Y-59833333D01*
X165183333Y-59833333D01*
X164992857Y-59785714D01*
X164897619Y-59738095D01*
X164850000Y-59690476D01*
X164802380Y-59595238D01*
X165802380Y-58261904D02*
X165326190Y-58595238D01*
X165802380Y-58833333D02*
X164802380Y-58833333D01*
X164802380Y-58452380D01*
X164850000Y-58357142D01*
X164897619Y-58309523D01*
X164992857Y-58261904D01*
X165135714Y-58261904D01*
X165230952Y-58309523D01*
X165278571Y-58357142D01*
X165326190Y-58452380D01*
X165326190Y-58833333D01*
%TO.C,R2*%
X104802380Y-70666666D02*
X104326190Y-71000000D01*
X104802380Y-71238095D02*
X103802380Y-71238095D01*
X103802380Y-70857142D01*
X103850000Y-70761904D01*
X103897619Y-70714285D01*
X103992857Y-70666666D01*
X104135714Y-70666666D01*
X104230952Y-70714285D01*
X104278571Y-70761904D01*
X104326190Y-70857142D01*
X104326190Y-71238095D01*
X103897619Y-70285714D02*
X103850000Y-70238095D01*
X103802380Y-70142857D01*
X103802380Y-69904761D01*
X103850000Y-69809523D01*
X103897619Y-69761904D01*
X103992857Y-69714285D01*
X104088095Y-69714285D01*
X104230952Y-69761904D01*
X104802380Y-70333333D01*
X104802380Y-69714285D01*
X108102380Y-71095238D02*
X108102380Y-71666666D01*
X108102380Y-71380952D02*
X107102380Y-71380952D01*
X107245238Y-71476190D01*
X107340476Y-71571428D01*
X107388095Y-71666666D01*
X107102380Y-70476190D02*
X107102380Y-70380952D01*
X107150000Y-70285714D01*
X107197619Y-70238095D01*
X107292857Y-70190476D01*
X107483333Y-70142857D01*
X107721428Y-70142857D01*
X107911904Y-70190476D01*
X108007142Y-70238095D01*
X108054761Y-70285714D01*
X108102380Y-70380952D01*
X108102380Y-70476190D01*
X108054761Y-70571428D01*
X108007142Y-70619047D01*
X107911904Y-70666666D01*
X107721428Y-70714285D01*
X107483333Y-70714285D01*
X107292857Y-70666666D01*
X107197619Y-70619047D01*
X107150000Y-70571428D01*
X107102380Y-70476190D01*
X108102380Y-69714285D02*
X107102380Y-69714285D01*
X107721428Y-69619047D02*
X108102380Y-69333333D01*
X107435714Y-69333333D02*
X107816666Y-69714285D01*
%TO.C,J2*%
X102122380Y-126063333D02*
X102836666Y-126063333D01*
X102979523Y-126110952D01*
X103074761Y-126206190D01*
X103122380Y-126349047D01*
X103122380Y-126444285D01*
X102217619Y-125634761D02*
X102170000Y-125587142D01*
X102122380Y-125491904D01*
X102122380Y-125253809D01*
X102170000Y-125158571D01*
X102217619Y-125110952D01*
X102312857Y-125063333D01*
X102408095Y-125063333D01*
X102550952Y-125110952D01*
X103122380Y-125682380D01*
X103122380Y-125063333D01*
X156042380Y-128944285D02*
X155566190Y-129277619D01*
X156042380Y-129515714D02*
X155042380Y-129515714D01*
X155042380Y-129134761D01*
X155090000Y-129039523D01*
X155137619Y-128991904D01*
X155232857Y-128944285D01*
X155375714Y-128944285D01*
X155470952Y-128991904D01*
X155518571Y-129039523D01*
X155566190Y-129134761D01*
X155566190Y-129515714D01*
X156042380Y-128515714D02*
X155042380Y-128515714D01*
X155042380Y-128134761D01*
X155090000Y-128039523D01*
X155137619Y-127991904D01*
X155232857Y-127944285D01*
X155375714Y-127944285D01*
X155470952Y-127991904D01*
X155518571Y-128039523D01*
X155566190Y-128134761D01*
X155566190Y-128515714D01*
X156042380Y-127515714D02*
X155375714Y-127515714D01*
X155042380Y-127515714D02*
X155090000Y-127563333D01*
X155137619Y-127515714D01*
X155090000Y-127468095D01*
X155042380Y-127515714D01*
X155137619Y-127515714D01*
X156137619Y-127277619D02*
X156137619Y-126515714D01*
X155947142Y-125706190D02*
X155994761Y-125753809D01*
X156042380Y-125896666D01*
X156042380Y-125991904D01*
X155994761Y-126134761D01*
X155899523Y-126230000D01*
X155804285Y-126277619D01*
X155613809Y-126325238D01*
X155470952Y-126325238D01*
X155280476Y-126277619D01*
X155185238Y-126230000D01*
X155090000Y-126134761D01*
X155042380Y-125991904D01*
X155042380Y-125896666D01*
X155090000Y-125753809D01*
X155137619Y-125706190D01*
X155994761Y-124896666D02*
X156042380Y-124991904D01*
X156042380Y-125182380D01*
X155994761Y-125277619D01*
X155899523Y-125325238D01*
X155518571Y-125325238D01*
X155423333Y-125277619D01*
X155375714Y-125182380D01*
X155375714Y-124991904D01*
X155423333Y-124896666D01*
X155518571Y-124849047D01*
X155613809Y-124849047D01*
X155709047Y-125325238D01*
X155375714Y-124420476D02*
X156042380Y-124420476D01*
X155470952Y-124420476D02*
X155423333Y-124372857D01*
X155375714Y-124277619D01*
X155375714Y-124134761D01*
X155423333Y-124039523D01*
X155518571Y-123991904D01*
X156042380Y-123991904D01*
X155375714Y-123658571D02*
X155375714Y-123277619D01*
X155042380Y-123515714D02*
X155899523Y-123515714D01*
X155994761Y-123468095D01*
X156042380Y-123372857D01*
X156042380Y-123277619D01*
X155994761Y-122563333D02*
X156042380Y-122658571D01*
X156042380Y-122849047D01*
X155994761Y-122944285D01*
X155899523Y-122991904D01*
X155518571Y-122991904D01*
X155423333Y-122944285D01*
X155375714Y-122849047D01*
X155375714Y-122658571D01*
X155423333Y-122563333D01*
X155518571Y-122515714D01*
X155613809Y-122515714D01*
X155709047Y-122991904D01*
X156042380Y-122087142D02*
X155375714Y-122087142D01*
X155566190Y-122087142D02*
X155470952Y-122039523D01*
X155423333Y-121991904D01*
X155375714Y-121896666D01*
X155375714Y-121801428D01*
%TO.C,C6*%
X181723333Y-80187142D02*
X181675714Y-80234761D01*
X181532857Y-80282380D01*
X181437619Y-80282380D01*
X181294761Y-80234761D01*
X181199523Y-80139523D01*
X181151904Y-80044285D01*
X181104285Y-79853809D01*
X181104285Y-79710952D01*
X181151904Y-79520476D01*
X181199523Y-79425238D01*
X181294761Y-79330000D01*
X181437619Y-79282380D01*
X181532857Y-79282380D01*
X181675714Y-79330000D01*
X181723333Y-79377619D01*
X182580476Y-79282380D02*
X182390000Y-79282380D01*
X182294761Y-79330000D01*
X182247142Y-79377619D01*
X182151904Y-79520476D01*
X182104285Y-79710952D01*
X182104285Y-80091904D01*
X182151904Y-80187142D01*
X182199523Y-80234761D01*
X182294761Y-80282380D01*
X182485238Y-80282380D01*
X182580476Y-80234761D01*
X182628095Y-80187142D01*
X182675714Y-80091904D01*
X182675714Y-79853809D01*
X182628095Y-79758571D01*
X182580476Y-79710952D01*
X182485238Y-79663333D01*
X182294761Y-79663333D01*
X182199523Y-79710952D01*
X182151904Y-79758571D01*
X182104285Y-79853809D01*
X179677142Y-77762380D02*
X179772380Y-77762380D01*
X179867619Y-77810000D01*
X179915238Y-77857619D01*
X179962857Y-77952857D01*
X180010476Y-78143333D01*
X180010476Y-78381428D01*
X179962857Y-78571904D01*
X179915238Y-78667142D01*
X179867619Y-78714761D01*
X179772380Y-78762380D01*
X179677142Y-78762380D01*
X179581904Y-78714761D01*
X179534285Y-78667142D01*
X179486666Y-78571904D01*
X179439047Y-78381428D01*
X179439047Y-78143333D01*
X179486666Y-77952857D01*
X179534285Y-77857619D01*
X179581904Y-77810000D01*
X179677142Y-77762380D01*
X180439047Y-78667142D02*
X180486666Y-78714761D01*
X180439047Y-78762380D01*
X180391428Y-78714761D01*
X180439047Y-78667142D01*
X180439047Y-78762380D01*
X181439047Y-78762380D02*
X180867619Y-78762380D01*
X181153333Y-78762380D02*
X181153333Y-77762380D01*
X181058095Y-77905238D01*
X180962857Y-78000476D01*
X180867619Y-78048095D01*
X182296190Y-78095714D02*
X182296190Y-78762380D01*
X181867619Y-78095714D02*
X181867619Y-78619523D01*
X181915238Y-78714761D01*
X182010476Y-78762380D01*
X182153333Y-78762380D01*
X182248571Y-78714761D01*
X182296190Y-78667142D01*
X183105714Y-78238571D02*
X182772380Y-78238571D01*
X182772380Y-78762380D02*
X182772380Y-77762380D01*
X183248571Y-77762380D01*
%TO.C,J8*%
X135666666Y-52042380D02*
X135666666Y-52756666D01*
X135619047Y-52899523D01*
X135523809Y-52994761D01*
X135380952Y-53042380D01*
X135285714Y-53042380D01*
X136285714Y-52470952D02*
X136190476Y-52423333D01*
X136142857Y-52375714D01*
X136095238Y-52280476D01*
X136095238Y-52232857D01*
X136142857Y-52137619D01*
X136190476Y-52090000D01*
X136285714Y-52042380D01*
X136476190Y-52042380D01*
X136571428Y-52090000D01*
X136619047Y-52137619D01*
X136666666Y-52232857D01*
X136666666Y-52280476D01*
X136619047Y-52375714D01*
X136571428Y-52423333D01*
X136476190Y-52470952D01*
X136285714Y-52470952D01*
X136190476Y-52518571D01*
X136142857Y-52566190D01*
X136095238Y-52661428D01*
X136095238Y-52851904D01*
X136142857Y-52947142D01*
X136190476Y-52994761D01*
X136285714Y-53042380D01*
X136476190Y-53042380D01*
X136571428Y-52994761D01*
X136619047Y-52947142D01*
X136666666Y-52851904D01*
X136666666Y-52661428D01*
X136619047Y-52566190D01*
X136571428Y-52518571D01*
X136476190Y-52470952D01*
X132642857Y-60194761D02*
X132785714Y-60242380D01*
X133023809Y-60242380D01*
X133119047Y-60194761D01*
X133166666Y-60147142D01*
X133214285Y-60051904D01*
X133214285Y-59956666D01*
X133166666Y-59861428D01*
X133119047Y-59813809D01*
X133023809Y-59766190D01*
X132833333Y-59718571D01*
X132738095Y-59670952D01*
X132690476Y-59623333D01*
X132642857Y-59528095D01*
X132642857Y-59432857D01*
X132690476Y-59337619D01*
X132738095Y-59290000D01*
X132833333Y-59242380D01*
X133071428Y-59242380D01*
X133214285Y-59290000D01*
X133642857Y-60242380D02*
X133642857Y-59242380D01*
X134071428Y-60242380D02*
X134071428Y-59718571D01*
X134023809Y-59623333D01*
X133928571Y-59575714D01*
X133785714Y-59575714D01*
X133690476Y-59623333D01*
X133642857Y-59670952D01*
X134976190Y-59575714D02*
X134976190Y-60242380D01*
X134547619Y-59575714D02*
X134547619Y-60099523D01*
X134595238Y-60194761D01*
X134690476Y-60242380D01*
X134833333Y-60242380D01*
X134928571Y-60194761D01*
X134976190Y-60147142D01*
X135309523Y-59575714D02*
X135690476Y-59575714D01*
X135452380Y-59242380D02*
X135452380Y-60099523D01*
X135500000Y-60194761D01*
X135595238Y-60242380D01*
X135690476Y-60242380D01*
X136452380Y-60242380D02*
X136452380Y-59242380D01*
X136452380Y-60194761D02*
X136357142Y-60242380D01*
X136166666Y-60242380D01*
X136071428Y-60194761D01*
X136023809Y-60147142D01*
X135976190Y-60051904D01*
X135976190Y-59766190D01*
X136023809Y-59670952D01*
X136071428Y-59623333D01*
X136166666Y-59575714D01*
X136357142Y-59575714D01*
X136452380Y-59623333D01*
X137071428Y-60242380D02*
X136976190Y-60194761D01*
X136928571Y-60147142D01*
X136880952Y-60051904D01*
X136880952Y-59766190D01*
X136928571Y-59670952D01*
X136976190Y-59623333D01*
X137071428Y-59575714D01*
X137214285Y-59575714D01*
X137309523Y-59623333D01*
X137357142Y-59670952D01*
X137404761Y-59766190D01*
X137404761Y-60051904D01*
X137357142Y-60147142D01*
X137309523Y-60194761D01*
X137214285Y-60242380D01*
X137071428Y-60242380D01*
X137738095Y-59575714D02*
X137928571Y-60242380D01*
X138119047Y-59766190D01*
X138309523Y-60242380D01*
X138500000Y-59575714D01*
X138880952Y-59575714D02*
X138880952Y-60242380D01*
X138880952Y-59670952D02*
X138928571Y-59623333D01*
X139023809Y-59575714D01*
X139166666Y-59575714D01*
X139261904Y-59623333D01*
X139309523Y-59718571D01*
X139309523Y-60242380D01*
%TO.C,R3*%
X108802380Y-56166666D02*
X108326190Y-56500000D01*
X108802380Y-56738095D02*
X107802380Y-56738095D01*
X107802380Y-56357142D01*
X107850000Y-56261904D01*
X107897619Y-56214285D01*
X107992857Y-56166666D01*
X108135714Y-56166666D01*
X108230952Y-56214285D01*
X108278571Y-56261904D01*
X108326190Y-56357142D01*
X108326190Y-56738095D01*
X107802380Y-55833333D02*
X107802380Y-55214285D01*
X108183333Y-55547619D01*
X108183333Y-55404761D01*
X108230952Y-55309523D01*
X108278571Y-55261904D01*
X108373809Y-55214285D01*
X108611904Y-55214285D01*
X108707142Y-55261904D01*
X108754761Y-55309523D01*
X108802380Y-55404761D01*
X108802380Y-55690476D01*
X108754761Y-55785714D01*
X108707142Y-55833333D01*
X109910952Y-53842380D02*
X109339523Y-53842380D01*
X109625238Y-53842380D02*
X109625238Y-52842380D01*
X109530000Y-52985238D01*
X109434761Y-53080476D01*
X109339523Y-53128095D01*
X110339523Y-53842380D02*
X110339523Y-52842380D01*
X110434761Y-53461428D02*
X110720476Y-53842380D01*
X110720476Y-53175714D02*
X110339523Y-53556666D01*
%TO.C,R6*%
X123302380Y-70666666D02*
X122826190Y-71000000D01*
X123302380Y-71238095D02*
X122302380Y-71238095D01*
X122302380Y-70857142D01*
X122350000Y-70761904D01*
X122397619Y-70714285D01*
X122492857Y-70666666D01*
X122635714Y-70666666D01*
X122730952Y-70714285D01*
X122778571Y-70761904D01*
X122826190Y-70857142D01*
X122826190Y-71238095D01*
X122302380Y-69809523D02*
X122302380Y-70000000D01*
X122350000Y-70095238D01*
X122397619Y-70142857D01*
X122540476Y-70238095D01*
X122730952Y-70285714D01*
X123111904Y-70285714D01*
X123207142Y-70238095D01*
X123254761Y-70190476D01*
X123302380Y-70095238D01*
X123302380Y-69904761D01*
X123254761Y-69809523D01*
X123207142Y-69761904D01*
X123111904Y-69714285D01*
X122873809Y-69714285D01*
X122778571Y-69761904D01*
X122730952Y-69809523D01*
X122683333Y-69904761D01*
X122683333Y-70095238D01*
X122730952Y-70190476D01*
X122778571Y-70238095D01*
X122873809Y-70285714D01*
X126602380Y-71095238D02*
X126602380Y-71666666D01*
X126602380Y-71380952D02*
X125602380Y-71380952D01*
X125745238Y-71476190D01*
X125840476Y-71571428D01*
X125888095Y-71666666D01*
X125602380Y-70476190D02*
X125602380Y-70380952D01*
X125650000Y-70285714D01*
X125697619Y-70238095D01*
X125792857Y-70190476D01*
X125983333Y-70142857D01*
X126221428Y-70142857D01*
X126411904Y-70190476D01*
X126507142Y-70238095D01*
X126554761Y-70285714D01*
X126602380Y-70380952D01*
X126602380Y-70476190D01*
X126554761Y-70571428D01*
X126507142Y-70619047D01*
X126411904Y-70666666D01*
X126221428Y-70714285D01*
X125983333Y-70714285D01*
X125792857Y-70666666D01*
X125697619Y-70619047D01*
X125650000Y-70571428D01*
X125602380Y-70476190D01*
X126602380Y-69714285D02*
X125602380Y-69714285D01*
X126221428Y-69619047D02*
X126602380Y-69333333D01*
X125935714Y-69333333D02*
X126316666Y-69714285D01*
%TO.C,C5*%
X174295833Y-82857142D02*
X174248214Y-82904761D01*
X174105357Y-82952380D01*
X174010119Y-82952380D01*
X173867261Y-82904761D01*
X173772023Y-82809523D01*
X173724404Y-82714285D01*
X173676785Y-82523809D01*
X173676785Y-82380952D01*
X173724404Y-82190476D01*
X173772023Y-82095238D01*
X173867261Y-82000000D01*
X174010119Y-81952380D01*
X174105357Y-81952380D01*
X174248214Y-82000000D01*
X174295833Y-82047619D01*
X175200595Y-81952380D02*
X174724404Y-81952380D01*
X174676785Y-82428571D01*
X174724404Y-82380952D01*
X174819642Y-82333333D01*
X175057738Y-82333333D01*
X175152976Y-82380952D01*
X175200595Y-82428571D01*
X175248214Y-82523809D01*
X175248214Y-82761904D01*
X175200595Y-82857142D01*
X175152976Y-82904761D01*
X175057738Y-82952380D01*
X174819642Y-82952380D01*
X174724404Y-82904761D01*
X174676785Y-82857142D01*
X173650952Y-80502380D02*
X173746190Y-80502380D01*
X173841428Y-80550000D01*
X173889047Y-80597619D01*
X173936666Y-80692857D01*
X173984285Y-80883333D01*
X173984285Y-81121428D01*
X173936666Y-81311904D01*
X173889047Y-81407142D01*
X173841428Y-81454761D01*
X173746190Y-81502380D01*
X173650952Y-81502380D01*
X173555714Y-81454761D01*
X173508095Y-81407142D01*
X173460476Y-81311904D01*
X173412857Y-81121428D01*
X173412857Y-80883333D01*
X173460476Y-80692857D01*
X173508095Y-80597619D01*
X173555714Y-80550000D01*
X173650952Y-80502380D01*
X174412857Y-81407142D02*
X174460476Y-81454761D01*
X174412857Y-81502380D01*
X174365238Y-81454761D01*
X174412857Y-81407142D01*
X174412857Y-81502380D01*
X174793809Y-80502380D02*
X175412857Y-80502380D01*
X175079523Y-80883333D01*
X175222380Y-80883333D01*
X175317619Y-80930952D01*
X175365238Y-80978571D01*
X175412857Y-81073809D01*
X175412857Y-81311904D01*
X175365238Y-81407142D01*
X175317619Y-81454761D01*
X175222380Y-81502380D01*
X174936666Y-81502380D01*
X174841428Y-81454761D01*
X174793809Y-81407142D01*
X175746190Y-80502380D02*
X176365238Y-80502380D01*
X176031904Y-80883333D01*
X176174761Y-80883333D01*
X176270000Y-80930952D01*
X176317619Y-80978571D01*
X176365238Y-81073809D01*
X176365238Y-81311904D01*
X176317619Y-81407142D01*
X176270000Y-81454761D01*
X176174761Y-81502380D01*
X175889047Y-81502380D01*
X175793809Y-81454761D01*
X175746190Y-81407142D01*
X177222380Y-80835714D02*
X177222380Y-81502380D01*
X176793809Y-80835714D02*
X176793809Y-81359523D01*
X176841428Y-81454761D01*
X176936666Y-81502380D01*
X177079523Y-81502380D01*
X177174761Y-81454761D01*
X177222380Y-81407142D01*
X178031904Y-80978571D02*
X177698571Y-80978571D01*
X177698571Y-81502380D02*
X177698571Y-80502380D01*
X178174761Y-80502380D01*
%TO.C,R9*%
X144333333Y-102802380D02*
X144000000Y-102326190D01*
X143761904Y-102802380D02*
X143761904Y-101802380D01*
X144142857Y-101802380D01*
X144238095Y-101850000D01*
X144285714Y-101897619D01*
X144333333Y-101992857D01*
X144333333Y-102135714D01*
X144285714Y-102230952D01*
X144238095Y-102278571D01*
X144142857Y-102326190D01*
X143761904Y-102326190D01*
X144809523Y-102802380D02*
X145000000Y-102802380D01*
X145095238Y-102754761D01*
X145142857Y-102707142D01*
X145238095Y-102564285D01*
X145285714Y-102373809D01*
X145285714Y-101992857D01*
X145238095Y-101897619D01*
X145190476Y-101850000D01*
X145095238Y-101802380D01*
X144904761Y-101802380D01*
X144809523Y-101850000D01*
X144761904Y-101897619D01*
X144714285Y-101992857D01*
X144714285Y-102230952D01*
X144761904Y-102326190D01*
X144809523Y-102373809D01*
X144904761Y-102421428D01*
X145095238Y-102421428D01*
X145190476Y-102373809D01*
X145238095Y-102326190D01*
X145285714Y-102230952D01*
X143904761Y-106102380D02*
X143333333Y-106102380D01*
X143619047Y-106102380D02*
X143619047Y-105102380D01*
X143523809Y-105245238D01*
X143428571Y-105340476D01*
X143333333Y-105388095D01*
X144523809Y-105102380D02*
X144619047Y-105102380D01*
X144714285Y-105150000D01*
X144761904Y-105197619D01*
X144809523Y-105292857D01*
X144857142Y-105483333D01*
X144857142Y-105721428D01*
X144809523Y-105911904D01*
X144761904Y-106007142D01*
X144714285Y-106054761D01*
X144619047Y-106102380D01*
X144523809Y-106102380D01*
X144428571Y-106054761D01*
X144380952Y-106007142D01*
X144333333Y-105911904D01*
X144285714Y-105721428D01*
X144285714Y-105483333D01*
X144333333Y-105292857D01*
X144380952Y-105197619D01*
X144428571Y-105150000D01*
X144523809Y-105102380D01*
X145285714Y-106102380D02*
X145285714Y-105102380D01*
X145380952Y-105721428D02*
X145666666Y-106102380D01*
X145666666Y-105435714D02*
X145285714Y-105816666D01*
%TO.C,J3*%
X102122380Y-111063333D02*
X102836666Y-111063333D01*
X102979523Y-111110952D01*
X103074761Y-111206190D01*
X103122380Y-111349047D01*
X103122380Y-111444285D01*
X102122380Y-110682380D02*
X102122380Y-110063333D01*
X102503333Y-110396666D01*
X102503333Y-110253809D01*
X102550952Y-110158571D01*
X102598571Y-110110952D01*
X102693809Y-110063333D01*
X102931904Y-110063333D01*
X103027142Y-110110952D01*
X103074761Y-110158571D01*
X103122380Y-110253809D01*
X103122380Y-110539523D01*
X103074761Y-110634761D01*
X103027142Y-110682380D01*
X156042380Y-113468095D02*
X155566190Y-113801428D01*
X156042380Y-114039523D02*
X155042380Y-114039523D01*
X155042380Y-113658571D01*
X155090000Y-113563333D01*
X155137619Y-113515714D01*
X155232857Y-113468095D01*
X155375714Y-113468095D01*
X155470952Y-113515714D01*
X155518571Y-113563333D01*
X155566190Y-113658571D01*
X155566190Y-114039523D01*
X156042380Y-113039523D02*
X155042380Y-113039523D01*
X155042380Y-112658571D01*
X155090000Y-112563333D01*
X155137619Y-112515714D01*
X155232857Y-112468095D01*
X155375714Y-112468095D01*
X155470952Y-112515714D01*
X155518571Y-112563333D01*
X155566190Y-112658571D01*
X155566190Y-113039523D01*
X156042380Y-112039523D02*
X155375714Y-112039523D01*
X155042380Y-112039523D02*
X155090000Y-112087142D01*
X155137619Y-112039523D01*
X155090000Y-111991904D01*
X155042380Y-112039523D01*
X155137619Y-112039523D01*
X156137619Y-111801428D02*
X156137619Y-111039523D01*
X156042380Y-110230000D02*
X155566190Y-110563333D01*
X156042380Y-110801428D02*
X155042380Y-110801428D01*
X155042380Y-110420476D01*
X155090000Y-110325238D01*
X155137619Y-110277619D01*
X155232857Y-110230000D01*
X155375714Y-110230000D01*
X155470952Y-110277619D01*
X155518571Y-110325238D01*
X155566190Y-110420476D01*
X155566190Y-110801428D01*
X156042380Y-109801428D02*
X155375714Y-109801428D01*
X155042380Y-109801428D02*
X155090000Y-109849047D01*
X155137619Y-109801428D01*
X155090000Y-109753809D01*
X155042380Y-109801428D01*
X155137619Y-109801428D01*
X155375714Y-108896666D02*
X156185238Y-108896666D01*
X156280476Y-108944285D01*
X156328095Y-108991904D01*
X156375714Y-109087142D01*
X156375714Y-109230000D01*
X156328095Y-109325238D01*
X155994761Y-108896666D02*
X156042380Y-108991904D01*
X156042380Y-109182380D01*
X155994761Y-109277619D01*
X155947142Y-109325238D01*
X155851904Y-109372857D01*
X155566190Y-109372857D01*
X155470952Y-109325238D01*
X155423333Y-109277619D01*
X155375714Y-109182380D01*
X155375714Y-108991904D01*
X155423333Y-108896666D01*
X156042380Y-108420476D02*
X155042380Y-108420476D01*
X156042380Y-107991904D02*
X155518571Y-107991904D01*
X155423333Y-108039523D01*
X155375714Y-108134761D01*
X155375714Y-108277619D01*
X155423333Y-108372857D01*
X155470952Y-108420476D01*
X155375714Y-107658571D02*
X155375714Y-107277619D01*
X155042380Y-107515714D02*
X155899523Y-107515714D01*
X155994761Y-107468095D01*
X156042380Y-107372857D01*
X156042380Y-107277619D01*
%TO.C,U2*%
X182238095Y-83052380D02*
X182238095Y-83861904D01*
X182285714Y-83957142D01*
X182333333Y-84004761D01*
X182428571Y-84052380D01*
X182619047Y-84052380D01*
X182714285Y-84004761D01*
X182761904Y-83957142D01*
X182809523Y-83861904D01*
X182809523Y-83052380D01*
X183238095Y-83147619D02*
X183285714Y-83100000D01*
X183380952Y-83052380D01*
X183619047Y-83052380D01*
X183714285Y-83100000D01*
X183761904Y-83147619D01*
X183809523Y-83242857D01*
X183809523Y-83338095D01*
X183761904Y-83480952D01*
X183190476Y-84052380D01*
X183809523Y-84052380D01*
X179847142Y-92792380D02*
X179847142Y-91792380D01*
X180180476Y-92506666D01*
X180513809Y-91792380D01*
X180513809Y-92792380D01*
X180942380Y-92506666D02*
X181418571Y-92506666D01*
X180847142Y-92792380D02*
X181180476Y-91792380D01*
X181513809Y-92792380D01*
X181751904Y-91792380D02*
X182418571Y-92792380D01*
X182418571Y-91792380D02*
X181751904Y-92792380D01*
X182704285Y-91792380D02*
X183323333Y-91792380D01*
X182990000Y-92173333D01*
X183132857Y-92173333D01*
X183228095Y-92220952D01*
X183275714Y-92268571D01*
X183323333Y-92363809D01*
X183323333Y-92601904D01*
X183275714Y-92697142D01*
X183228095Y-92744761D01*
X183132857Y-92792380D01*
X182847142Y-92792380D01*
X182751904Y-92744761D01*
X182704285Y-92697142D01*
X183704285Y-91887619D02*
X183751904Y-91840000D01*
X183847142Y-91792380D01*
X184085238Y-91792380D01*
X184180476Y-91840000D01*
X184228095Y-91887619D01*
X184275714Y-91982857D01*
X184275714Y-92078095D01*
X184228095Y-92220952D01*
X183656666Y-92792380D01*
X184275714Y-92792380D01*
X184656666Y-91887619D02*
X184704285Y-91840000D01*
X184799523Y-91792380D01*
X185037619Y-91792380D01*
X185132857Y-91840000D01*
X185180476Y-91887619D01*
X185228095Y-91982857D01*
X185228095Y-92078095D01*
X185180476Y-92220952D01*
X184609047Y-92792380D01*
X185228095Y-92792380D01*
X185609047Y-91887619D02*
X185656666Y-91840000D01*
X185751904Y-91792380D01*
X185990000Y-91792380D01*
X186085238Y-91840000D01*
X186132857Y-91887619D01*
X186180476Y-91982857D01*
X186180476Y-92078095D01*
X186132857Y-92220952D01*
X185561428Y-92792380D01*
X186180476Y-92792380D01*
%TO.C,R12*%
X191857142Y-81962380D02*
X191523809Y-81486190D01*
X191285714Y-81962380D02*
X191285714Y-80962380D01*
X191666666Y-80962380D01*
X191761904Y-81010000D01*
X191809523Y-81057619D01*
X191857142Y-81152857D01*
X191857142Y-81295714D01*
X191809523Y-81390952D01*
X191761904Y-81438571D01*
X191666666Y-81486190D01*
X191285714Y-81486190D01*
X192809523Y-81962380D02*
X192238095Y-81962380D01*
X192523809Y-81962380D02*
X192523809Y-80962380D01*
X192428571Y-81105238D01*
X192333333Y-81200476D01*
X192238095Y-81248095D01*
X193190476Y-81057619D02*
X193238095Y-81010000D01*
X193333333Y-80962380D01*
X193571428Y-80962380D01*
X193666666Y-81010000D01*
X193714285Y-81057619D01*
X193761904Y-81152857D01*
X193761904Y-81248095D01*
X193714285Y-81390952D01*
X193142857Y-81962380D01*
X193761904Y-81962380D01*
X191403333Y-79457619D02*
X191450952Y-79410000D01*
X191546190Y-79362380D01*
X191784285Y-79362380D01*
X191879523Y-79410000D01*
X191927142Y-79457619D01*
X191974761Y-79552857D01*
X191974761Y-79648095D01*
X191927142Y-79790952D01*
X191355714Y-80362380D01*
X191974761Y-80362380D01*
X192355714Y-79457619D02*
X192403333Y-79410000D01*
X192498571Y-79362380D01*
X192736666Y-79362380D01*
X192831904Y-79410000D01*
X192879523Y-79457619D01*
X192927142Y-79552857D01*
X192927142Y-79648095D01*
X192879523Y-79790952D01*
X192308095Y-80362380D01*
X192927142Y-80362380D01*
X193355714Y-80362380D02*
X193355714Y-79362380D01*
X193450952Y-79981428D02*
X193736666Y-80362380D01*
X193736666Y-79695714D02*
X193355714Y-80076666D01*
%TO.C,R4*%
X114302380Y-70666666D02*
X113826190Y-71000000D01*
X114302380Y-71238095D02*
X113302380Y-71238095D01*
X113302380Y-70857142D01*
X113350000Y-70761904D01*
X113397619Y-70714285D01*
X113492857Y-70666666D01*
X113635714Y-70666666D01*
X113730952Y-70714285D01*
X113778571Y-70761904D01*
X113826190Y-70857142D01*
X113826190Y-71238095D01*
X113635714Y-69809523D02*
X114302380Y-69809523D01*
X113254761Y-70047619D02*
X113969047Y-70285714D01*
X113969047Y-69666666D01*
X117602380Y-71095238D02*
X117602380Y-71666666D01*
X117602380Y-71380952D02*
X116602380Y-71380952D01*
X116745238Y-71476190D01*
X116840476Y-71571428D01*
X116888095Y-71666666D01*
X116602380Y-70476190D02*
X116602380Y-70380952D01*
X116650000Y-70285714D01*
X116697619Y-70238095D01*
X116792857Y-70190476D01*
X116983333Y-70142857D01*
X117221428Y-70142857D01*
X117411904Y-70190476D01*
X117507142Y-70238095D01*
X117554761Y-70285714D01*
X117602380Y-70380952D01*
X117602380Y-70476190D01*
X117554761Y-70571428D01*
X117507142Y-70619047D01*
X117411904Y-70666666D01*
X117221428Y-70714285D01*
X116983333Y-70714285D01*
X116792857Y-70666666D01*
X116697619Y-70619047D01*
X116650000Y-70571428D01*
X116602380Y-70476190D01*
X117602380Y-69714285D02*
X116602380Y-69714285D01*
X117221428Y-69619047D02*
X117602380Y-69333333D01*
X116935714Y-69333333D02*
X117316666Y-69714285D01*
%TO.C,J5*%
X150666666Y-52042380D02*
X150666666Y-52756666D01*
X150619047Y-52899523D01*
X150523809Y-52994761D01*
X150380952Y-53042380D01*
X150285714Y-53042380D01*
X151619047Y-52042380D02*
X151142857Y-52042380D01*
X151095238Y-52518571D01*
X151142857Y-52470952D01*
X151238095Y-52423333D01*
X151476190Y-52423333D01*
X151571428Y-52470952D01*
X151619047Y-52518571D01*
X151666666Y-52613809D01*
X151666666Y-52851904D01*
X151619047Y-52947142D01*
X151571428Y-52994761D01*
X151476190Y-53042380D01*
X151238095Y-53042380D01*
X151142857Y-52994761D01*
X151095238Y-52947142D01*
X146571428Y-60194761D02*
X146714285Y-60242380D01*
X146952380Y-60242380D01*
X147047619Y-60194761D01*
X147095238Y-60147142D01*
X147142857Y-60051904D01*
X147142857Y-59956666D01*
X147095238Y-59861428D01*
X147047619Y-59813809D01*
X146952380Y-59766190D01*
X146761904Y-59718571D01*
X146666666Y-59670952D01*
X146619047Y-59623333D01*
X146571428Y-59528095D01*
X146571428Y-59432857D01*
X146619047Y-59337619D01*
X146666666Y-59290000D01*
X146761904Y-59242380D01*
X147000000Y-59242380D01*
X147142857Y-59290000D01*
X147428571Y-59575714D02*
X147809523Y-59575714D01*
X147571428Y-59242380D02*
X147571428Y-60099523D01*
X147619047Y-60194761D01*
X147714285Y-60242380D01*
X147809523Y-60242380D01*
X148571428Y-60242380D02*
X148571428Y-59718571D01*
X148523809Y-59623333D01*
X148428571Y-59575714D01*
X148238095Y-59575714D01*
X148142857Y-59623333D01*
X148571428Y-60194761D02*
X148476190Y-60242380D01*
X148238095Y-60242380D01*
X148142857Y-60194761D01*
X148095238Y-60099523D01*
X148095238Y-60004285D01*
X148142857Y-59909047D01*
X148238095Y-59861428D01*
X148476190Y-59861428D01*
X148571428Y-59813809D01*
X149047619Y-60242380D02*
X149047619Y-59575714D01*
X149047619Y-59766190D02*
X149095238Y-59670952D01*
X149142857Y-59623333D01*
X149238095Y-59575714D01*
X149333333Y-59575714D01*
X149523809Y-59575714D02*
X149904761Y-59575714D01*
X149666666Y-59242380D02*
X149666666Y-60099523D01*
X149714285Y-60194761D01*
X149809523Y-60242380D01*
X149904761Y-60242380D01*
X151333333Y-59718571D02*
X151476190Y-59766190D01*
X151523809Y-59813809D01*
X151571428Y-59909047D01*
X151571428Y-60051904D01*
X151523809Y-60147142D01*
X151476190Y-60194761D01*
X151380952Y-60242380D01*
X151000000Y-60242380D01*
X151000000Y-59242380D01*
X151333333Y-59242380D01*
X151428571Y-59290000D01*
X151476190Y-59337619D01*
X151523809Y-59432857D01*
X151523809Y-59528095D01*
X151476190Y-59623333D01*
X151428571Y-59670952D01*
X151333333Y-59718571D01*
X151000000Y-59718571D01*
X152428571Y-59575714D02*
X152428571Y-60242380D01*
X152000000Y-59575714D02*
X152000000Y-60099523D01*
X152047619Y-60194761D01*
X152142857Y-60242380D01*
X152285714Y-60242380D01*
X152380952Y-60194761D01*
X152428571Y-60147142D01*
X152761904Y-59575714D02*
X153142857Y-59575714D01*
X152904761Y-59242380D02*
X152904761Y-60099523D01*
X152952380Y-60194761D01*
X153047619Y-60242380D01*
X153142857Y-60242380D01*
X153333333Y-59575714D02*
X153714285Y-59575714D01*
X153476190Y-59242380D02*
X153476190Y-60099523D01*
X153523809Y-60194761D01*
X153619047Y-60242380D01*
X153714285Y-60242380D01*
X154190476Y-60242380D02*
X154095238Y-60194761D01*
X154047619Y-60147142D01*
X154000000Y-60051904D01*
X154000000Y-59766190D01*
X154047619Y-59670952D01*
X154095238Y-59623333D01*
X154190476Y-59575714D01*
X154333333Y-59575714D01*
X154428571Y-59623333D01*
X154476190Y-59670952D01*
X154523809Y-59766190D01*
X154523809Y-60051904D01*
X154476190Y-60147142D01*
X154428571Y-60194761D01*
X154333333Y-60242380D01*
X154190476Y-60242380D01*
X154952380Y-59575714D02*
X154952380Y-60242380D01*
X154952380Y-59670952D02*
X155000000Y-59623333D01*
X155095238Y-59575714D01*
X155238095Y-59575714D01*
X155333333Y-59623333D01*
X155380952Y-59718571D01*
X155380952Y-60242380D01*
%TO.C,J13*%
X120190476Y-52042380D02*
X120190476Y-52756666D01*
X120142857Y-52899523D01*
X120047619Y-52994761D01*
X119904761Y-53042380D01*
X119809523Y-53042380D01*
X121190476Y-53042380D02*
X120619047Y-53042380D01*
X120904761Y-53042380D02*
X120904761Y-52042380D01*
X120809523Y-52185238D01*
X120714285Y-52280476D01*
X120619047Y-52328095D01*
X121523809Y-52042380D02*
X122142857Y-52042380D01*
X121809523Y-52423333D01*
X121952380Y-52423333D01*
X122047619Y-52470952D01*
X122095238Y-52518571D01*
X122142857Y-52613809D01*
X122142857Y-52851904D01*
X122095238Y-52947142D01*
X122047619Y-52994761D01*
X121952380Y-53042380D01*
X121666666Y-53042380D01*
X121571428Y-52994761D01*
X121523809Y-52947142D01*
X118047619Y-60242380D02*
X117571428Y-60242380D01*
X117571428Y-59242380D01*
X118380952Y-59718571D02*
X118714285Y-59718571D01*
X118857142Y-60242380D02*
X118380952Y-60242380D01*
X118380952Y-59242380D01*
X118857142Y-59242380D01*
X119285714Y-60242380D02*
X119285714Y-59242380D01*
X119523809Y-59242380D01*
X119666666Y-59290000D01*
X119761904Y-59385238D01*
X119809523Y-59480476D01*
X119857142Y-59670952D01*
X119857142Y-59813809D01*
X119809523Y-60004285D01*
X119761904Y-60099523D01*
X119666666Y-60194761D01*
X119523809Y-60242380D01*
X119285714Y-60242380D01*
X120047619Y-60337619D02*
X120809523Y-60337619D01*
X121047619Y-60242380D02*
X121047619Y-59242380D01*
X121380952Y-59956666D01*
X121714285Y-59242380D01*
X121714285Y-60242380D01*
X122190476Y-59242380D02*
X122190476Y-60051904D01*
X122238095Y-60147142D01*
X122285714Y-60194761D01*
X122380952Y-60242380D01*
X122571428Y-60242380D01*
X122666666Y-60194761D01*
X122714285Y-60147142D01*
X122761904Y-60051904D01*
X122761904Y-59242380D01*
X123095238Y-59242380D02*
X123666666Y-59242380D01*
X123380952Y-60242380D02*
X123380952Y-59242380D01*
X124000000Y-59718571D02*
X124333333Y-59718571D01*
X124476190Y-60242380D02*
X124000000Y-60242380D01*
X124000000Y-59242380D01*
X124476190Y-59242380D01*
%TO.C,C2*%
X169295833Y-83677142D02*
X169248214Y-83724761D01*
X169105357Y-83772380D01*
X169010119Y-83772380D01*
X168867261Y-83724761D01*
X168772023Y-83629523D01*
X168724404Y-83534285D01*
X168676785Y-83343809D01*
X168676785Y-83200952D01*
X168724404Y-83010476D01*
X168772023Y-82915238D01*
X168867261Y-82820000D01*
X169010119Y-82772380D01*
X169105357Y-82772380D01*
X169248214Y-82820000D01*
X169295833Y-82867619D01*
X169676785Y-82867619D02*
X169724404Y-82820000D01*
X169819642Y-82772380D01*
X170057738Y-82772380D01*
X170152976Y-82820000D01*
X170200595Y-82867619D01*
X170248214Y-82962857D01*
X170248214Y-83058095D01*
X170200595Y-83200952D01*
X169629166Y-83772380D01*
X170248214Y-83772380D01*
X166744761Y-81382380D02*
X166840000Y-81382380D01*
X166935238Y-81430000D01*
X166982857Y-81477619D01*
X167030476Y-81572857D01*
X167078095Y-81763333D01*
X167078095Y-82001428D01*
X167030476Y-82191904D01*
X166982857Y-82287142D01*
X166935238Y-82334761D01*
X166840000Y-82382380D01*
X166744761Y-82382380D01*
X166649523Y-82334761D01*
X166601904Y-82287142D01*
X166554285Y-82191904D01*
X166506666Y-82001428D01*
X166506666Y-81763333D01*
X166554285Y-81572857D01*
X166601904Y-81477619D01*
X166649523Y-81430000D01*
X166744761Y-81382380D01*
X167506666Y-82287142D02*
X167554285Y-82334761D01*
X167506666Y-82382380D01*
X167459047Y-82334761D01*
X167506666Y-82287142D01*
X167506666Y-82382380D01*
X168173333Y-81382380D02*
X168268571Y-81382380D01*
X168363809Y-81430000D01*
X168411428Y-81477619D01*
X168459047Y-81572857D01*
X168506666Y-81763333D01*
X168506666Y-82001428D01*
X168459047Y-82191904D01*
X168411428Y-82287142D01*
X168363809Y-82334761D01*
X168268571Y-82382380D01*
X168173333Y-82382380D01*
X168078095Y-82334761D01*
X168030476Y-82287142D01*
X167982857Y-82191904D01*
X167935238Y-82001428D01*
X167935238Y-81763333D01*
X167982857Y-81572857D01*
X168030476Y-81477619D01*
X168078095Y-81430000D01*
X168173333Y-81382380D01*
X169363809Y-81715714D02*
X169363809Y-82382380D01*
X169125714Y-81334761D02*
X168887619Y-82049047D01*
X169506666Y-82049047D01*
X169792380Y-81382380D02*
X170459047Y-81382380D01*
X170030476Y-82382380D01*
X171268571Y-81715714D02*
X171268571Y-82382380D01*
X170840000Y-81715714D02*
X170840000Y-82239523D01*
X170887619Y-82334761D01*
X170982857Y-82382380D01*
X171125714Y-82382380D01*
X171220952Y-82334761D01*
X171268571Y-82287142D01*
X172078095Y-81858571D02*
X171744761Y-81858571D01*
X171744761Y-82382380D02*
X171744761Y-81382380D01*
X172220952Y-81382380D01*
%TO.C,Q2*%
X114597619Y-64157738D02*
X114550000Y-64252976D01*
X114454761Y-64348214D01*
X114311904Y-64491071D01*
X114264285Y-64586309D01*
X114264285Y-64681547D01*
X114502380Y-64633928D02*
X114454761Y-64729166D01*
X114359523Y-64824404D01*
X114169047Y-64872023D01*
X113835714Y-64872023D01*
X113645238Y-64824404D01*
X113550000Y-64729166D01*
X113502380Y-64633928D01*
X113502380Y-64443452D01*
X113550000Y-64348214D01*
X113645238Y-64252976D01*
X113835714Y-64205357D01*
X114169047Y-64205357D01*
X114359523Y-64252976D01*
X114454761Y-64348214D01*
X114502380Y-64443452D01*
X114502380Y-64633928D01*
X113597619Y-63824404D02*
X113550000Y-63776785D01*
X113502380Y-63681547D01*
X113502380Y-63443452D01*
X113550000Y-63348214D01*
X113597619Y-63300595D01*
X113692857Y-63252976D01*
X113788095Y-63252976D01*
X113930952Y-63300595D01*
X114502380Y-63872023D01*
X114502380Y-63252976D01*
%TO.C,J9*%
X143166666Y-52042380D02*
X143166666Y-52756666D01*
X143119047Y-52899523D01*
X143023809Y-52994761D01*
X142880952Y-53042380D01*
X142785714Y-53042380D01*
X143690476Y-53042380D02*
X143880952Y-53042380D01*
X143976190Y-52994761D01*
X144023809Y-52947142D01*
X144119047Y-52804285D01*
X144166666Y-52613809D01*
X144166666Y-52232857D01*
X144119047Y-52137619D01*
X144071428Y-52090000D01*
X143976190Y-52042380D01*
X143785714Y-52042380D01*
X143690476Y-52090000D01*
X143642857Y-52137619D01*
X143595238Y-52232857D01*
X143595238Y-52470952D01*
X143642857Y-52566190D01*
X143690476Y-52613809D01*
X143785714Y-52661428D01*
X143976190Y-52661428D01*
X144071428Y-52613809D01*
X144119047Y-52566190D01*
X144166666Y-52470952D01*
X142000000Y-60242380D02*
X142000000Y-59242380D01*
X142333333Y-59956666D01*
X142666666Y-59242380D01*
X142666666Y-60242380D01*
X143571428Y-59575714D02*
X143571428Y-60242380D01*
X143142857Y-59575714D02*
X143142857Y-60099523D01*
X143190476Y-60194761D01*
X143285714Y-60242380D01*
X143428571Y-60242380D01*
X143523809Y-60194761D01*
X143571428Y-60147142D01*
X143904761Y-59575714D02*
X144285714Y-59575714D01*
X144047619Y-59242380D02*
X144047619Y-60099523D01*
X144095238Y-60194761D01*
X144190476Y-60242380D01*
X144285714Y-60242380D01*
X145000000Y-60194761D02*
X144904761Y-60242380D01*
X144714285Y-60242380D01*
X144619047Y-60194761D01*
X144571428Y-60099523D01*
X144571428Y-59718571D01*
X144619047Y-59623333D01*
X144714285Y-59575714D01*
X144904761Y-59575714D01*
X145000000Y-59623333D01*
X145047619Y-59718571D01*
X145047619Y-59813809D01*
X144571428Y-59909047D01*
%TO.C,R1*%
X101802380Y-56166666D02*
X101326190Y-56500000D01*
X101802380Y-56738095D02*
X100802380Y-56738095D01*
X100802380Y-56357142D01*
X100850000Y-56261904D01*
X100897619Y-56214285D01*
X100992857Y-56166666D01*
X101135714Y-56166666D01*
X101230952Y-56214285D01*
X101278571Y-56261904D01*
X101326190Y-56357142D01*
X101326190Y-56738095D01*
X101802380Y-55214285D02*
X101802380Y-55785714D01*
X101802380Y-55500000D02*
X100802380Y-55500000D01*
X100945238Y-55595238D01*
X101040476Y-55690476D01*
X101088095Y-55785714D01*
X102860952Y-53792380D02*
X102289523Y-53792380D01*
X102575238Y-53792380D02*
X102575238Y-52792380D01*
X102480000Y-52935238D01*
X102384761Y-53030476D01*
X102289523Y-53078095D01*
X103289523Y-53792380D02*
X103289523Y-52792380D01*
X103384761Y-53411428D02*
X103670476Y-53792380D01*
X103670476Y-53125714D02*
X103289523Y-53506666D01*
%TO.C,J12*%
X112690476Y-52042380D02*
X112690476Y-52756666D01*
X112642857Y-52899523D01*
X112547619Y-52994761D01*
X112404761Y-53042380D01*
X112309523Y-53042380D01*
X113690476Y-53042380D02*
X113119047Y-53042380D01*
X113404761Y-53042380D02*
X113404761Y-52042380D01*
X113309523Y-52185238D01*
X113214285Y-52280476D01*
X113119047Y-52328095D01*
X114071428Y-52137619D02*
X114119047Y-52090000D01*
X114214285Y-52042380D01*
X114452380Y-52042380D01*
X114547619Y-52090000D01*
X114595238Y-52137619D01*
X114642857Y-52232857D01*
X114642857Y-52328095D01*
X114595238Y-52470952D01*
X114023809Y-53042380D01*
X114642857Y-53042380D01*
X110814285Y-61902380D02*
X110338095Y-61902380D01*
X110338095Y-60902380D01*
X111147619Y-61378571D02*
X111480952Y-61378571D01*
X111623809Y-61902380D02*
X111147619Y-61902380D01*
X111147619Y-60902380D01*
X111623809Y-60902380D01*
X112052380Y-61902380D02*
X112052380Y-60902380D01*
X112290476Y-60902380D01*
X112433333Y-60950000D01*
X112528571Y-61045238D01*
X112576190Y-61140476D01*
X112623809Y-61330952D01*
X112623809Y-61473809D01*
X112576190Y-61664285D01*
X112528571Y-61759523D01*
X112433333Y-61854761D01*
X112290476Y-61902380D01*
X112052380Y-61902380D01*
X112814285Y-61997619D02*
X113576190Y-61997619D01*
X113814285Y-61902380D02*
X113814285Y-60902380D01*
X114195238Y-60902380D01*
X114290476Y-60950000D01*
X114338095Y-60997619D01*
X114385714Y-61092857D01*
X114385714Y-61235714D01*
X114338095Y-61330952D01*
X114290476Y-61378571D01*
X114195238Y-61426190D01*
X113814285Y-61426190D01*
X115290476Y-61902380D02*
X114814285Y-61902380D01*
X114814285Y-60902380D01*
X115576190Y-61616666D02*
X116052380Y-61616666D01*
X115480952Y-61902380D02*
X115814285Y-60902380D01*
X116147619Y-61902380D01*
X116671428Y-61426190D02*
X116671428Y-61902380D01*
X116338095Y-60902380D02*
X116671428Y-61426190D01*
X117004761Y-60902380D01*
%TO.C,J4*%
X192666666Y-56122380D02*
X192666666Y-56836666D01*
X192619047Y-56979523D01*
X192523809Y-57074761D01*
X192380952Y-57122380D01*
X192285714Y-57122380D01*
X193571428Y-56455714D02*
X193571428Y-57122380D01*
X193333333Y-56074761D02*
X193095238Y-56789047D01*
X193714285Y-56789047D01*
%TO.C,Q3*%
X123397619Y-64157738D02*
X123350000Y-64252976D01*
X123254761Y-64348214D01*
X123111904Y-64491071D01*
X123064285Y-64586309D01*
X123064285Y-64681547D01*
X123302380Y-64633928D02*
X123254761Y-64729166D01*
X123159523Y-64824404D01*
X122969047Y-64872023D01*
X122635714Y-64872023D01*
X122445238Y-64824404D01*
X122350000Y-64729166D01*
X122302380Y-64633928D01*
X122302380Y-64443452D01*
X122350000Y-64348214D01*
X122445238Y-64252976D01*
X122635714Y-64205357D01*
X122969047Y-64205357D01*
X123159523Y-64252976D01*
X123254761Y-64348214D01*
X123302380Y-64443452D01*
X123302380Y-64633928D01*
X122302380Y-63872023D02*
X122302380Y-63252976D01*
X122683333Y-63586309D01*
X122683333Y-63443452D01*
X122730952Y-63348214D01*
X122778571Y-63300595D01*
X122873809Y-63252976D01*
X123111904Y-63252976D01*
X123207142Y-63300595D01*
X123254761Y-63348214D01*
X123302380Y-63443452D01*
X123302380Y-63729166D01*
X123254761Y-63824404D01*
X123207142Y-63872023D01*
%TO.C,C3*%
X170833333Y-88357142D02*
X170785714Y-88404761D01*
X170642857Y-88452380D01*
X170547619Y-88452380D01*
X170404761Y-88404761D01*
X170309523Y-88309523D01*
X170261904Y-88214285D01*
X170214285Y-88023809D01*
X170214285Y-87880952D01*
X170261904Y-87690476D01*
X170309523Y-87595238D01*
X170404761Y-87500000D01*
X170547619Y-87452380D01*
X170642857Y-87452380D01*
X170785714Y-87500000D01*
X170833333Y-87547619D01*
X171166666Y-87452380D02*
X171785714Y-87452380D01*
X171452380Y-87833333D01*
X171595238Y-87833333D01*
X171690476Y-87880952D01*
X171738095Y-87928571D01*
X171785714Y-88023809D01*
X171785714Y-88261904D01*
X171738095Y-88357142D01*
X171690476Y-88404761D01*
X171595238Y-88452380D01*
X171309523Y-88452380D01*
X171214285Y-88404761D01*
X171166666Y-88357142D01*
X164790952Y-87422380D02*
X164886190Y-87422380D01*
X164981428Y-87470000D01*
X165029047Y-87517619D01*
X165076666Y-87612857D01*
X165124285Y-87803333D01*
X165124285Y-88041428D01*
X165076666Y-88231904D01*
X165029047Y-88327142D01*
X164981428Y-88374761D01*
X164886190Y-88422380D01*
X164790952Y-88422380D01*
X164695714Y-88374761D01*
X164648095Y-88327142D01*
X164600476Y-88231904D01*
X164552857Y-88041428D01*
X164552857Y-87803333D01*
X164600476Y-87612857D01*
X164648095Y-87517619D01*
X164695714Y-87470000D01*
X164790952Y-87422380D01*
X165552857Y-88327142D02*
X165600476Y-88374761D01*
X165552857Y-88422380D01*
X165505238Y-88374761D01*
X165552857Y-88327142D01*
X165552857Y-88422380D01*
X165933809Y-87422380D02*
X166552857Y-87422380D01*
X166219523Y-87803333D01*
X166362380Y-87803333D01*
X166457619Y-87850952D01*
X166505238Y-87898571D01*
X166552857Y-87993809D01*
X166552857Y-88231904D01*
X166505238Y-88327142D01*
X166457619Y-88374761D01*
X166362380Y-88422380D01*
X166076666Y-88422380D01*
X165981428Y-88374761D01*
X165933809Y-88327142D01*
X166886190Y-87422380D02*
X167505238Y-87422380D01*
X167171904Y-87803333D01*
X167314761Y-87803333D01*
X167410000Y-87850952D01*
X167457619Y-87898571D01*
X167505238Y-87993809D01*
X167505238Y-88231904D01*
X167457619Y-88327142D01*
X167410000Y-88374761D01*
X167314761Y-88422380D01*
X167029047Y-88422380D01*
X166933809Y-88374761D01*
X166886190Y-88327142D01*
X168362380Y-87755714D02*
X168362380Y-88422380D01*
X167933809Y-87755714D02*
X167933809Y-88279523D01*
X167981428Y-88374761D01*
X168076666Y-88422380D01*
X168219523Y-88422380D01*
X168314761Y-88374761D01*
X168362380Y-88327142D01*
X169171904Y-87898571D02*
X168838571Y-87898571D01*
X168838571Y-88422380D02*
X168838571Y-87422380D01*
X169314761Y-87422380D01*
%TO.C,J1*%
X102122380Y-140338333D02*
X102836666Y-140338333D01*
X102979523Y-140385952D01*
X103074761Y-140481190D01*
X103122380Y-140624047D01*
X103122380Y-140719285D01*
X103122380Y-139338333D02*
X103122380Y-139909761D01*
X103122380Y-139624047D02*
X102122380Y-139624047D01*
X102265238Y-139719285D01*
X102360476Y-139814523D01*
X102408095Y-139909761D01*
X156042380Y-142219285D02*
X155566190Y-142552619D01*
X156042380Y-142790714D02*
X155042380Y-142790714D01*
X155042380Y-142409761D01*
X155090000Y-142314523D01*
X155137619Y-142266904D01*
X155232857Y-142219285D01*
X155375714Y-142219285D01*
X155470952Y-142266904D01*
X155518571Y-142314523D01*
X155566190Y-142409761D01*
X155566190Y-142790714D01*
X156042380Y-141790714D02*
X155042380Y-141790714D01*
X155042380Y-141409761D01*
X155090000Y-141314523D01*
X155137619Y-141266904D01*
X155232857Y-141219285D01*
X155375714Y-141219285D01*
X155470952Y-141266904D01*
X155518571Y-141314523D01*
X155566190Y-141409761D01*
X155566190Y-141790714D01*
X156042380Y-140790714D02*
X155375714Y-140790714D01*
X155042380Y-140790714D02*
X155090000Y-140838333D01*
X155137619Y-140790714D01*
X155090000Y-140743095D01*
X155042380Y-140790714D01*
X155137619Y-140790714D01*
X156137619Y-140552619D02*
X156137619Y-139790714D01*
X156042380Y-139076428D02*
X156042380Y-139552619D01*
X155042380Y-139552619D01*
X155994761Y-138362142D02*
X156042380Y-138457380D01*
X156042380Y-138647857D01*
X155994761Y-138743095D01*
X155899523Y-138790714D01*
X155518571Y-138790714D01*
X155423333Y-138743095D01*
X155375714Y-138647857D01*
X155375714Y-138457380D01*
X155423333Y-138362142D01*
X155518571Y-138314523D01*
X155613809Y-138314523D01*
X155709047Y-138790714D01*
X155375714Y-138028809D02*
X155375714Y-137647857D01*
X156042380Y-137885952D02*
X155185238Y-137885952D01*
X155090000Y-137838333D01*
X155042380Y-137743095D01*
X155042380Y-137647857D01*
X155375714Y-137457380D02*
X155375714Y-137076428D01*
X155042380Y-137314523D02*
X155899523Y-137314523D01*
X155994761Y-137266904D01*
X156042380Y-137171666D01*
X156042380Y-137076428D01*
%TO.C,R14*%
X178602380Y-67642857D02*
X178126190Y-67976190D01*
X178602380Y-68214285D02*
X177602380Y-68214285D01*
X177602380Y-67833333D01*
X177650000Y-67738095D01*
X177697619Y-67690476D01*
X177792857Y-67642857D01*
X177935714Y-67642857D01*
X178030952Y-67690476D01*
X178078571Y-67738095D01*
X178126190Y-67833333D01*
X178126190Y-68214285D01*
X178602380Y-66690476D02*
X178602380Y-67261904D01*
X178602380Y-66976190D02*
X177602380Y-66976190D01*
X177745238Y-67071428D01*
X177840476Y-67166666D01*
X177888095Y-67261904D01*
X177935714Y-65833333D02*
X178602380Y-65833333D01*
X177554761Y-66071428D02*
X178269047Y-66309523D01*
X178269047Y-65690476D01*
X174217619Y-68216666D02*
X174170000Y-68169047D01*
X174122380Y-68073809D01*
X174122380Y-67835714D01*
X174170000Y-67740476D01*
X174217619Y-67692857D01*
X174312857Y-67645238D01*
X174408095Y-67645238D01*
X174550952Y-67692857D01*
X175122380Y-68264285D01*
X175122380Y-67645238D01*
X174217619Y-67264285D02*
X174170000Y-67216666D01*
X174122380Y-67121428D01*
X174122380Y-66883333D01*
X174170000Y-66788095D01*
X174217619Y-66740476D01*
X174312857Y-66692857D01*
X174408095Y-66692857D01*
X174550952Y-66740476D01*
X175122380Y-67311904D01*
X175122380Y-66692857D01*
X175122380Y-66264285D02*
X174122380Y-66264285D01*
X174741428Y-66169047D02*
X175122380Y-65883333D01*
X174455714Y-65883333D02*
X174836666Y-66264285D01*
%TO.C,U1*%
X175738095Y-56552380D02*
X175738095Y-57361904D01*
X175785714Y-57457142D01*
X175833333Y-57504761D01*
X175928571Y-57552380D01*
X176119047Y-57552380D01*
X176214285Y-57504761D01*
X176261904Y-57457142D01*
X176309523Y-57361904D01*
X176309523Y-56552380D01*
X177309523Y-57552380D02*
X176738095Y-57552380D01*
X177023809Y-57552380D02*
X177023809Y-56552380D01*
X176928571Y-56695238D01*
X176833333Y-56790476D01*
X176738095Y-56838095D01*
X171809523Y-64304761D02*
X171952380Y-64352380D01*
X172190476Y-64352380D01*
X172285714Y-64304761D01*
X172333333Y-64257142D01*
X172380952Y-64161904D01*
X172380952Y-64066666D01*
X172333333Y-63971428D01*
X172285714Y-63923809D01*
X172190476Y-63876190D01*
X172000000Y-63828571D01*
X171904761Y-63780952D01*
X171857142Y-63733333D01*
X171809523Y-63638095D01*
X171809523Y-63542857D01*
X171857142Y-63447619D01*
X171904761Y-63400000D01*
X172000000Y-63352380D01*
X172238095Y-63352380D01*
X172380952Y-63400000D01*
X172809523Y-64352380D02*
X172809523Y-63352380D01*
X173380952Y-64352380D01*
X173380952Y-63352380D01*
X173761904Y-63352380D02*
X174428571Y-63352380D01*
X174000000Y-64352380D01*
X175285714Y-63352380D02*
X174809523Y-63352380D01*
X174761904Y-63828571D01*
X174809523Y-63780952D01*
X174904761Y-63733333D01*
X175142857Y-63733333D01*
X175238095Y-63780952D01*
X175285714Y-63828571D01*
X175333333Y-63923809D01*
X175333333Y-64161904D01*
X175285714Y-64257142D01*
X175238095Y-64304761D01*
X175142857Y-64352380D01*
X174904761Y-64352380D01*
X174809523Y-64304761D01*
X174761904Y-64257142D01*
X176285714Y-64352380D02*
X175714285Y-64352380D01*
X176000000Y-64352380D02*
X176000000Y-63352380D01*
X175904761Y-63495238D01*
X175809523Y-63590476D01*
X175714285Y-63638095D01*
X176619047Y-63352380D02*
X177285714Y-63352380D01*
X176857142Y-64352380D01*
X178095238Y-63352380D02*
X177904761Y-63352380D01*
X177809523Y-63400000D01*
X177761904Y-63447619D01*
X177666666Y-63590476D01*
X177619047Y-63780952D01*
X177619047Y-64161904D01*
X177666666Y-64257142D01*
X177714285Y-64304761D01*
X177809523Y-64352380D01*
X178000000Y-64352380D01*
X178095238Y-64304761D01*
X178142857Y-64257142D01*
X178190476Y-64161904D01*
X178190476Y-63923809D01*
X178142857Y-63828571D01*
X178095238Y-63780952D01*
X178000000Y-63733333D01*
X177809523Y-63733333D01*
X177714285Y-63780952D01*
X177666666Y-63828571D01*
X177619047Y-63923809D01*
X178952380Y-63828571D02*
X179095238Y-63876190D01*
X179142857Y-63923809D01*
X179190476Y-64019047D01*
X179190476Y-64161904D01*
X179142857Y-64257142D01*
X179095238Y-64304761D01*
X179000000Y-64352380D01*
X178619047Y-64352380D01*
X178619047Y-63352380D01*
X178952380Y-63352380D01*
X179047619Y-63400000D01*
X179095238Y-63447619D01*
X179142857Y-63542857D01*
X179142857Y-63638095D01*
X179095238Y-63733333D01*
X179047619Y-63780952D01*
X178952380Y-63828571D01*
X178619047Y-63828571D01*
X179619047Y-64352380D02*
X179619047Y-63352380D01*
X179857142Y-63352380D01*
X180000000Y-63400000D01*
X180095238Y-63495238D01*
X180142857Y-63590476D01*
X180190476Y-63780952D01*
X180190476Y-63923809D01*
X180142857Y-64114285D01*
X180095238Y-64209523D01*
X180000000Y-64304761D01*
X179857142Y-64352380D01*
X179619047Y-64352380D01*
X181190476Y-64352380D02*
X180857142Y-63876190D01*
X180619047Y-64352380D02*
X180619047Y-63352380D01*
X181000000Y-63352380D01*
X181095238Y-63400000D01*
X181142857Y-63447619D01*
X181190476Y-63542857D01*
X181190476Y-63685714D01*
X181142857Y-63780952D01*
X181095238Y-63828571D01*
X181000000Y-63876190D01*
X180619047Y-63876190D01*
%TO.C,R8*%
X139333333Y-102802380D02*
X139000000Y-102326190D01*
X138761904Y-102802380D02*
X138761904Y-101802380D01*
X139142857Y-101802380D01*
X139238095Y-101850000D01*
X139285714Y-101897619D01*
X139333333Y-101992857D01*
X139333333Y-102135714D01*
X139285714Y-102230952D01*
X139238095Y-102278571D01*
X139142857Y-102326190D01*
X138761904Y-102326190D01*
X139904761Y-102230952D02*
X139809523Y-102183333D01*
X139761904Y-102135714D01*
X139714285Y-102040476D01*
X139714285Y-101992857D01*
X139761904Y-101897619D01*
X139809523Y-101850000D01*
X139904761Y-101802380D01*
X140095238Y-101802380D01*
X140190476Y-101850000D01*
X140238095Y-101897619D01*
X140285714Y-101992857D01*
X140285714Y-102040476D01*
X140238095Y-102135714D01*
X140190476Y-102183333D01*
X140095238Y-102230952D01*
X139904761Y-102230952D01*
X139809523Y-102278571D01*
X139761904Y-102326190D01*
X139714285Y-102421428D01*
X139714285Y-102611904D01*
X139761904Y-102707142D01*
X139809523Y-102754761D01*
X139904761Y-102802380D01*
X140095238Y-102802380D01*
X140190476Y-102754761D01*
X140238095Y-102707142D01*
X140285714Y-102611904D01*
X140285714Y-102421428D01*
X140238095Y-102326190D01*
X140190476Y-102278571D01*
X140095238Y-102230952D01*
X138904761Y-106102380D02*
X138333333Y-106102380D01*
X138619047Y-106102380D02*
X138619047Y-105102380D01*
X138523809Y-105245238D01*
X138428571Y-105340476D01*
X138333333Y-105388095D01*
X139523809Y-105102380D02*
X139619047Y-105102380D01*
X139714285Y-105150000D01*
X139761904Y-105197619D01*
X139809523Y-105292857D01*
X139857142Y-105483333D01*
X139857142Y-105721428D01*
X139809523Y-105911904D01*
X139761904Y-106007142D01*
X139714285Y-106054761D01*
X139619047Y-106102380D01*
X139523809Y-106102380D01*
X139428571Y-106054761D01*
X139380952Y-106007142D01*
X139333333Y-105911904D01*
X139285714Y-105721428D01*
X139285714Y-105483333D01*
X139333333Y-105292857D01*
X139380952Y-105197619D01*
X139428571Y-105150000D01*
X139523809Y-105102380D01*
X140285714Y-106102380D02*
X140285714Y-105102380D01*
X140380952Y-105721428D02*
X140666666Y-106102380D01*
X140666666Y-105435714D02*
X140285714Y-105816666D01*
%TO.C,R10*%
X148857142Y-102802380D02*
X148523809Y-102326190D01*
X148285714Y-102802380D02*
X148285714Y-101802380D01*
X148666666Y-101802380D01*
X148761904Y-101850000D01*
X148809523Y-101897619D01*
X148857142Y-101992857D01*
X148857142Y-102135714D01*
X148809523Y-102230952D01*
X148761904Y-102278571D01*
X148666666Y-102326190D01*
X148285714Y-102326190D01*
X149809523Y-102802380D02*
X149238095Y-102802380D01*
X149523809Y-102802380D02*
X149523809Y-101802380D01*
X149428571Y-101945238D01*
X149333333Y-102040476D01*
X149238095Y-102088095D01*
X150428571Y-101802380D02*
X150523809Y-101802380D01*
X150619047Y-101850000D01*
X150666666Y-101897619D01*
X150714285Y-101992857D01*
X150761904Y-102183333D01*
X150761904Y-102421428D01*
X150714285Y-102611904D01*
X150666666Y-102707142D01*
X150619047Y-102754761D01*
X150523809Y-102802380D01*
X150428571Y-102802380D01*
X150333333Y-102754761D01*
X150285714Y-102707142D01*
X150238095Y-102611904D01*
X150190476Y-102421428D01*
X150190476Y-102183333D01*
X150238095Y-101992857D01*
X150285714Y-101897619D01*
X150333333Y-101850000D01*
X150428571Y-101802380D01*
X148904761Y-106102380D02*
X148333333Y-106102380D01*
X148619047Y-106102380D02*
X148619047Y-105102380D01*
X148523809Y-105245238D01*
X148428571Y-105340476D01*
X148333333Y-105388095D01*
X149523809Y-105102380D02*
X149619047Y-105102380D01*
X149714285Y-105150000D01*
X149761904Y-105197619D01*
X149809523Y-105292857D01*
X149857142Y-105483333D01*
X149857142Y-105721428D01*
X149809523Y-105911904D01*
X149761904Y-106007142D01*
X149714285Y-106054761D01*
X149619047Y-106102380D01*
X149523809Y-106102380D01*
X149428571Y-106054761D01*
X149380952Y-106007142D01*
X149333333Y-105911904D01*
X149285714Y-105721428D01*
X149285714Y-105483333D01*
X149333333Y-105292857D01*
X149380952Y-105197619D01*
X149428571Y-105150000D01*
X149523809Y-105102380D01*
X150285714Y-106102380D02*
X150285714Y-105102380D01*
X150380952Y-105721428D02*
X150666666Y-106102380D01*
X150666666Y-105435714D02*
X150285714Y-105816666D01*
%TO.C,Q1*%
X105197619Y-64157738D02*
X105150000Y-64252976D01*
X105054761Y-64348214D01*
X104911904Y-64491071D01*
X104864285Y-64586309D01*
X104864285Y-64681547D01*
X105102380Y-64633928D02*
X105054761Y-64729166D01*
X104959523Y-64824404D01*
X104769047Y-64872023D01*
X104435714Y-64872023D01*
X104245238Y-64824404D01*
X104150000Y-64729166D01*
X104102380Y-64633928D01*
X104102380Y-64443452D01*
X104150000Y-64348214D01*
X104245238Y-64252976D01*
X104435714Y-64205357D01*
X104769047Y-64205357D01*
X104959523Y-64252976D01*
X105054761Y-64348214D01*
X105102380Y-64443452D01*
X105102380Y-64633928D01*
X105102380Y-63252976D02*
X105102380Y-63824404D01*
X105102380Y-63538690D02*
X104102380Y-63538690D01*
X104245238Y-63633928D01*
X104340476Y-63729166D01*
X104388095Y-63824404D01*
%TO.C,J7*%
X128166666Y-52042380D02*
X128166666Y-52756666D01*
X128119047Y-52899523D01*
X128023809Y-52994761D01*
X127880952Y-53042380D01*
X127785714Y-53042380D01*
X128547619Y-52042380D02*
X129214285Y-52042380D01*
X128785714Y-53042380D01*
X126738095Y-60242380D02*
X126404761Y-59766190D01*
X126166666Y-60242380D02*
X126166666Y-59242380D01*
X126547619Y-59242380D01*
X126642857Y-59290000D01*
X126690476Y-59337619D01*
X126738095Y-59432857D01*
X126738095Y-59575714D01*
X126690476Y-59670952D01*
X126642857Y-59718571D01*
X126547619Y-59766190D01*
X126166666Y-59766190D01*
X127547619Y-60194761D02*
X127452380Y-60242380D01*
X127261904Y-60242380D01*
X127166666Y-60194761D01*
X127119047Y-60099523D01*
X127119047Y-59718571D01*
X127166666Y-59623333D01*
X127261904Y-59575714D01*
X127452380Y-59575714D01*
X127547619Y-59623333D01*
X127595238Y-59718571D01*
X127595238Y-59813809D01*
X127119047Y-59909047D01*
X128023809Y-60242380D02*
X128023809Y-59242380D01*
X128023809Y-59623333D02*
X128119047Y-59575714D01*
X128309523Y-59575714D01*
X128404761Y-59623333D01*
X128452380Y-59670952D01*
X128500000Y-59766190D01*
X128500000Y-60051904D01*
X128452380Y-60147142D01*
X128404761Y-60194761D01*
X128309523Y-60242380D01*
X128119047Y-60242380D01*
X128023809Y-60194761D01*
X129071428Y-60242380D02*
X128976190Y-60194761D01*
X128928571Y-60147142D01*
X128880952Y-60051904D01*
X128880952Y-59766190D01*
X128928571Y-59670952D01*
X128976190Y-59623333D01*
X129071428Y-59575714D01*
X129214285Y-59575714D01*
X129309523Y-59623333D01*
X129357142Y-59670952D01*
X129404761Y-59766190D01*
X129404761Y-60051904D01*
X129357142Y-60147142D01*
X129309523Y-60194761D01*
X129214285Y-60242380D01*
X129071428Y-60242380D01*
X129976190Y-60242380D02*
X129880952Y-60194761D01*
X129833333Y-60147142D01*
X129785714Y-60051904D01*
X129785714Y-59766190D01*
X129833333Y-59670952D01*
X129880952Y-59623333D01*
X129976190Y-59575714D01*
X130119047Y-59575714D01*
X130214285Y-59623333D01*
X130261904Y-59670952D01*
X130309523Y-59766190D01*
X130309523Y-60051904D01*
X130261904Y-60147142D01*
X130214285Y-60194761D01*
X130119047Y-60242380D01*
X129976190Y-60242380D01*
X130595238Y-59575714D02*
X130976190Y-59575714D01*
X130738095Y-59242380D02*
X130738095Y-60099523D01*
X130785714Y-60194761D01*
X130880952Y-60242380D01*
X130976190Y-60242380D01*
%TO.C,J6*%
X192666666Y-83582380D02*
X192666666Y-84296666D01*
X192619047Y-84439523D01*
X192523809Y-84534761D01*
X192380952Y-84582380D01*
X192285714Y-84582380D01*
X193571428Y-83582380D02*
X193380952Y-83582380D01*
X193285714Y-83630000D01*
X193238095Y-83677619D01*
X193142857Y-83820476D01*
X193095238Y-84010952D01*
X193095238Y-84391904D01*
X193142857Y-84487142D01*
X193190476Y-84534761D01*
X193285714Y-84582380D01*
X193476190Y-84582380D01*
X193571428Y-84534761D01*
X193619047Y-84487142D01*
X193666666Y-84391904D01*
X193666666Y-84153809D01*
X193619047Y-84058571D01*
X193571428Y-84010952D01*
X193476190Y-83963333D01*
X193285714Y-83963333D01*
X193190476Y-84010952D01*
X193142857Y-84058571D01*
X193095238Y-84153809D01*
%TO.C,C4*%
X174333333Y-93357142D02*
X174285714Y-93404761D01*
X174142857Y-93452380D01*
X174047619Y-93452380D01*
X173904761Y-93404761D01*
X173809523Y-93309523D01*
X173761904Y-93214285D01*
X173714285Y-93023809D01*
X173714285Y-92880952D01*
X173761904Y-92690476D01*
X173809523Y-92595238D01*
X173904761Y-92500000D01*
X174047619Y-92452380D01*
X174142857Y-92452380D01*
X174285714Y-92500000D01*
X174333333Y-92547619D01*
X175190476Y-92785714D02*
X175190476Y-93452380D01*
X174952380Y-92404761D02*
X174714285Y-93119047D01*
X175333333Y-93119047D01*
X172390952Y-93962380D02*
X172486190Y-93962380D01*
X172581428Y-94010000D01*
X172629047Y-94057619D01*
X172676666Y-94152857D01*
X172724285Y-94343333D01*
X172724285Y-94581428D01*
X172676666Y-94771904D01*
X172629047Y-94867142D01*
X172581428Y-94914761D01*
X172486190Y-94962380D01*
X172390952Y-94962380D01*
X172295714Y-94914761D01*
X172248095Y-94867142D01*
X172200476Y-94771904D01*
X172152857Y-94581428D01*
X172152857Y-94343333D01*
X172200476Y-94152857D01*
X172248095Y-94057619D01*
X172295714Y-94010000D01*
X172390952Y-93962380D01*
X173152857Y-94867142D02*
X173200476Y-94914761D01*
X173152857Y-94962380D01*
X173105238Y-94914761D01*
X173152857Y-94867142D01*
X173152857Y-94962380D01*
X173533809Y-93962380D02*
X174152857Y-93962380D01*
X173819523Y-94343333D01*
X173962380Y-94343333D01*
X174057619Y-94390952D01*
X174105238Y-94438571D01*
X174152857Y-94533809D01*
X174152857Y-94771904D01*
X174105238Y-94867142D01*
X174057619Y-94914761D01*
X173962380Y-94962380D01*
X173676666Y-94962380D01*
X173581428Y-94914761D01*
X173533809Y-94867142D01*
X174486190Y-93962380D02*
X175105238Y-93962380D01*
X174771904Y-94343333D01*
X174914761Y-94343333D01*
X175010000Y-94390952D01*
X175057619Y-94438571D01*
X175105238Y-94533809D01*
X175105238Y-94771904D01*
X175057619Y-94867142D01*
X175010000Y-94914761D01*
X174914761Y-94962380D01*
X174629047Y-94962380D01*
X174533809Y-94914761D01*
X174486190Y-94867142D01*
X175962380Y-94295714D02*
X175962380Y-94962380D01*
X175533809Y-94295714D02*
X175533809Y-94819523D01*
X175581428Y-94914761D01*
X175676666Y-94962380D01*
X175819523Y-94962380D01*
X175914761Y-94914761D01*
X175962380Y-94867142D01*
X176771904Y-94438571D02*
X176438571Y-94438571D01*
X176438571Y-94962380D02*
X176438571Y-93962380D01*
X176914761Y-93962380D01*
%TO.C,R7*%
X151602380Y-65166666D02*
X151126190Y-65500000D01*
X151602380Y-65738095D02*
X150602380Y-65738095D01*
X150602380Y-65357142D01*
X150650000Y-65261904D01*
X150697619Y-65214285D01*
X150792857Y-65166666D01*
X150935714Y-65166666D01*
X151030952Y-65214285D01*
X151078571Y-65261904D01*
X151126190Y-65357142D01*
X151126190Y-65738095D01*
X150602380Y-64833333D02*
X150602380Y-64166666D01*
X151602380Y-64595238D01*
X147302380Y-66785714D02*
X147302380Y-66166666D01*
X147683333Y-66500000D01*
X147683333Y-66357142D01*
X147730952Y-66261904D01*
X147778571Y-66214285D01*
X147873809Y-66166666D01*
X148111904Y-66166666D01*
X148207142Y-66214285D01*
X148254761Y-66261904D01*
X148302380Y-66357142D01*
X148302380Y-66642857D01*
X148254761Y-66738095D01*
X148207142Y-66785714D01*
X147302380Y-65833333D02*
X147302380Y-65214285D01*
X147683333Y-65547619D01*
X147683333Y-65404761D01*
X147730952Y-65309523D01*
X147778571Y-65261904D01*
X147873809Y-65214285D01*
X148111904Y-65214285D01*
X148207142Y-65261904D01*
X148254761Y-65309523D01*
X148302380Y-65404761D01*
X148302380Y-65690476D01*
X148254761Y-65785714D01*
X148207142Y-65833333D01*
X147302380Y-64595238D02*
X147302380Y-64500000D01*
X147350000Y-64404761D01*
X147397619Y-64357142D01*
X147492857Y-64309523D01*
X147683333Y-64261904D01*
X147921428Y-64261904D01*
X148111904Y-64309523D01*
X148207142Y-64357142D01*
X148254761Y-64404761D01*
X148302380Y-64500000D01*
X148302380Y-64595238D01*
X148254761Y-64690476D01*
X148207142Y-64738095D01*
X148111904Y-64785714D01*
X147921428Y-64833333D01*
X147683333Y-64833333D01*
X147492857Y-64785714D01*
X147397619Y-64738095D01*
X147350000Y-64690476D01*
X147302380Y-64595238D01*
X148302380Y-63261904D02*
X147826190Y-63595238D01*
X148302380Y-63833333D02*
X147302380Y-63833333D01*
X147302380Y-63452380D01*
X147350000Y-63357142D01*
X147397619Y-63309523D01*
X147492857Y-63261904D01*
X147635714Y-63261904D01*
X147730952Y-63309523D01*
X147778571Y-63357142D01*
X147826190Y-63452380D01*
X147826190Y-63833333D01*
%TO.C,J11*%
X105460476Y-52149880D02*
X105460476Y-52864166D01*
X105412857Y-53007023D01*
X105317619Y-53102261D01*
X105174761Y-53149880D01*
X105079523Y-53149880D01*
X106460476Y-53149880D02*
X105889047Y-53149880D01*
X106174761Y-53149880D02*
X106174761Y-52149880D01*
X106079523Y-52292738D01*
X105984285Y-52387976D01*
X105889047Y-52435595D01*
X107412857Y-53149880D02*
X106841428Y-53149880D01*
X107127142Y-53149880D02*
X107127142Y-52149880D01*
X107031904Y-52292738D01*
X106936666Y-52387976D01*
X106841428Y-52435595D01*
X104198571Y-60349880D02*
X103722380Y-60349880D01*
X103722380Y-59349880D01*
X104531904Y-59826071D02*
X104865238Y-59826071D01*
X105008095Y-60349880D02*
X104531904Y-60349880D01*
X104531904Y-59349880D01*
X105008095Y-59349880D01*
X105436666Y-60349880D02*
X105436666Y-59349880D01*
X105674761Y-59349880D01*
X105817619Y-59397500D01*
X105912857Y-59492738D01*
X105960476Y-59587976D01*
X106008095Y-59778452D01*
X106008095Y-59921309D01*
X105960476Y-60111785D01*
X105912857Y-60207023D01*
X105817619Y-60302261D01*
X105674761Y-60349880D01*
X105436666Y-60349880D01*
X106198571Y-60445119D02*
X106960476Y-60445119D01*
X107389047Y-59349880D02*
X107579523Y-59349880D01*
X107674761Y-59397500D01*
X107770000Y-59492738D01*
X107817619Y-59683214D01*
X107817619Y-60016547D01*
X107770000Y-60207023D01*
X107674761Y-60302261D01*
X107579523Y-60349880D01*
X107389047Y-60349880D01*
X107293809Y-60302261D01*
X107198571Y-60207023D01*
X107150952Y-60016547D01*
X107150952Y-59683214D01*
X107198571Y-59492738D01*
X107293809Y-59397500D01*
X107389047Y-59349880D01*
X108246190Y-60349880D02*
X108246190Y-59349880D01*
X108817619Y-60349880D01*
X108817619Y-59349880D01*
%TO.C,R13*%
X186602380Y-67642857D02*
X186126190Y-67976190D01*
X186602380Y-68214285D02*
X185602380Y-68214285D01*
X185602380Y-67833333D01*
X185650000Y-67738095D01*
X185697619Y-67690476D01*
X185792857Y-67642857D01*
X185935714Y-67642857D01*
X186030952Y-67690476D01*
X186078571Y-67738095D01*
X186126190Y-67833333D01*
X186126190Y-68214285D01*
X186602380Y-66690476D02*
X186602380Y-67261904D01*
X186602380Y-66976190D02*
X185602380Y-66976190D01*
X185745238Y-67071428D01*
X185840476Y-67166666D01*
X185888095Y-67261904D01*
X185602380Y-66357142D02*
X185602380Y-65738095D01*
X185983333Y-66071428D01*
X185983333Y-65928571D01*
X186030952Y-65833333D01*
X186078571Y-65785714D01*
X186173809Y-65738095D01*
X186411904Y-65738095D01*
X186507142Y-65785714D01*
X186554761Y-65833333D01*
X186602380Y-65928571D01*
X186602380Y-66214285D01*
X186554761Y-66309523D01*
X186507142Y-66357142D01*
X182397619Y-68166666D02*
X182350000Y-68119047D01*
X182302380Y-68023809D01*
X182302380Y-67785714D01*
X182350000Y-67690476D01*
X182397619Y-67642857D01*
X182492857Y-67595238D01*
X182588095Y-67595238D01*
X182730952Y-67642857D01*
X183302380Y-68214285D01*
X183302380Y-67595238D01*
X182397619Y-67214285D02*
X182350000Y-67166666D01*
X182302380Y-67071428D01*
X182302380Y-66833333D01*
X182350000Y-66738095D01*
X182397619Y-66690476D01*
X182492857Y-66642857D01*
X182588095Y-66642857D01*
X182730952Y-66690476D01*
X183302380Y-67261904D01*
X183302380Y-66642857D01*
X183302380Y-66214285D02*
X182302380Y-66214285D01*
X182921428Y-66119047D02*
X183302380Y-65833333D01*
X182635714Y-65833333D02*
X183016666Y-66214285D01*
%TO.C,TR1*%
X153127995Y-72452380D02*
X153699423Y-72452380D01*
X153413709Y-73452380D02*
X153413709Y-72452380D01*
X154604185Y-73452380D02*
X154270852Y-72976190D01*
X154032757Y-73452380D02*
X154032757Y-72452380D01*
X154413709Y-72452380D01*
X154508947Y-72500000D01*
X154556566Y-72547619D01*
X154604185Y-72642857D01*
X154604185Y-72785714D01*
X154556566Y-72880952D01*
X154508947Y-72928571D01*
X154413709Y-72976190D01*
X154032757Y-72976190D01*
X155556566Y-73452380D02*
X154985138Y-73452380D01*
X155270852Y-73452380D02*
X155270852Y-72452380D01*
X155175614Y-72595238D01*
X155080376Y-72690476D01*
X154985138Y-72738095D01*
X152627995Y-67285714D02*
X152627995Y-67952380D01*
X152389900Y-66904761D02*
X152151804Y-67619047D01*
X152770852Y-67619047D01*
X153151804Y-67952380D02*
X153151804Y-66952380D01*
X153723233Y-67952380D01*
X153723233Y-66952380D01*
X154151804Y-67047619D02*
X154199423Y-67000000D01*
X154294661Y-66952380D01*
X154532757Y-66952380D01*
X154627995Y-67000000D01*
X154675614Y-67047619D01*
X154723233Y-67142857D01*
X154723233Y-67238095D01*
X154675614Y-67380952D01*
X154104185Y-67952380D01*
X154723233Y-67952380D01*
X155627995Y-66952380D02*
X155151804Y-66952380D01*
X155104185Y-67428571D01*
X155151804Y-67380952D01*
X155247042Y-67333333D01*
X155485138Y-67333333D01*
X155580376Y-67380952D01*
X155627995Y-67428571D01*
X155675614Y-67523809D01*
X155675614Y-67761904D01*
X155627995Y-67857142D01*
X155580376Y-67904761D01*
X155485138Y-67952380D01*
X155247042Y-67952380D01*
X155151804Y-67904761D01*
X155104185Y-67857142D01*
X156056566Y-67904761D02*
X156199423Y-67952380D01*
X156437519Y-67952380D01*
X156532757Y-67904761D01*
X156580376Y-67857142D01*
X156627995Y-67761904D01*
X156627995Y-67666666D01*
X156580376Y-67571428D01*
X156532757Y-67523809D01*
X156437519Y-67476190D01*
X156247042Y-67428571D01*
X156151804Y-67380952D01*
X156104185Y-67333333D01*
X156056566Y-67238095D01*
X156056566Y-67142857D01*
X156104185Y-67047619D01*
X156151804Y-67000000D01*
X156247042Y-66952380D01*
X156485138Y-66952380D01*
X156627995Y-67000000D01*
D14*
%TO.C,R5*%
X118235000Y-56227064D02*
X118235000Y-55772936D01*
X116765000Y-56227064D02*
X116765000Y-55772936D01*
%TO.C,J10*%
X163330000Y-61330000D02*
X162000000Y-61330000D01*
X163330000Y-58730000D02*
X163330000Y-53590000D01*
X163330000Y-53590000D02*
X160670000Y-53590000D01*
X163330000Y-58730000D02*
X160670000Y-58730000D01*
X160670000Y-58730000D02*
X160670000Y-53590000D01*
X163330000Y-60000000D02*
X163330000Y-61330000D01*
%TO.C,J17*%
X178670000Y-141730000D02*
X178670000Y-106110000D01*
X181330000Y-141730000D02*
X178670000Y-141730000D01*
X178670000Y-144330000D02*
X178670000Y-143000000D01*
X180000000Y-144330000D02*
X178670000Y-144330000D01*
X181330000Y-106110000D02*
X178670000Y-106110000D01*
X181330000Y-141730000D02*
X181330000Y-106110000D01*
%TO.C,J16*%
X176570000Y-141750000D02*
X176570000Y-106130000D01*
X175240000Y-144350000D02*
X173910000Y-144350000D01*
X173910000Y-144350000D02*
X173910000Y-143020000D01*
X176570000Y-106130000D02*
X173910000Y-106130000D01*
X176570000Y-141750000D02*
X173910000Y-141750000D01*
X173910000Y-141750000D02*
X173910000Y-106130000D01*
%TO.C,C1*%
X177701248Y-54265000D02*
X178223752Y-54265000D01*
X177701248Y-55735000D02*
X178223752Y-55735000D01*
%TO.C,R11*%
X166265000Y-59772936D02*
X166265000Y-60227064D01*
X167735000Y-59772936D02*
X167735000Y-60227064D01*
%TO.C,R2*%
X105265000Y-70727064D02*
X105265000Y-70272936D01*
X106735000Y-70727064D02*
X106735000Y-70272936D01*
%TO.C,J2*%
X154590000Y-128330000D02*
X154590000Y-123130000D01*
X103670000Y-128330000D02*
X103670000Y-127000000D01*
X103670000Y-125730000D02*
X103670000Y-123130000D01*
X105000000Y-128330000D02*
X103670000Y-128330000D01*
X103670000Y-123130000D02*
X154590000Y-123130000D01*
X106270000Y-128330000D02*
X154590000Y-128330000D01*
X106270000Y-125730000D02*
X103670000Y-125730000D01*
X106270000Y-128330000D02*
X106270000Y-125730000D01*
%TO.C,C6*%
X182676248Y-80765000D02*
X183198752Y-80765000D01*
X182676248Y-82235000D02*
X183198752Y-82235000D01*
%TO.C,J8*%
X134670000Y-56190000D02*
X137330000Y-56190000D01*
X134670000Y-54920000D02*
X134670000Y-53590000D01*
X134670000Y-53590000D02*
X136000000Y-53590000D01*
X134670000Y-56190000D02*
X134670000Y-58790000D01*
X137330000Y-56190000D02*
X137330000Y-58790000D01*
X134670000Y-58790000D02*
X137330000Y-58790000D01*
%TO.C,R3*%
X109265000Y-56227064D02*
X109265000Y-55772936D01*
X110735000Y-56227064D02*
X110735000Y-55772936D01*
%TO.C,R6*%
X125235000Y-70727064D02*
X125235000Y-70272936D01*
X123765000Y-70727064D02*
X123765000Y-70272936D01*
%TO.C,C5*%
X174723752Y-84265000D02*
X174201248Y-84265000D01*
X174723752Y-85735000D02*
X174201248Y-85735000D01*
%TO.C,R9*%
X144272936Y-104735000D02*
X144727064Y-104735000D01*
X144272936Y-103265000D02*
X144727064Y-103265000D01*
%TO.C,J3*%
X103670000Y-113330000D02*
X103670000Y-112000000D01*
X103670000Y-108130000D02*
X154590000Y-108130000D01*
X154590000Y-113330000D02*
X154590000Y-108130000D01*
X106270000Y-113330000D02*
X154590000Y-113330000D01*
X105000000Y-113330000D02*
X103670000Y-113330000D01*
X106270000Y-113330000D02*
X106270000Y-110730000D01*
X106270000Y-110730000D02*
X103670000Y-110730000D01*
X103670000Y-110730000D02*
X103670000Y-108130000D01*
%TO.C,U2*%
X183000000Y-91185000D02*
X185200000Y-91185000D01*
X183000000Y-84415000D02*
X179400000Y-84415000D01*
X183000000Y-84415000D02*
X185200000Y-84415000D01*
X183000000Y-91185000D02*
X180800000Y-91185000D01*
%TO.C,R12*%
X189177064Y-80765000D02*
X188722936Y-80765000D01*
X189177064Y-82235000D02*
X188722936Y-82235000D01*
%TO.C,R4*%
X116235000Y-70727064D02*
X116235000Y-70272936D01*
X114765000Y-70727064D02*
X114765000Y-70272936D01*
%TO.C,J5*%
X149670000Y-56190000D02*
X149670000Y-58790000D01*
X149670000Y-56190000D02*
X152330000Y-56190000D01*
X149670000Y-58790000D02*
X152330000Y-58790000D01*
X149670000Y-54920000D02*
X149670000Y-53590000D01*
X149670000Y-53590000D02*
X151000000Y-53590000D01*
X152330000Y-56190000D02*
X152330000Y-58790000D01*
%TO.C,J13*%
X119670000Y-54920000D02*
X119670000Y-53590000D01*
X122330000Y-56190000D02*
X122330000Y-58790000D01*
X119670000Y-53590000D02*
X121000000Y-53590000D01*
X119670000Y-58790000D02*
X122330000Y-58790000D01*
X119670000Y-56190000D02*
X122330000Y-56190000D01*
X119670000Y-56190000D02*
X119670000Y-58790000D01*
%TO.C,C2*%
X169201248Y-84265000D02*
X169723752Y-84265000D01*
X169201248Y-85735000D02*
X169723752Y-85735000D01*
%TO.C,Q2*%
X118010000Y-64062500D02*
X118010000Y-64712500D01*
X114890000Y-64062500D02*
X114890000Y-63412500D01*
X118010000Y-64062500D02*
X118010000Y-63412500D01*
X114890000Y-64062500D02*
X114890000Y-65737500D01*
%TO.C,J9*%
X142170000Y-56190000D02*
X144830000Y-56190000D01*
X142170000Y-53590000D02*
X143500000Y-53590000D01*
X144830000Y-56190000D02*
X144830000Y-58790000D01*
X142170000Y-56190000D02*
X142170000Y-58790000D01*
X142170000Y-54920000D02*
X142170000Y-53590000D01*
X142170000Y-58790000D02*
X144830000Y-58790000D01*
%TO.C,R1*%
X103735000Y-56227064D02*
X103735000Y-55772936D01*
X102265000Y-56227064D02*
X102265000Y-55772936D01*
%TO.C,J12*%
X112170000Y-53590000D02*
X113500000Y-53590000D01*
X112170000Y-56190000D02*
X112170000Y-58790000D01*
X112170000Y-58790000D02*
X114830000Y-58790000D01*
X112170000Y-56190000D02*
X114830000Y-56190000D01*
X114830000Y-56190000D02*
X114830000Y-58790000D01*
X112170000Y-54920000D02*
X112170000Y-53590000D01*
%TO.C,J15*%
X161330000Y-141750000D02*
X161330000Y-106130000D01*
X158670000Y-141750000D02*
X158670000Y-106130000D01*
X158670000Y-144350000D02*
X158670000Y-143020000D01*
X160000000Y-144350000D02*
X158670000Y-144350000D01*
X161330000Y-141750000D02*
X158670000Y-141750000D01*
X161330000Y-106130000D02*
X158670000Y-106130000D01*
%TO.C,J4*%
X191670000Y-59000000D02*
X191670000Y-57670000D01*
X191670000Y-60270000D02*
X194330000Y-60270000D01*
X194330000Y-60270000D02*
X194330000Y-65410000D01*
X191670000Y-60270000D02*
X191670000Y-65410000D01*
X191670000Y-57670000D02*
X193000000Y-57670000D01*
X191670000Y-65410000D02*
X194330000Y-65410000D01*
%TO.C,Q3*%
X123690000Y-64062500D02*
X123690000Y-65737500D01*
X126810000Y-64062500D02*
X126810000Y-64712500D01*
X126810000Y-64062500D02*
X126810000Y-63412500D01*
X123690000Y-64062500D02*
X123690000Y-63412500D01*
%TO.C,C3*%
X174201248Y-88735000D02*
X174723752Y-88735000D01*
X174201248Y-87265000D02*
X174723752Y-87265000D01*
%TO.C,J1*%
X105000000Y-142605000D02*
X103670000Y-142605000D01*
X106270000Y-142605000D02*
X106270000Y-140005000D01*
X106270000Y-140005000D02*
X103670000Y-140005000D01*
X103670000Y-140005000D02*
X103670000Y-137405000D01*
X103670000Y-142605000D02*
X103670000Y-141275000D01*
X103670000Y-137405000D02*
X154590000Y-137405000D01*
X106270000Y-142605000D02*
X154590000Y-142605000D01*
X154590000Y-142605000D02*
X154590000Y-137405000D01*
%TO.C,R14*%
X177235000Y-66772936D02*
X177235000Y-67227064D01*
X175765000Y-66772936D02*
X175765000Y-67227064D01*
%TO.C,U1*%
X176500000Y-63060000D02*
X178450000Y-63060000D01*
X176500000Y-63060000D02*
X174550000Y-63060000D01*
X176500000Y-57940000D02*
X173050000Y-57940000D01*
X176500000Y-57940000D02*
X178450000Y-57940000D01*
%TO.C,R8*%
X139272936Y-104735000D02*
X139727064Y-104735000D01*
X139272936Y-103265000D02*
X139727064Y-103265000D01*
%TO.C,R10*%
X149272936Y-103265000D02*
X149727064Y-103265000D01*
X149272936Y-104735000D02*
X149727064Y-104735000D01*
%TO.C,Q1*%
X108610000Y-64062500D02*
X108610000Y-63412500D01*
X105490000Y-64062500D02*
X105490000Y-65737500D01*
X108610000Y-64062500D02*
X108610000Y-64712500D01*
X105490000Y-64062500D02*
X105490000Y-63412500D01*
%TO.C,J7*%
X127170000Y-53590000D02*
X128500000Y-53590000D01*
X127170000Y-54920000D02*
X127170000Y-53590000D01*
X129830000Y-56190000D02*
X129830000Y-58790000D01*
X127170000Y-58790000D02*
X129830000Y-58790000D01*
X127170000Y-56190000D02*
X127170000Y-58790000D01*
X127170000Y-56190000D02*
X129830000Y-56190000D01*
%TO.C,G\u002A\u002A\u002A*%
G36*
X140559490Y-94358945D02*
G01*
X140575656Y-94187195D01*
X140599577Y-94061104D01*
X140633642Y-93961191D01*
X140680238Y-93867974D01*
X140723640Y-93792785D01*
X140867550Y-93591442D01*
X141047939Y-93440738D01*
X141248944Y-93329281D01*
X141434073Y-93245207D01*
X141598459Y-93193379D01*
X141782896Y-93166356D01*
X142028179Y-93156697D01*
X142198458Y-93156077D01*
X142489956Y-93160502D01*
X142698585Y-93177514D01*
X142864988Y-93215049D01*
X143029808Y-93281041D01*
X143155181Y-93342872D01*
X143384791Y-93473765D01*
X143552930Y-93611386D01*
X143668863Y-93777320D01*
X143741856Y-93993153D01*
X143781174Y-94280471D01*
X143796082Y-94660859D01*
X143797280Y-94838808D01*
X143798296Y-95657664D01*
X141758880Y-95657664D01*
X141758880Y-96121168D01*
X141780060Y-96446413D01*
X141847727Y-96665886D01*
X141968071Y-96790660D01*
X142147283Y-96831810D01*
X142156169Y-96831873D01*
X142336793Y-96783629D01*
X142460635Y-96634334D01*
X142533272Y-96377148D01*
X142534728Y-96367631D01*
X142576321Y-96090268D01*
X143815513Y-96090268D01*
X143777291Y-96412992D01*
X143675321Y-96837434D01*
X143481014Y-97185117D01*
X143198077Y-97449710D01*
X143152864Y-97478984D01*
X143003814Y-97564834D01*
X142868363Y-97620250D01*
X142711274Y-97652879D01*
X142497310Y-97670368D01*
X142229241Y-97679428D01*
X141848050Y-97678942D01*
X141566205Y-97654093D01*
X141361496Y-97602899D01*
X141358361Y-97601716D01*
X141044342Y-97423097D01*
X140781810Y-97160183D01*
X140611668Y-96861154D01*
X140577254Y-96749726D01*
X140552626Y-96610494D01*
X140536822Y-96424752D01*
X140528880Y-96173798D01*
X140527840Y-95838925D01*
X140532741Y-95401429D01*
X140533653Y-95342975D01*
X140540877Y-94917353D01*
X140543913Y-94792457D01*
X141743155Y-94792457D01*
X142562287Y-94792457D01*
X142562287Y-94503771D01*
X142527441Y-94237186D01*
X142420458Y-94068825D01*
X142237667Y-93994010D01*
X142158572Y-93989051D01*
X141979523Y-94019643D01*
X141863277Y-94123631D01*
X141795595Y-94319333D01*
X141772649Y-94485505D01*
X141743155Y-94792457D01*
X140543913Y-94792457D01*
X140548693Y-94595837D01*
X140559490Y-94358945D01*
G37*
G36*
X116490761Y-91826034D02*
G01*
X116988841Y-91828778D01*
X117381337Y-91839244D01*
X117686190Y-91860778D01*
X117921338Y-91896730D01*
X118104722Y-91950448D01*
X118254281Y-92025281D01*
X118387956Y-92124575D01*
X118465104Y-92194528D01*
X118675516Y-92470026D01*
X118814016Y-92809367D01*
X118881506Y-93185852D01*
X118878886Y-93572781D01*
X118807059Y-93943452D01*
X118666927Y-94271166D01*
X118459392Y-94529221D01*
X118384224Y-94588991D01*
X118191095Y-94725428D01*
X118341046Y-94783286D01*
X118527219Y-94889601D01*
X118670066Y-95055639D01*
X118773806Y-95294238D01*
X118842656Y-95618240D01*
X118880834Y-96040484D01*
X118892153Y-96461070D01*
X118919241Y-96937558D01*
X118994283Y-97316459D01*
X119046691Y-97465328D01*
X119056300Y-97510982D01*
X119027824Y-97541656D01*
X118942318Y-97560288D01*
X118780839Y-97569819D01*
X118524443Y-97573187D01*
X118349720Y-97573479D01*
X118027568Y-97571024D01*
X117808659Y-97561963D01*
X117672704Y-97543749D01*
X117599412Y-97513836D01*
X117570602Y-97475724D01*
X117553890Y-97372842D01*
X117540924Y-97180341D01*
X117533640Y-96932192D01*
X117532732Y-96811369D01*
X117521278Y-96395386D01*
X117489513Y-96026456D01*
X117440508Y-95724923D01*
X117377337Y-95511129D01*
X117322698Y-95420786D01*
X117211403Y-95362996D01*
X117028598Y-95316312D01*
X116919699Y-95301270D01*
X116606082Y-95271136D01*
X116606082Y-97573479D01*
X115246472Y-97573479D01*
X115246472Y-92876642D01*
X116606082Y-92876642D01*
X116606082Y-94236253D01*
X116936407Y-94236253D01*
X117158740Y-94223203D01*
X117300968Y-94176021D01*
X117384460Y-94106164D01*
X117451863Y-94000556D01*
X117488562Y-93849083D01*
X117501732Y-93617510D01*
X117502189Y-93544499D01*
X117482191Y-93245054D01*
X117411747Y-93046598D01*
X117275189Y-92931509D01*
X117056846Y-92882167D01*
X116908238Y-92876642D01*
X116606082Y-92876642D01*
X115246472Y-92876642D01*
X115246472Y-91826034D01*
X116490761Y-91826034D01*
G37*
G36*
X119152577Y-94742761D02*
G01*
X119166267Y-94426460D01*
X119183590Y-94184773D01*
X119203509Y-94041121D01*
X119205419Y-94033712D01*
X119356420Y-93704539D01*
X119603563Y-93450058D01*
X119942739Y-93272658D01*
X120369842Y-93174730D01*
X120715815Y-93154744D01*
X121174546Y-93187117D01*
X121544995Y-93288605D01*
X121845478Y-93465763D01*
X122004055Y-93615793D01*
X122122658Y-93768637D01*
X122212904Y-93942703D01*
X122277692Y-94155416D01*
X122319920Y-94424202D01*
X122342487Y-94766488D01*
X122348290Y-95199699D01*
X122342271Y-95649409D01*
X122332482Y-96050509D01*
X122320809Y-96349540D01*
X122304701Y-96568031D01*
X122281607Y-96727512D01*
X122248976Y-96849513D01*
X122204258Y-96955563D01*
X122182465Y-96998244D01*
X121954549Y-97303365D01*
X121643145Y-97534966D01*
X121432748Y-97626745D01*
X121217867Y-97669517D01*
X120926573Y-97690032D01*
X120603911Y-97688968D01*
X120294922Y-97667002D01*
X120044649Y-97624810D01*
X119977782Y-97604866D01*
X119664750Y-97458731D01*
X119438839Y-97263093D01*
X119278953Y-97016012D01*
X119231366Y-96915814D01*
X119196060Y-96814709D01*
X119171221Y-96692939D01*
X119155035Y-96530742D01*
X119145686Y-96308359D01*
X119141360Y-96006030D01*
X119140244Y-95603994D01*
X119140247Y-95505518D01*
X119140874Y-95430624D01*
X120375912Y-95430624D01*
X120377245Y-95849799D01*
X120382167Y-96162864D01*
X120392066Y-96387292D01*
X120408330Y-96540553D01*
X120432344Y-96640119D01*
X120465497Y-96703463D01*
X120478191Y-96718856D01*
X120642334Y-96817843D01*
X120836394Y-96810522D01*
X120966655Y-96744102D01*
X121008126Y-96706042D01*
X121038791Y-96649664D01*
X121060267Y-96557604D01*
X121074170Y-96412496D01*
X121082118Y-96196975D01*
X121085728Y-95893676D01*
X121086616Y-95485234D01*
X121086618Y-95455731D01*
X121084782Y-95003081D01*
X121076979Y-94659208D01*
X121059761Y-94409311D01*
X121029683Y-94238591D01*
X120983298Y-94132250D01*
X120917160Y-94075488D01*
X120827822Y-94053505D01*
X120759464Y-94050851D01*
X120590692Y-94090782D01*
X120488929Y-94153131D01*
X120449278Y-94199341D01*
X120420074Y-94267606D01*
X120399752Y-94375625D01*
X120386745Y-94541097D01*
X120379487Y-94781722D01*
X120376414Y-95115200D01*
X120375912Y-95430624D01*
X119140874Y-95430624D01*
X119143558Y-95110254D01*
X119152577Y-94742761D01*
G37*
G36*
X140586707Y-85475824D02*
G01*
X141043956Y-85531117D01*
X141399614Y-85645961D01*
X141665053Y-85829734D01*
X141851641Y-86091818D01*
X141970750Y-86441591D01*
X142007992Y-86648307D01*
X142038537Y-86891358D01*
X142034879Y-87048826D01*
X141977768Y-87138253D01*
X141847953Y-87177180D01*
X141626186Y-87183148D01*
X141426964Y-87177768D01*
X140862773Y-87160097D01*
X140829526Y-86828947D01*
X140771279Y-86556398D01*
X140665489Y-86389963D01*
X140517952Y-86334006D01*
X140334463Y-86392896D01*
X140289420Y-86421996D01*
X140241695Y-86459874D01*
X140206537Y-86508790D01*
X140182026Y-86586491D01*
X140166245Y-86710725D01*
X140157277Y-86899240D01*
X140153203Y-87169785D01*
X140152104Y-87540107D01*
X140152068Y-87692969D01*
X140155446Y-88106902D01*
X140165017Y-88461133D01*
X140179937Y-88738569D01*
X140199359Y-88922116D01*
X140216043Y-88987274D01*
X140322594Y-89080784D01*
X140497298Y-89106813D01*
X140650504Y-89090638D01*
X140741016Y-89018627D01*
X140804126Y-88892496D01*
X140861579Y-88689321D01*
X140892147Y-88453232D01*
X140893674Y-88398092D01*
X140893674Y-88118005D01*
X142067883Y-88118005D01*
X142066372Y-88442457D01*
X142026797Y-88923157D01*
X141909664Y-89308989D01*
X141709962Y-89605158D01*
X141422680Y-89816870D01*
X141042806Y-89949327D01*
X140565329Y-90007735D01*
X140558833Y-90008014D01*
X140296207Y-90012041D01*
X140058804Y-90003463D01*
X139891868Y-89984131D01*
X139873966Y-89979965D01*
X139598908Y-89879643D01*
X139355446Y-89742042D01*
X139216917Y-89622994D01*
X139122352Y-89507759D01*
X139049917Y-89392776D01*
X138996710Y-89260045D01*
X138959828Y-89091564D01*
X138936368Y-88869333D01*
X138923428Y-88575352D01*
X138918105Y-88191618D01*
X138917415Y-87765721D01*
X138919023Y-87310778D01*
X138923686Y-86961176D01*
X138932717Y-86698667D01*
X138947426Y-86505003D01*
X138969126Y-86361937D01*
X138999129Y-86251220D01*
X139032222Y-86168733D01*
X139214849Y-85874625D01*
X139463234Y-85663665D01*
X139787649Y-85531275D01*
X140198364Y-85472875D01*
X140586707Y-85475824D01*
G37*
G36*
X127250077Y-93262895D02*
G01*
X127266666Y-94699757D01*
X127688659Y-93973601D01*
X128110651Y-93247445D01*
X128754717Y-93247445D01*
X129020016Y-93251774D01*
X129232227Y-93263473D01*
X129365727Y-93280617D01*
X129398783Y-93295911D01*
X129365044Y-93360440D01*
X129271743Y-93507850D01*
X129130759Y-93720157D01*
X128953969Y-93979375D01*
X128819733Y-94172727D01*
X128240682Y-95001077D01*
X128641465Y-95839224D01*
X128803908Y-96179921D01*
X128967360Y-96524440D01*
X129114949Y-96837107D01*
X129229800Y-97082250D01*
X129249855Y-97125426D01*
X129457463Y-97573479D01*
X128164432Y-97573479D01*
X128067639Y-97341727D01*
X128000528Y-97183912D01*
X127900026Y-96950989D01*
X127782574Y-96680962D01*
X127716229Y-96529315D01*
X127461611Y-95948654D01*
X127348689Y-96088108D01*
X127296873Y-96172212D01*
X127263328Y-96288287D01*
X127244452Y-96462232D01*
X127236646Y-96719945D01*
X127235766Y-96900520D01*
X127235766Y-97573479D01*
X125999756Y-97573479D01*
X125999756Y-91826034D01*
X127233488Y-91826034D01*
X127250077Y-93262895D01*
G37*
G36*
X133045012Y-85584185D02*
G01*
X133045012Y-85800487D01*
X133053786Y-85943534D01*
X133075358Y-86014949D01*
X133079902Y-86016788D01*
X133138431Y-85974096D01*
X133239097Y-85868478D01*
X133264585Y-85838769D01*
X133509119Y-85630772D01*
X133806800Y-85502338D01*
X134123466Y-85460315D01*
X134424957Y-85511548D01*
X134565599Y-85578049D01*
X134747945Y-85719571D01*
X134891484Y-85905419D01*
X134999261Y-86148442D01*
X135074318Y-86461491D01*
X135119699Y-86857416D01*
X135138449Y-87349067D01*
X135133610Y-87949294D01*
X135133020Y-87973670D01*
X135116921Y-88452017D01*
X135091943Y-88825844D01*
X135053300Y-89114164D01*
X134996208Y-89335989D01*
X134915880Y-89510332D01*
X134807530Y-89656205D01*
X134677650Y-89782783D01*
X134389764Y-89963836D01*
X134083532Y-90026027D01*
X133772895Y-89969803D01*
X133471795Y-89795610D01*
X133408869Y-89742090D01*
X133168613Y-89525033D01*
X133168613Y-91331630D01*
X131932603Y-91331630D01*
X131932603Y-88079572D01*
X133176109Y-88079572D01*
X133189852Y-88427764D01*
X133224288Y-88679060D01*
X133282736Y-88846412D01*
X133368515Y-88942772D01*
X133484944Y-88981092D01*
X133528695Y-88983212D01*
X133689684Y-88949923D01*
X133794501Y-88881012D01*
X133828112Y-88808272D01*
X133852257Y-88673165D01*
X133868078Y-88460377D01*
X133876718Y-88154595D01*
X133879318Y-87744192D01*
X133878089Y-87358478D01*
X133873076Y-87076687D01*
X133862291Y-86879157D01*
X133843748Y-86746223D01*
X133815457Y-86658221D01*
X133775433Y-86595487D01*
X133761589Y-86579481D01*
X133604406Y-86466269D01*
X133448108Y-86476618D01*
X133317242Y-86579286D01*
X133270353Y-86644929D01*
X133236553Y-86735975D01*
X133213057Y-86873539D01*
X133197080Y-87078739D01*
X133185835Y-87372688D01*
X133179740Y-87621532D01*
X133176109Y-88079572D01*
X131932603Y-88079572D01*
X131932603Y-85584185D01*
X133045012Y-85584185D01*
G37*
G36*
X110180110Y-81611099D02*
G01*
X110196032Y-81715407D01*
X110204859Y-81906805D01*
X110206839Y-82194829D01*
X110202223Y-82589018D01*
X110193792Y-82993898D01*
X110160033Y-84426582D01*
X109824053Y-84959033D01*
X109242124Y-85995747D01*
X108758815Y-87103131D01*
X108376748Y-88274006D01*
X108098540Y-89501193D01*
X108040460Y-89848418D01*
X107986426Y-90309883D01*
X107949856Y-90861892D01*
X107930747Y-91472627D01*
X107929098Y-92110272D01*
X107944906Y-92743009D01*
X107978169Y-93339021D01*
X108028884Y-93866491D01*
X108040740Y-93958151D01*
X108273167Y-95237506D01*
X108623435Y-96531803D01*
X109088101Y-97832176D01*
X109663719Y-99129757D01*
X110346844Y-100415681D01*
X110906253Y-101333898D01*
X111043992Y-101553609D01*
X111148944Y-101731628D01*
X111207836Y-101844801D01*
X111215069Y-101872684D01*
X111165910Y-101839881D01*
X111047710Y-101733891D01*
X110877257Y-101570469D01*
X110671337Y-101365369D01*
X110632437Y-101325890D01*
X109837540Y-100434785D01*
X109106101Y-99449344D01*
X108446343Y-98385803D01*
X107866490Y-97260398D01*
X107374765Y-96089366D01*
X106979391Y-94888944D01*
X106688592Y-93675367D01*
X106648574Y-93460074D01*
X106584951Y-92999307D01*
X106537977Y-92446465D01*
X106507878Y-91831977D01*
X106494882Y-91186274D01*
X106499216Y-90539786D01*
X106521107Y-89922944D01*
X106560783Y-89366176D01*
X106614681Y-88923614D01*
X106871242Y-87636158D01*
X107226818Y-86416747D01*
X107685827Y-85253873D01*
X108252688Y-84136029D01*
X108786651Y-83266667D01*
X108982988Y-82981969D01*
X109202313Y-82682680D01*
X109429913Y-82386864D01*
X109651076Y-82112586D01*
X109851088Y-81877910D01*
X110015237Y-81700900D01*
X110128809Y-81599622D01*
X110156841Y-81584342D01*
X110180110Y-81611099D01*
G37*
G36*
X155168378Y-93153998D02*
G01*
X155195788Y-93230510D01*
X155216655Y-93407794D01*
X155228951Y-93663102D01*
X155231386Y-93860550D01*
X155231386Y-94528161D01*
X154898463Y-94523348D01*
X154737557Y-94521685D01*
X154612836Y-94531173D01*
X154519695Y-94565699D01*
X154453530Y-94639151D01*
X154409736Y-94765418D01*
X154383707Y-94958386D01*
X154370841Y-95231944D01*
X154366532Y-95599979D01*
X154366175Y-96076378D01*
X154366180Y-96128735D01*
X154366180Y-97573479D01*
X153066768Y-97573479D01*
X153099270Y-93278345D01*
X153670924Y-93260576D01*
X154242579Y-93242807D01*
X154246496Y-93569579D01*
X154251610Y-93748759D01*
X154264667Y-93817973D01*
X154290829Y-93790825D01*
X154311840Y-93741849D01*
X154423124Y-93554726D01*
X154588914Y-93380760D01*
X154780251Y-93239825D01*
X154968176Y-93151796D01*
X155123731Y-93136546D01*
X155168378Y-93153998D01*
G37*
G36*
X123169961Y-84002898D02*
G01*
X123609271Y-84109735D01*
X123975309Y-84306304D01*
X124260499Y-84586855D01*
X124457264Y-84945640D01*
X124558028Y-85376907D01*
X124563220Y-85432143D01*
X124595267Y-85831387D01*
X123968801Y-85831387D01*
X123686019Y-85830284D01*
X123504432Y-85823510D01*
X123401638Y-85805871D01*
X123355231Y-85772171D01*
X123342808Y-85717213D01*
X123342335Y-85686108D01*
X123312612Y-85471578D01*
X123236736Y-85266841D01*
X123134647Y-85119634D01*
X123092696Y-85088476D01*
X122875443Y-85026850D01*
X122684511Y-85068123D01*
X122538993Y-85191807D01*
X122457986Y-85377412D01*
X122460586Y-85604447D01*
X122498685Y-85725855D01*
X122558422Y-85830362D01*
X122659978Y-85939331D01*
X122821137Y-86067282D01*
X123059682Y-86228734D01*
X123302190Y-86381854D01*
X123722193Y-86655381D01*
X124041402Y-86899633D01*
X124272740Y-87133759D01*
X124429133Y-87376908D01*
X124523506Y-87648227D01*
X124568784Y-87966867D01*
X124578345Y-88272506D01*
X124560677Y-88672664D01*
X124500279Y-88986146D01*
X124386056Y-89245757D01*
X124206916Y-89484305D01*
X124146908Y-89548400D01*
X123818142Y-89801111D01*
X123419146Y-89963725D01*
X122968108Y-90032517D01*
X122483211Y-90003760D01*
X122209676Y-89945283D01*
X121834768Y-89793086D01*
X121516179Y-89562680D01*
X121283663Y-89276314D01*
X121261314Y-89236143D01*
X121184252Y-89064228D01*
X121139929Y-88883687D01*
X121120506Y-88651561D01*
X121117518Y-88448187D01*
X121117518Y-87932603D01*
X122353528Y-87932603D01*
X122353528Y-88201483D01*
X122387441Y-88542955D01*
X122489534Y-88782207D01*
X122660337Y-88920465D01*
X122665342Y-88922576D01*
X122904926Y-88970207D01*
X123104031Y-88903589D01*
X123251506Y-88726705D01*
X123259576Y-88710362D01*
X123334299Y-88442315D01*
X123293523Y-88187934D01*
X123135013Y-87943165D01*
X122856529Y-87703954D01*
X122622910Y-87556811D01*
X122138236Y-87252713D01*
X121765434Y-86954487D01*
X121494182Y-86649416D01*
X121314155Y-86324783D01*
X121215031Y-85967869D01*
X121194349Y-85796848D01*
X121203631Y-85305795D01*
X121312094Y-84882735D01*
X121514716Y-84533830D01*
X121806478Y-84265245D01*
X122182358Y-84083141D01*
X122637337Y-83993682D01*
X122664955Y-83991543D01*
X123169961Y-84002898D01*
G37*
G36*
X147381594Y-87815038D02*
G01*
X147430798Y-87637890D01*
X147516611Y-87442605D01*
X147524510Y-87426452D01*
X147698250Y-87145987D01*
X147931651Y-86867002D01*
X148032037Y-86768775D01*
X148366879Y-86462748D01*
X148181376Y-86120256D01*
X148012896Y-85715927D01*
X147943313Y-85320545D01*
X147954598Y-85178089D01*
X149024115Y-85178089D01*
X149048853Y-85404395D01*
X149145297Y-85626049D01*
X149213815Y-85716599D01*
X149321332Y-85802569D01*
X149419996Y-85788772D01*
X149537334Y-85669152D01*
X149559045Y-85640639D01*
X149667957Y-85435132D01*
X149713868Y-85218032D01*
X149691926Y-85030765D01*
X149640369Y-84946035D01*
X149473033Y-84853513D01*
X149283664Y-84853643D01*
X149120657Y-84942410D01*
X149079512Y-84992568D01*
X149024115Y-85178089D01*
X147954598Y-85178089D01*
X147972426Y-84953051D01*
X148100031Y-84632383D01*
X148198778Y-84497714D01*
X148516648Y-84227123D01*
X148905704Y-84056451D01*
X149265822Y-83993169D01*
X149719645Y-84003602D01*
X150110614Y-84108434D01*
X150428967Y-84303174D01*
X150664943Y-84583328D01*
X150704501Y-84655321D01*
X150827875Y-85027132D01*
X150834277Y-85407201D01*
X150728325Y-85781597D01*
X150514639Y-86136388D01*
X150197840Y-86457643D01*
X150076005Y-86550683D01*
X149895563Y-86679459D01*
X150168706Y-87118108D01*
X150298200Y-87319023D01*
X150405256Y-87472189D01*
X150472217Y-87552802D01*
X150482767Y-87559278D01*
X150516170Y-87506184D01*
X150552058Y-87369574D01*
X150564532Y-87299148D01*
X150602227Y-87066256D01*
X150644939Y-86924422D01*
X150720509Y-86851131D01*
X150856780Y-86823863D01*
X151081592Y-86820101D01*
X151156719Y-86820195D01*
X151646958Y-86820195D01*
X151646958Y-87012126D01*
X151621839Y-87248533D01*
X151553810Y-87555428D01*
X151453858Y-87892069D01*
X151332975Y-88217714D01*
X151302775Y-88288113D01*
X151149960Y-88633655D01*
X151488918Y-89168340D01*
X151677776Y-89464528D01*
X151800036Y-89669610D01*
X151849694Y-89800209D01*
X151820746Y-89872948D01*
X151707188Y-89904449D01*
X151503016Y-89911335D01*
X151220967Y-89910219D01*
X150946119Y-89906323D01*
X150723316Y-89895755D01*
X150577473Y-89880191D01*
X150532584Y-89863868D01*
X150497376Y-89782225D01*
X150448532Y-89709384D01*
X150397190Y-89656386D01*
X150332512Y-89644615D01*
X150225083Y-89679606D01*
X150045487Y-89766890D01*
X149989279Y-89795769D01*
X149725556Y-89915041D01*
X149478946Y-89980419D01*
X149181664Y-90009488D01*
X149161774Y-90010415D01*
X148915264Y-90013612D01*
X148698799Y-90002767D01*
X148558545Y-89980222D01*
X148556934Y-89979701D01*
X148119567Y-89790509D01*
X147786796Y-89541039D01*
X147552794Y-89223149D01*
X147411731Y-88828700D01*
X147357781Y-88349548D01*
X147357013Y-88303406D01*
X147357751Y-88233627D01*
X148557417Y-88233627D01*
X148607155Y-88495159D01*
X148725521Y-88713484D01*
X148899963Y-88872714D01*
X149117929Y-88956966D01*
X149366864Y-88950352D01*
X149634217Y-88836988D01*
X149648897Y-88827543D01*
X149800779Y-88728026D01*
X149657810Y-88493968D01*
X149422939Y-88114183D01*
X149224604Y-87803088D01*
X149069277Y-87570393D01*
X148963427Y-87425810D01*
X148914892Y-87378921D01*
X148861326Y-87426127D01*
X148772666Y-87549494D01*
X148714040Y-87644481D01*
X148588861Y-87944772D01*
X148557417Y-88233627D01*
X147357751Y-88233627D01*
X147359999Y-88021169D01*
X147381594Y-87815038D01*
G37*
G36*
X135378140Y-88148041D02*
G01*
X135532864Y-87893996D01*
X135771919Y-87682456D01*
X136108013Y-87498787D01*
X136553858Y-87328358D01*
X136598540Y-87313581D01*
X136917684Y-87199692D01*
X137134556Y-87096651D01*
X137268340Y-86992394D01*
X137338222Y-86874853D01*
X137347872Y-86842312D01*
X137350089Y-86656714D01*
X137285917Y-86470749D01*
X137176827Y-86331846D01*
X137098158Y-86290677D01*
X136939883Y-86287169D01*
X136798705Y-86320177D01*
X136692021Y-86380010D01*
X136623459Y-86481259D01*
X136576057Y-86656418D01*
X136553871Y-86789294D01*
X136535501Y-86845217D01*
X136485455Y-86882396D01*
X136381154Y-86905675D01*
X136200016Y-86919899D01*
X135919461Y-86929912D01*
X135895206Y-86930589D01*
X135255122Y-86948282D01*
X135299262Y-86653937D01*
X135404567Y-86255502D01*
X135590772Y-85941112D01*
X135861834Y-85708316D01*
X136221710Y-85554664D01*
X136674357Y-85477705D01*
X137204659Y-85473955D01*
X137671062Y-85528514D01*
X138033149Y-85640896D01*
X138298426Y-85816266D01*
X138474399Y-86059791D01*
X138568576Y-86376636D01*
X138574303Y-86416478D01*
X138583737Y-86545291D01*
X138593320Y-86778078D01*
X138602548Y-87095214D01*
X138610916Y-87477072D01*
X138617919Y-87904028D01*
X138622425Y-88288005D01*
X138637956Y-89910317D01*
X137504468Y-89910219D01*
X137463494Y-89723668D01*
X137422521Y-89537117D01*
X137226832Y-89702133D01*
X136883339Y-89922243D01*
X136520850Y-90025614D01*
X136152739Y-90010457D01*
X135820304Y-89890132D01*
X135553509Y-89698139D01*
X135378774Y-89445014D01*
X135288269Y-89115827D01*
X135270846Y-88842176D01*
X135284624Y-88624062D01*
X136505839Y-88624062D01*
X136551738Y-88845950D01*
X136671023Y-89009058D01*
X136836079Y-89099530D01*
X137019288Y-89103509D01*
X137193035Y-89007138D01*
X137218137Y-88981452D01*
X137281421Y-88876253D01*
X137323968Y-88710178D01*
X137351414Y-88457125D01*
X137359334Y-88327442D01*
X137387081Y-87798794D01*
X137072784Y-87958061D01*
X136791818Y-88121228D01*
X136615170Y-88280683D01*
X136525846Y-88456388D01*
X136505839Y-88624062D01*
X135284624Y-88624062D01*
X135295037Y-88459223D01*
X135378140Y-88148041D01*
G37*
G36*
X148976325Y-92644890D02*
G01*
X148994013Y-93247445D01*
X149545742Y-93247445D01*
X149545742Y-94174452D01*
X148986978Y-94174452D01*
X149020438Y-96677372D01*
X149283090Y-96696376D01*
X149545742Y-96715379D01*
X149545742Y-97558029D01*
X149352615Y-97596654D01*
X149043714Y-97633900D01*
X148719430Y-97632917D01*
X148423609Y-97596577D01*
X148200099Y-97527754D01*
X148185167Y-97520139D01*
X148048505Y-97439852D01*
X147941572Y-97351946D01*
X147860446Y-97240695D01*
X147801204Y-97090373D01*
X147759922Y-96885254D01*
X147732678Y-96609612D01*
X147715549Y-96247720D01*
X147704613Y-95783854D01*
X147701307Y-95580414D01*
X147679988Y-94174452D01*
X147259124Y-94174452D01*
X147259124Y-93247445D01*
X147687251Y-93247445D01*
X147704939Y-92644890D01*
X147722627Y-92042336D01*
X148958637Y-92042336D01*
X148976325Y-92644890D01*
G37*
G36*
X149635823Y-94451202D02*
G01*
X149653965Y-94219944D01*
X149673800Y-94092828D01*
X149756588Y-93903109D01*
X149889812Y-93697270D01*
X149955487Y-93617485D01*
X150195957Y-93405256D01*
X150481542Y-93262610D01*
X150835059Y-93181734D01*
X151279329Y-93154815D01*
X151307056Y-93154744D01*
X151596659Y-93159910D01*
X151807255Y-93181052D01*
X151983207Y-93226644D01*
X152168882Y-93305155D01*
X152217122Y-93328512D01*
X152428087Y-93450471D01*
X152608592Y-93586626D01*
X152697434Y-93679862D01*
X152817218Y-93931851D01*
X152896486Y-94287255D01*
X152932874Y-94731925D01*
X152931777Y-95082369D01*
X152913868Y-95626764D01*
X151878710Y-95643708D01*
X150843552Y-95660653D01*
X150843552Y-96122662D01*
X150864868Y-96447613D01*
X150932920Y-96666801D01*
X151053862Y-96791213D01*
X151233848Y-96831834D01*
X151240841Y-96831873D01*
X151421465Y-96783629D01*
X151545306Y-96634334D01*
X151617943Y-96377148D01*
X151619399Y-96367631D01*
X151660992Y-96090268D01*
X152899986Y-96090268D01*
X152858637Y-96442080D01*
X152757761Y-96862949D01*
X152565960Y-97204431D01*
X152287746Y-97460908D01*
X151927628Y-97626761D01*
X151901430Y-97634289D01*
X151688035Y-97670459D01*
X151404830Y-97688169D01*
X151094794Y-97688017D01*
X150800904Y-97670602D01*
X150566136Y-97636524D01*
X150487512Y-97614585D01*
X150187176Y-97454953D01*
X149922547Y-97221882D01*
X149735890Y-96953245D01*
X149725964Y-96932174D01*
X149684493Y-96826042D01*
X149654044Y-96703530D01*
X149632969Y-96544438D01*
X149619618Y-96328569D01*
X149612340Y-96035725D01*
X149609487Y-95645709D01*
X149609244Y-95503163D01*
X149612345Y-95117224D01*
X149620702Y-94792457D01*
X150827826Y-94792457D01*
X151646958Y-94792457D01*
X151646958Y-94487869D01*
X151618588Y-94229980D01*
X151526655Y-94070789D01*
X151360929Y-93997492D01*
X151248408Y-93989051D01*
X151067104Y-94018937D01*
X150949627Y-94121027D01*
X150881282Y-94313975D01*
X150857320Y-94485505D01*
X150827826Y-94792457D01*
X149620702Y-94792457D01*
X149621577Y-94758433D01*
X149635823Y-94451202D01*
G37*
G36*
X155704010Y-96596735D02*
G01*
X155936083Y-96640844D01*
X156068448Y-96731052D01*
X156092786Y-96859108D01*
X156055464Y-96945340D01*
X156018757Y-97085969D01*
X156039518Y-97146406D01*
X156091269Y-97285218D01*
X156077995Y-97400928D01*
X156004821Y-97449874D01*
X156003893Y-97449878D01*
X155929336Y-97396155D01*
X155911192Y-97295377D01*
X155885667Y-97177770D01*
X155785163Y-97141528D01*
X155756691Y-97140876D01*
X155639083Y-97166401D01*
X155602842Y-97266905D01*
X155602189Y-97295377D01*
X155569955Y-97419639D01*
X155509489Y-97449878D01*
X155459291Y-97424574D01*
X155430477Y-97333532D01*
X155418220Y-97154060D01*
X155416788Y-97013889D01*
X155416788Y-96867072D01*
X155602189Y-96867072D01*
X155622364Y-96982821D01*
X155703808Y-97010015D01*
X155741240Y-97006123D01*
X155866179Y-96935747D01*
X155900040Y-96847323D01*
X155891751Y-96743460D01*
X155803561Y-96709519D01*
X155760989Y-96708272D01*
X155641487Y-96731958D01*
X155603362Y-96827794D01*
X155602189Y-96867072D01*
X155416788Y-96867072D01*
X155416788Y-96577899D01*
X155704010Y-96596735D01*
G37*
G36*
X116606082Y-86391654D02*
G01*
X116607745Y-87002336D01*
X116612579Y-87539053D01*
X116620356Y-87992780D01*
X116630844Y-88354489D01*
X116643814Y-88615153D01*
X116659035Y-88765745D01*
X116667369Y-88796850D01*
X116781871Y-88898870D01*
X116964248Y-88960065D01*
X117161606Y-88965902D01*
X117228340Y-88950961D01*
X117303704Y-88919107D01*
X117365595Y-88868323D01*
X117415326Y-88787191D01*
X117454207Y-88664294D01*
X117483550Y-88488214D01*
X117504665Y-88247531D01*
X117518863Y-87930828D01*
X117527455Y-87526688D01*
X117531754Y-87023691D01*
X117533068Y-86410419D01*
X117533090Y-86296875D01*
X117533090Y-84100973D01*
X118899375Y-84100973D01*
X118880587Y-86495742D01*
X118861800Y-88890511D01*
X118704141Y-89199513D01*
X118470371Y-89525581D01*
X118145354Y-89773834D01*
X117736770Y-89940552D01*
X117252301Y-90022018D01*
X116989293Y-90029686D01*
X116738914Y-90012708D01*
X116494326Y-89974074D01*
X116389781Y-89947372D01*
X116026446Y-89805097D01*
X115758181Y-89632554D01*
X115584359Y-89449567D01*
X115501705Y-89334997D01*
X115433704Y-89219858D01*
X115378935Y-89091227D01*
X115335978Y-88936182D01*
X115303409Y-88741801D01*
X115279808Y-88495161D01*
X115263754Y-88183339D01*
X115253825Y-87793414D01*
X115248600Y-87312462D01*
X115246657Y-86727562D01*
X115246472Y-86377769D01*
X115246472Y-84100973D01*
X116606082Y-84100973D01*
X116606082Y-86391654D01*
G37*
G36*
X129515189Y-94262136D02*
G01*
X129568238Y-94022502D01*
X129645399Y-93833917D01*
X129750651Y-93678311D01*
X129885463Y-93539878D01*
X130115037Y-93364961D01*
X130364508Y-93249452D01*
X130664642Y-93184162D01*
X131046203Y-93159901D01*
X131160097Y-93159174D01*
X131460706Y-93166157D01*
X131683357Y-93190933D01*
X131873306Y-93241555D01*
X132061798Y-93319583D01*
X132386765Y-93520078D01*
X132613721Y-93772195D01*
X132691418Y-93927250D01*
X132709738Y-93920636D01*
X132724041Y-93813689D01*
X132731130Y-93633698D01*
X132736009Y-93247445D01*
X133230413Y-93247445D01*
X133230413Y-92006960D01*
X134435523Y-92042336D01*
X134453211Y-92644890D01*
X134470899Y-93247445D01*
X135022627Y-93247445D01*
X135022627Y-94174452D01*
X134463864Y-94174452D01*
X134480593Y-95425912D01*
X134497323Y-96677372D01*
X134759975Y-96696376D01*
X135022627Y-96715379D01*
X135022627Y-97558029D01*
X134829501Y-97596654D01*
X134499559Y-97635129D01*
X134159734Y-97628808D01*
X133855797Y-97580921D01*
X133669059Y-97514761D01*
X133539175Y-97440963D01*
X133437686Y-97357505D01*
X133361121Y-97249008D01*
X133306009Y-97100092D01*
X133268879Y-96895379D01*
X133246260Y-96619487D01*
X133234683Y-96257038D01*
X133230674Y-95792652D01*
X133230413Y-95571074D01*
X133230413Y-94174452D01*
X132998661Y-94174373D01*
X132766910Y-94174293D01*
X132766910Y-95626764D01*
X131731751Y-95643708D01*
X130696593Y-95660653D01*
X130696593Y-96056838D01*
X130705842Y-96292470D01*
X130729830Y-96499292D01*
X130756208Y-96609822D01*
X130869755Y-96751503D01*
X131050675Y-96820551D01*
X131243172Y-96804028D01*
X131352978Y-96713174D01*
X131443006Y-96540380D01*
X131494436Y-96327303D01*
X131500000Y-96235547D01*
X131504756Y-96169971D01*
X131533962Y-96127861D01*
X131610021Y-96104022D01*
X131755334Y-96093259D01*
X131992307Y-96090377D01*
X132126513Y-96090268D01*
X132753027Y-96090268D01*
X132711678Y-96442080D01*
X132610802Y-96862949D01*
X132419002Y-97204431D01*
X132140787Y-97460908D01*
X131780670Y-97626761D01*
X131754471Y-97634289D01*
X131559897Y-97667061D01*
X131293121Y-97685474D01*
X130998690Y-97689355D01*
X130721150Y-97678531D01*
X130505049Y-97652831D01*
X130448991Y-97639337D01*
X130073126Y-97472907D01*
X129778331Y-97233002D01*
X129579225Y-96933164D01*
X129525104Y-96783604D01*
X129503987Y-96646330D01*
X129485777Y-96411174D01*
X129471729Y-96103843D01*
X129463095Y-95750045D01*
X129460928Y-95468029D01*
X129465512Y-94966829D01*
X129472894Y-94792457D01*
X130680868Y-94792457D01*
X131121334Y-94792457D01*
X131350211Y-94789831D01*
X131482082Y-94776341D01*
X131543519Y-94743577D01*
X131561094Y-94683125D01*
X131561800Y-94652998D01*
X131540425Y-94462250D01*
X131486689Y-94263555D01*
X131416177Y-94104693D01*
X131362078Y-94040693D01*
X131212843Y-93995349D01*
X131028973Y-93997985D01*
X130870953Y-94043803D01*
X130818492Y-94083802D01*
X130766421Y-94199084D01*
X130723689Y-94383878D01*
X130710362Y-94485505D01*
X130680868Y-94792457D01*
X129472894Y-94792457D01*
X129482273Y-94570888D01*
X129515189Y-94262136D01*
G37*
G36*
X142298351Y-86629528D02*
G01*
X142318829Y-86462950D01*
X142347737Y-86337735D01*
X142387404Y-86233324D01*
X142425823Y-86155908D01*
X142650526Y-85859184D01*
X142966581Y-85645354D01*
X143373465Y-85514627D01*
X143870658Y-85467213D01*
X144124107Y-85473135D01*
X144560916Y-85527634D01*
X144906221Y-85642965D01*
X145180414Y-85827455D01*
X145302259Y-85954197D01*
X145421959Y-86126425D01*
X145505223Y-86327359D01*
X145557410Y-86581467D01*
X145583882Y-86913214D01*
X145590166Y-87268248D01*
X145590511Y-87932603D01*
X143489294Y-87932603D01*
X143489294Y-88382356D01*
X143505974Y-88705428D01*
X143561407Y-88923503D01*
X143663684Y-89051319D01*
X143820894Y-89103615D01*
X143886934Y-89106813D01*
X144071295Y-89076065D01*
X144189713Y-88971239D01*
X144258089Y-88773457D01*
X144277433Y-88643275D01*
X144308775Y-88365207D01*
X145528710Y-88365207D01*
X145528710Y-88597367D01*
X145476310Y-89019104D01*
X145322813Y-89373262D01*
X145073775Y-89654727D01*
X144734751Y-89858391D01*
X144311296Y-89979142D01*
X143992268Y-90010791D01*
X143735074Y-90013031D01*
X143502499Y-90002430D01*
X143342201Y-89981262D01*
X143334793Y-89979410D01*
X143051326Y-89876262D01*
X142783751Y-89730005D01*
X142575016Y-89566099D01*
X142509370Y-89490091D01*
X142418935Y-89339875D01*
X142351102Y-89165210D01*
X142303572Y-88948223D01*
X142274049Y-88671043D01*
X142260234Y-88315796D01*
X142259830Y-87864611D01*
X142264219Y-87583027D01*
X142273374Y-87169008D01*
X142274731Y-87129197D01*
X143473568Y-87129197D01*
X144370226Y-87129197D01*
X144339428Y-86808673D01*
X144296558Y-86570681D01*
X144215177Y-86419116D01*
X144170218Y-86376070D01*
X143974058Y-86275108D01*
X143793642Y-86287885D01*
X143644147Y-86404541D01*
X143540749Y-86615216D01*
X143504367Y-86808673D01*
X143473568Y-87129197D01*
X142274731Y-87129197D01*
X142283975Y-86858028D01*
X142298351Y-86629528D01*
G37*
G36*
X146216894Y-93141850D02*
G01*
X146531203Y-93224186D01*
X146815712Y-93371171D01*
X147025895Y-93559272D01*
X147038834Y-93576302D01*
X147074773Y-93630851D01*
X147103472Y-93694845D01*
X147125917Y-93782330D01*
X147143094Y-93907353D01*
X147155986Y-94083959D01*
X147165581Y-94326195D01*
X147172863Y-94648106D01*
X147178818Y-95063739D01*
X147184431Y-95587140D01*
X147185170Y-95662069D01*
X147203917Y-97573479D01*
X145961313Y-97573479D01*
X145955153Y-96043917D01*
X145951761Y-95613141D01*
X145945508Y-95216636D01*
X145936943Y-94873348D01*
X145926614Y-94602221D01*
X145915070Y-94422202D01*
X145906374Y-94359854D01*
X145833495Y-94236741D01*
X145684166Y-94189558D01*
X145680783Y-94189252D01*
X145574546Y-94181520D01*
X145490951Y-94187892D01*
X145427103Y-94221437D01*
X145380102Y-94295223D01*
X145347052Y-94422318D01*
X145325055Y-94615790D01*
X145311214Y-94888707D01*
X145302633Y-95254138D01*
X145296412Y-95725150D01*
X145294077Y-95933441D01*
X145275746Y-97573479D01*
X144045498Y-97573479D01*
X144045498Y-93247445D01*
X145219708Y-93247445D01*
X145220170Y-93772749D01*
X145341115Y-93574391D01*
X145528999Y-93366975D01*
X145784807Y-93214850D01*
X146063047Y-93140484D01*
X146216894Y-93141850D01*
G37*
G36*
X120746715Y-89910219D02*
G01*
X119448905Y-89910219D01*
X119448905Y-88550608D01*
X120746715Y-88550608D01*
X120746715Y-89910219D01*
G37*
G36*
X130342848Y-84002874D02*
G01*
X130780811Y-84110418D01*
X131146043Y-84307882D01*
X131430734Y-84589319D01*
X131627072Y-84948779D01*
X131727246Y-85380315D01*
X131732076Y-85432143D01*
X131764124Y-85831387D01*
X130525226Y-85831387D01*
X130482854Y-85548830D01*
X130404195Y-85282419D01*
X130267809Y-85104567D01*
X130085446Y-85029502D01*
X130052743Y-85027980D01*
X129845801Y-85054863D01*
X129718211Y-85151701D01*
X129645930Y-85306248D01*
X129606593Y-85487270D01*
X129624924Y-85649264D01*
X129711985Y-85806781D01*
X129878842Y-85974367D01*
X130136557Y-86166574D01*
X130458222Y-86374432D01*
X130876616Y-86645712D01*
X131195304Y-86885112D01*
X131427204Y-87111682D01*
X131585230Y-87344472D01*
X131682301Y-87602528D01*
X131731331Y-87904900D01*
X131745238Y-88270638D01*
X131745241Y-88272506D01*
X131714155Y-88737711D01*
X131614474Y-89115644D01*
X131438653Y-89426504D01*
X131232561Y-89645364D01*
X130919617Y-89844697D01*
X130530984Y-89973375D01*
X130095483Y-90026738D01*
X129641934Y-90000123D01*
X129378533Y-89945283D01*
X129003625Y-89793086D01*
X128685035Y-89562680D01*
X128452519Y-89276314D01*
X128430170Y-89236143D01*
X128353108Y-89064228D01*
X128308786Y-88883687D01*
X128289362Y-88651561D01*
X128286374Y-88448187D01*
X128286374Y-87932603D01*
X129522384Y-87932603D01*
X129522384Y-88201483D01*
X129556297Y-88542955D01*
X129658391Y-88782207D01*
X129829194Y-88920465D01*
X129834198Y-88922576D01*
X130065826Y-88964225D01*
X130265240Y-88901282D01*
X130413745Y-88752013D01*
X130492648Y-88534685D01*
X130486707Y-88284967D01*
X130442420Y-88150256D01*
X130352392Y-88014255D01*
X130203103Y-87864616D01*
X129981031Y-87688994D01*
X129672655Y-87475042D01*
X129416177Y-87307415D01*
X129006621Y-87013106D01*
X128707030Y-86720520D01*
X128505502Y-86410746D01*
X128390135Y-86064871D01*
X128349028Y-85663983D01*
X128348519Y-85610852D01*
X128398689Y-85138836D01*
X128546850Y-84739700D01*
X128787808Y-84419083D01*
X129116370Y-84182627D01*
X129527340Y-84035972D01*
X129839966Y-83991200D01*
X130342848Y-84002874D01*
G37*
G36*
X126370559Y-89910219D02*
G01*
X125072749Y-89910219D01*
X125072749Y-88550608D01*
X126370559Y-88550608D01*
X126370559Y-89910219D01*
G37*
G36*
X124625250Y-93186534D02*
G01*
X124989690Y-93288370D01*
X125290783Y-93446687D01*
X125425152Y-93564346D01*
X125610584Y-93844639D01*
X125726104Y-94184989D01*
X125752800Y-94390754D01*
X125762751Y-94602882D01*
X125753727Y-94738107D01*
X125703908Y-94813651D01*
X125591470Y-94846735D01*
X125394589Y-94854580D01*
X125165450Y-94854258D01*
X124578345Y-94854258D01*
X124578345Y-94589907D01*
X124555923Y-94388727D01*
X124500249Y-94218788D01*
X124482140Y-94188203D01*
X124349439Y-94081640D01*
X124183906Y-94049842D01*
X124033066Y-94094439D01*
X123962515Y-94170390D01*
X123940317Y-94273900D01*
X123922000Y-94483881D01*
X123908410Y-94783240D01*
X123900390Y-95154885D01*
X123898540Y-95464695D01*
X123899060Y-95873247D01*
X123901900Y-96175947D01*
X123908977Y-96390542D01*
X123922210Y-96534781D01*
X123943517Y-96626412D01*
X123974815Y-96683182D01*
X124018022Y-96722841D01*
X124035892Y-96735668D01*
X124230929Y-96823679D01*
X124392325Y-96795326D01*
X124515911Y-96654281D01*
X124597515Y-96404218D01*
X124623275Y-96218434D01*
X124657312Y-95843066D01*
X125814355Y-95843066D01*
X125814355Y-96118126D01*
X125779651Y-96571157D01*
X125671885Y-96937170D01*
X125485576Y-97232640D01*
X125419847Y-97303713D01*
X125221801Y-97473560D01*
X125007467Y-97588882D01*
X124748139Y-97658475D01*
X124415111Y-97691135D01*
X124137349Y-97696736D01*
X123854602Y-97691459D01*
X123650723Y-97669321D01*
X123481243Y-97621515D01*
X123301692Y-97539231D01*
X123276666Y-97526261D01*
X123034987Y-97372783D01*
X122870916Y-97192880D01*
X122806105Y-97083937D01*
X122759238Y-96989993D01*
X122723853Y-96896906D01*
X122698340Y-96786305D01*
X122681090Y-96639820D01*
X122670494Y-96439083D01*
X122664944Y-96165721D01*
X122662829Y-95801366D01*
X122662530Y-95444737D01*
X122663165Y-94996106D01*
X122666112Y-94652616D01*
X122672932Y-94395809D01*
X122685188Y-94207229D01*
X122704442Y-94068418D01*
X122732257Y-93960919D01*
X122770193Y-93866274D01*
X122801581Y-93801793D01*
X122929602Y-93604931D01*
X123086876Y-93435787D01*
X123145296Y-93390585D01*
X123457486Y-93243204D01*
X123828584Y-93161622D01*
X124228027Y-93143508D01*
X124625250Y-93186534D01*
G37*
G36*
X138912746Y-91699711D02*
G01*
X139284704Y-91779474D01*
X139594127Y-91922535D01*
X139805672Y-92080431D01*
X140020937Y-92310633D01*
X140170444Y-92576355D01*
X140265910Y-92905861D01*
X140318245Y-93316784D01*
X140355789Y-93803650D01*
X138916058Y-93803650D01*
X138916058Y-93467770D01*
X138886114Y-93121390D01*
X138796783Y-92881754D01*
X138648819Y-92749726D01*
X138442974Y-92726171D01*
X138301113Y-92761235D01*
X138211097Y-92802386D01*
X138139627Y-92864915D01*
X138084838Y-92961923D01*
X138044866Y-93106512D01*
X138017848Y-93311782D01*
X138001920Y-93590835D01*
X137995218Y-93956772D01*
X137995878Y-94422693D01*
X138000437Y-94874772D01*
X138006894Y-95361757D01*
X138013725Y-95739933D01*
X138022155Y-96024090D01*
X138033409Y-96229017D01*
X138048711Y-96369503D01*
X138069288Y-96460337D01*
X138096362Y-96516308D01*
X138131161Y-96552207D01*
X138139914Y-96558835D01*
X138327251Y-96632310D01*
X138553400Y-96637726D01*
X138732015Y-96583944D01*
X138843489Y-96459041D01*
X138923932Y-96229279D01*
X138969092Y-95910464D01*
X138977514Y-95671023D01*
X138977858Y-95282680D01*
X139642214Y-95300221D01*
X140306569Y-95317761D01*
X140305865Y-95935766D01*
X140300967Y-96243770D01*
X140283139Y-96465379D01*
X140246438Y-96637603D01*
X140184923Y-96797449D01*
X140158613Y-96852877D01*
X139934698Y-97172661D01*
X139615067Y-97426281D01*
X139215199Y-97601545D01*
X139203730Y-97604989D01*
X138929821Y-97658867D01*
X138590605Y-97686114D01*
X138230216Y-97686977D01*
X137892786Y-97661704D01*
X137622449Y-97610542D01*
X137576407Y-97595854D01*
X137319864Y-97453954D01*
X137070979Y-97229847D01*
X136865296Y-96961738D01*
X136741481Y-96698424D01*
X136714380Y-96564909D01*
X136693270Y-96357436D01*
X136677735Y-96065720D01*
X136667358Y-95679478D01*
X136661720Y-95188426D01*
X136660340Y-94699757D01*
X136661609Y-94130414D01*
X136667045Y-93669551D01*
X136679093Y-93302056D01*
X136700198Y-93012818D01*
X136732804Y-92786729D01*
X136779358Y-92608676D01*
X136842304Y-92463551D01*
X136924086Y-92336242D01*
X137027149Y-92211640D01*
X137070679Y-92163726D01*
X137339419Y-91933613D01*
X137659710Y-91780486D01*
X138052140Y-91697072D01*
X138452554Y-91675557D01*
X138912746Y-91699711D01*
G37*
G36*
X111829863Y-73126678D02*
G01*
X111908262Y-73192298D01*
X111955092Y-73243379D01*
X111988571Y-73311662D01*
X112010972Y-73417023D01*
X112024567Y-73579335D01*
X112031625Y-73818475D01*
X112034419Y-74154317D01*
X112034812Y-74299724D01*
X112038139Y-74699089D01*
X112047277Y-74992344D01*
X112063672Y-75196902D01*
X112088774Y-75330177D01*
X112124031Y-75409582D01*
X112127512Y-75414367D01*
X112174620Y-75521870D01*
X112203691Y-75706375D01*
X112217010Y-75986505D01*
X112218479Y-76155972D01*
X112223011Y-76463101D01*
X112239431Y-76677766D01*
X112272377Y-76830894D01*
X112326488Y-76953409D01*
X112342080Y-76979961D01*
X112381770Y-77053227D01*
X112411943Y-77137187D01*
X112433888Y-77248910D01*
X112448897Y-77405469D01*
X112458260Y-77623934D01*
X112463269Y-77921377D01*
X112465215Y-78314868D01*
X112465450Y-78611309D01*
X112465450Y-80040311D01*
X112681751Y-80304279D01*
X112898053Y-80568247D01*
X112898485Y-90373723D01*
X113238172Y-90556956D01*
X113426905Y-90665531D01*
X113529251Y-90751288D01*
X113570923Y-90843469D01*
X113577858Y-90943209D01*
X113577858Y-91146229D01*
X112898053Y-91146229D01*
X112898053Y-92320438D01*
X111953977Y-92320438D01*
X111991291Y-92706691D01*
X112006409Y-92900654D01*
X112024120Y-93187533D01*
X112042753Y-93536717D01*
X112060634Y-93917595D01*
X112070937Y-94164515D01*
X112092738Y-94614129D01*
X112117944Y-94948057D01*
X112146300Y-95163812D01*
X112177552Y-95258908D01*
X112183209Y-95262924D01*
X112266829Y-95259912D01*
X112445786Y-95232584D01*
X112695199Y-95185347D01*
X112990186Y-95122606D01*
X113043831Y-95110544D01*
X113330898Y-95048101D01*
X113563627Y-95002540D01*
X113721690Y-94977444D01*
X113784759Y-94976396D01*
X113783437Y-94980183D01*
X113711179Y-95026999D01*
X113553122Y-95117574D01*
X113333088Y-95238560D01*
X113092442Y-95367343D01*
X112452523Y-95705645D01*
X113339643Y-96169554D01*
X113661808Y-96337909D01*
X113964931Y-96496099D01*
X114223383Y-96630765D01*
X114411535Y-96728547D01*
X114473966Y-96760837D01*
X114607034Y-96835734D01*
X114666002Y-96882203D01*
X114659367Y-96889512D01*
X114584297Y-96871497D01*
X114410403Y-96820456D01*
X114156227Y-96742123D01*
X113840312Y-96642235D01*
X113481199Y-96526527D01*
X113392457Y-96497631D01*
X113027985Y-96381136D01*
X112703975Y-96282175D01*
X112438471Y-96205882D01*
X112249518Y-96157393D01*
X112155161Y-96141839D01*
X112148456Y-96143709D01*
X112127347Y-96216172D01*
X112096070Y-96388207D01*
X112058333Y-96636565D01*
X112017847Y-96937998D01*
X112004147Y-97048175D01*
X111948640Y-97497950D01*
X111904511Y-97829818D01*
X111868802Y-98048636D01*
X111838553Y-98159264D01*
X111810807Y-98166561D01*
X111782604Y-98075385D01*
X111750987Y-97890596D01*
X111712996Y-97617053D01*
X111703110Y-97542579D01*
X111658989Y-97206084D01*
X111617153Y-96881576D01*
X111582284Y-96605725D01*
X111559068Y-96415203D01*
X111558851Y-96413340D01*
X111528913Y-96221392D01*
X111490096Y-96129762D01*
X111431586Y-96115184D01*
X111421520Y-96117871D01*
X111288407Y-96153682D01*
X111084396Y-96203243D01*
X110842564Y-96259160D01*
X110595987Y-96314041D01*
X110377741Y-96360492D01*
X110220901Y-96391120D01*
X110162587Y-96399270D01*
X110177816Y-96370019D01*
X110280005Y-96291665D01*
X110449896Y-96178308D01*
X110551233Y-96114743D01*
X110769969Y-95977100D01*
X110953424Y-95856347D01*
X111071768Y-95772315D01*
X111092919Y-95754653D01*
X111102310Y-95716130D01*
X111054520Y-95659977D01*
X110937749Y-95578573D01*
X110740194Y-95464297D01*
X110450054Y-95309530D01*
X110217570Y-95189423D01*
X109908584Y-95029402D01*
X109643500Y-94889026D01*
X109439579Y-94777693D01*
X109314081Y-94704797D01*
X109281938Y-94680100D01*
X109344461Y-94690487D01*
X109506074Y-94731394D01*
X109747553Y-94797568D01*
X110049676Y-94883755D01*
X110356068Y-94973653D01*
X110699398Y-95074739D01*
X111002255Y-95162249D01*
X111244541Y-95230509D01*
X111406159Y-95273846D01*
X111465625Y-95286861D01*
X111487490Y-95228679D01*
X111510968Y-95068484D01*
X111533799Y-94827804D01*
X111553722Y-94528166D01*
X111561340Y-94375304D01*
X111579512Y-93990391D01*
X111599963Y-93591226D01*
X111620352Y-93221658D01*
X111638338Y-92925533D01*
X111640554Y-92892092D01*
X111678978Y-92320438D01*
X110801475Y-92320438D01*
X110783706Y-91748783D01*
X110765936Y-91177129D01*
X110047876Y-91139841D01*
X110067003Y-90945759D01*
X110094876Y-90827676D01*
X110168646Y-90728772D01*
X110313999Y-90621524D01*
X110441484Y-90544499D01*
X110796837Y-90337321D01*
X110796837Y-80477869D01*
X111167639Y-80122617D01*
X111168047Y-78666418D01*
X111168838Y-78201323D01*
X111171754Y-77843155D01*
X111178044Y-77575243D01*
X111188961Y-77380917D01*
X111205754Y-77243505D01*
X111229676Y-77146338D01*
X111261977Y-77072743D01*
X111291240Y-77024817D01*
X111350934Y-76912857D01*
X111388142Y-76775554D01*
X111407650Y-76582219D01*
X111414245Y-76302163D01*
X111414434Y-76234876D01*
X111428445Y-75831344D01*
X111469216Y-75534847D01*
X111507542Y-75408472D01*
X111548295Y-75268738D01*
X111576567Y-75064875D01*
X111593824Y-74778971D01*
X111601531Y-74393117D01*
X111602208Y-74251698D01*
X111605950Y-73861987D01*
X111616303Y-73578273D01*
X111634793Y-73383055D01*
X111662941Y-73258835D01*
X111693926Y-73198170D01*
X111765858Y-73118308D01*
X111829863Y-73126678D01*
G37*
G36*
X155120310Y-96557832D02*
G01*
X155315673Y-96368206D01*
X155585059Y-96250825D01*
X155628900Y-96241477D01*
X155885759Y-96250199D01*
X156142273Y-96353114D01*
X156353603Y-96529102D01*
X156412661Y-96610625D01*
X156516866Y-96880737D01*
X156516621Y-97147375D01*
X156428744Y-97392160D01*
X156270055Y-97596712D01*
X156057373Y-97742650D01*
X155807517Y-97811596D01*
X155537306Y-97785169D01*
X155391739Y-97726285D01*
X155157888Y-97545441D01*
X155017759Y-97313507D01*
X154967413Y-97055150D01*
X154971380Y-97026079D01*
X155107785Y-97026079D01*
X155138183Y-97292440D01*
X155239603Y-97478324D01*
X155402892Y-97600745D01*
X155676702Y-97693357D01*
X155932107Y-97663752D01*
X156169695Y-97511845D01*
X156195474Y-97486959D01*
X156360703Y-97258042D01*
X156405366Y-97015229D01*
X156331253Y-96746093D01*
X156308790Y-96700335D01*
X156154424Y-96521630D01*
X155930778Y-96400089D01*
X155687371Y-96358749D01*
X155597458Y-96369409D01*
X155381941Y-96474954D01*
X155213598Y-96666613D01*
X155119107Y-96908609D01*
X155107785Y-97026079D01*
X154971380Y-97026079D01*
X155002910Y-96795036D01*
X155120310Y-96557832D01*
G37*
G36*
X120875766Y-77146054D02*
G01*
X121495963Y-77194766D01*
X121572937Y-77203346D01*
X122925894Y-77420531D01*
X124237259Y-77753189D01*
X125503483Y-78199951D01*
X126721018Y-78759447D01*
X127886316Y-79430307D01*
X128601427Y-79916293D01*
X128940792Y-80163523D01*
X129179253Y-80342954D01*
X129317707Y-80456878D01*
X129357055Y-80507589D01*
X129298195Y-80497380D01*
X129142026Y-80428546D01*
X128889448Y-80303378D01*
X128718978Y-80216106D01*
X127444666Y-79617925D01*
X126156100Y-79127843D01*
X124865096Y-78749640D01*
X123583470Y-78487094D01*
X123095133Y-78417661D01*
X122686430Y-78381299D01*
X122190784Y-78359896D01*
X121643909Y-78353141D01*
X121081515Y-78360724D01*
X120539316Y-78382332D01*
X120053023Y-78417657D01*
X119794754Y-78446376D01*
X118533835Y-78673146D01*
X117315780Y-79015444D01*
X116143534Y-79472092D01*
X115020045Y-80041908D01*
X113948257Y-80723714D01*
X113747810Y-80867943D01*
X113454257Y-81083276D01*
X113454257Y-80626071D01*
X113450481Y-80385405D01*
X113431801Y-80230530D01*
X113387194Y-80123697D01*
X113305634Y-80027155D01*
X113268856Y-79991241D01*
X113148725Y-79852683D01*
X113094817Y-79705722D01*
X113083455Y-79519349D01*
X113083455Y-79225084D01*
X113593309Y-78909153D01*
X114328782Y-78498144D01*
X115151097Y-78117247D01*
X116024572Y-77780278D01*
X116913528Y-77501051D01*
X117749391Y-77299936D01*
X118266178Y-77218994D01*
X118870771Y-77162287D01*
X119529608Y-77130662D01*
X120209127Y-77124969D01*
X120875766Y-77146054D01*
G37*
%TO.C,J6*%
X191670000Y-86460000D02*
X191670000Y-85130000D01*
X191670000Y-85130000D02*
X193000000Y-85130000D01*
X191670000Y-87730000D02*
X194330000Y-87730000D01*
X191670000Y-90330000D02*
X194330000Y-90330000D01*
X191670000Y-87730000D02*
X191670000Y-90330000D01*
X194330000Y-87730000D02*
X194330000Y-90330000D01*
%TO.C,C4*%
X174201248Y-91735000D02*
X174723752Y-91735000D01*
X174201248Y-90265000D02*
X174723752Y-90265000D01*
%TO.C,R7*%
X148765000Y-64772936D02*
X148765000Y-65227064D01*
X150235000Y-64772936D02*
X150235000Y-65227064D01*
%TO.C,J14*%
X196570000Y-141700000D02*
X196570000Y-106080000D01*
X196570000Y-141700000D02*
X193910000Y-141700000D01*
X196570000Y-106080000D02*
X193910000Y-106080000D01*
X195240000Y-144300000D02*
X193910000Y-144300000D01*
X193910000Y-144300000D02*
X193910000Y-142970000D01*
X193910000Y-141700000D02*
X193910000Y-106080000D01*
%TO.C,J11*%
X104940000Y-58897500D02*
X107600000Y-58897500D01*
X104940000Y-53697500D02*
X106270000Y-53697500D01*
X104940000Y-56297500D02*
X104940000Y-58897500D01*
X104940000Y-55027500D02*
X104940000Y-53697500D01*
X104940000Y-56297500D02*
X107600000Y-56297500D01*
X107600000Y-56297500D02*
X107600000Y-58897500D01*
%TO.C,R13*%
X185235000Y-66772936D02*
X185235000Y-67227064D01*
X183765000Y-66772936D02*
X183765000Y-67227064D01*
%TO.C,TR1*%
X150757700Y-68974100D02*
X150757700Y-69454607D01*
X158022100Y-77025900D02*
X158022100Y-76545393D01*
X158022100Y-69454607D02*
X158022100Y-68974100D01*
X158022100Y-74534607D02*
X158022100Y-74005393D01*
X150757700Y-77025900D02*
X158022100Y-77025900D01*
X150757700Y-74005393D02*
X150757700Y-74534607D01*
X150757700Y-71465393D02*
X150757700Y-71994607D01*
X150757700Y-76545393D02*
X150757700Y-77025900D01*
X158022100Y-71994607D02*
X158022100Y-71465393D01*
X158022100Y-68974100D02*
X150757700Y-68974100D01*
%TD*%
M02*
