M48
; DRILL file {KiCad (5.99.0-11144-gea0c162604)} date Fri Sep 24 14:46:46 2021
; FORMAT={-:-/ absolute / inch / decimal}
; #@! TF.CreationDate,2021-09-24T14:46:46-05:00
; #@! TF.GenerationSoftware,Kicad,Pcbnew,(5.99.0-11144-gea0c162604)
; #@! TF.FileFunction,MixedPlating,1,4
FMAT,2
INCH
; #@! TA.AperFunction,Plated,PTH,ViaDrill
T1C0.0157
; #@! TA.AperFunction,Plated,PTH,ComponentDrill
T2C0.0394
%
G90
G05
T1
X4.0461Y-2.3996
X4.3228Y-2.5591
X4.326Y-2.3996
X4.3307Y-5.1969
X4.4488Y-5.2559
X4.5276Y-5.315
X4.6236Y-2.3996
X4.685Y-2.5591
X5.0472Y-2.5591
X5.4528Y-3.9961
X5.6496Y-3.9961
X5.7874Y-2.874
X5.8465Y-3.9961
X6.1614Y-4.7244
X6.378Y-2.9724
X6.7126Y-2.3819
X6.752Y-3.5827
X6.9488Y-2.7559
X6.9685Y-3.3465
X7.0866Y-3.2087
X7.1457Y-2.4606
X7.5228Y-3.8768
T2
X4.1339Y-4.3094
X4.1339Y-4.4094
X4.1339Y-4.9
X4.1339Y-5.0
X4.1339Y-5.462
X4.1339Y-5.562
X4.1839Y-2.1664
X4.1839Y-2.2664
X4.2339Y-4.3094
X4.2339Y-4.4094
X4.2339Y-4.9
X4.2339Y-5.0
X4.2339Y-5.462
X4.2339Y-5.562
X4.3339Y-4.3094
X4.3339Y-4.4094
X4.3339Y-4.9
X4.3339Y-5.0
X4.3339Y-5.462
X4.3339Y-5.562
X4.4339Y-4.3094
X4.4339Y-4.4094
X4.4339Y-4.9
X4.4339Y-5.0
X4.4339Y-5.462
X4.4339Y-5.562
X4.4685Y-2.1622
X4.4685Y-2.2622
X4.5339Y-4.3094
X4.5339Y-4.4094
X4.5339Y-4.9
X4.5339Y-5.0
X4.5339Y-5.462
X4.5339Y-5.562
X4.6339Y-4.3094
X4.6339Y-4.4094
X4.6339Y-4.9
X4.6339Y-5.0
X4.6339Y-5.462
X4.6339Y-5.562
X4.7339Y-4.3094
X4.7339Y-4.4094
X4.7339Y-4.9
X4.7339Y-5.0
X4.7339Y-5.462
X4.7339Y-5.562
X4.7638Y-2.1622
X4.7638Y-2.2622
X4.8339Y-4.3094
X4.8339Y-4.4094
X4.8339Y-4.9
X4.8339Y-5.0
X4.8339Y-5.462
X4.8339Y-5.562
X4.9339Y-4.3094
X4.9339Y-4.4094
X4.9339Y-4.9
X4.9339Y-5.0
X4.9339Y-5.462
X4.9339Y-5.562
X5.0339Y-4.3094
X5.0339Y-4.4094
X5.0339Y-4.9
X5.0339Y-5.0
X5.0339Y-5.462
X5.0339Y-5.562
X5.0591Y-2.1622
X5.0591Y-2.2622
X5.1339Y-4.3094
X5.1339Y-4.4094
X5.1339Y-4.9
X5.1339Y-5.0
X5.1339Y-5.462
X5.1339Y-5.562
X5.2339Y-4.3094
X5.2339Y-4.4094
X5.2339Y-4.9
X5.2339Y-5.0
X5.2339Y-5.462
X5.2339Y-5.562
X5.3339Y-4.3094
X5.3339Y-4.4094
X5.3339Y-4.9
X5.3339Y-5.0
X5.3339Y-5.462
X5.3339Y-5.562
X5.3543Y-2.1622
X5.3543Y-2.2622
X5.4339Y-4.3094
X5.4339Y-4.4094
X5.4339Y-4.9
X5.4339Y-5.0
X5.4339Y-5.462
X5.4339Y-5.562
X5.5339Y-4.3094
X5.5339Y-4.4094
X5.5339Y-4.9
X5.5339Y-5.0
X5.5339Y-5.462
X5.5339Y-5.562
X5.6339Y-4.3094
X5.6339Y-4.4094
X5.6339Y-4.9
X5.6339Y-5.0
X5.6339Y-5.462
X5.6339Y-5.562
X5.6496Y-2.1622
X5.6496Y-2.2622
X5.7339Y-4.3094
X5.7339Y-4.4094
X5.7339Y-4.9
X5.7339Y-5.0
X5.7339Y-5.462
X5.7339Y-5.562
X5.8339Y-4.3094
X5.8339Y-4.4094
X5.8339Y-4.9
X5.8339Y-5.0
X5.8339Y-5.462
X5.8339Y-5.562
X5.9339Y-4.3094
X5.9339Y-4.4094
X5.9339Y-4.9
X5.9339Y-5.0
X5.9339Y-5.462
X5.9339Y-5.562
X5.9449Y-2.1622
X5.9449Y-2.2622
X6.0339Y-4.3094
X6.0339Y-4.4094
X6.0339Y-4.9
X6.0339Y-5.0
X6.0339Y-5.462
X6.0339Y-5.562
X6.2992Y-4.2307
X6.2992Y-4.3307
X6.2992Y-4.4307
X6.2992Y-4.5307
X6.2992Y-4.6307
X6.2992Y-4.7307
X6.2992Y-4.8307
X6.2992Y-4.9307
X6.2992Y-5.0307
X6.2992Y-5.1307
X6.2992Y-5.2307
X6.2992Y-5.3307
X6.2992Y-5.4307
X6.2992Y-5.5307
X6.2992Y-5.6307
X6.378Y-2.1622
X6.378Y-2.2622
X6.378Y-2.3622
X6.8992Y-4.2307
X6.8992Y-4.3307
X6.8992Y-4.4307
X6.8992Y-4.5307
X6.8992Y-4.6307
X6.8992Y-4.7307
X6.8992Y-4.8307
X6.8992Y-4.9307
X6.8992Y-5.0307
X6.8992Y-5.1307
X6.8992Y-5.2307
X6.8992Y-5.3307
X6.8992Y-5.4307
X6.8992Y-5.5307
X6.8992Y-5.6307
X7.0866Y-4.2299
X7.0866Y-4.3299
X7.0866Y-4.4299
X7.0866Y-4.5299
X7.0866Y-4.6299
X7.0866Y-4.7299
X7.0866Y-4.8299
X7.0866Y-4.9299
X7.0866Y-5.0299
X7.0866Y-5.1299
X7.0866Y-5.2299
X7.0866Y-5.3299
X7.0866Y-5.4299
X7.0866Y-5.5299
X7.0866Y-5.6299
X7.5984Y-2.3228
X7.5984Y-2.4228
X7.5984Y-2.5228
X7.5984Y-3.4039
X7.5984Y-3.5039
X7.6866Y-4.2287
X7.6866Y-4.3287
X7.6866Y-4.4287
X7.6866Y-4.5287
X7.6866Y-4.6287
X7.6866Y-4.7287
X7.6866Y-4.8287
X7.6866Y-4.9287
X7.6866Y-5.0287
X7.6866Y-5.1287
X7.6866Y-5.2287
X7.6866Y-5.3287
X7.6866Y-5.4287
X7.6866Y-5.5287
X7.6866Y-5.6287
T0
M30
