%TF.GenerationSoftware,KiCad,Pcbnew,(5.99.0-11144-gea0c162604)*%
%TF.CreationDate,2021-09-24T14:59:39-05:00*%
%TF.ProjectId,The-Force-V2,5468652d-466f-4726-9365-2d56322e6b69,rev?*%
%TF.SameCoordinates,Original*%
%TF.FileFunction,Soldermask,Top*%
%TF.FilePolarity,Negative*%
%FSLAX46Y46*%
G04 Gerber Fmt 4.6, Leading zero omitted, Abs format (unit mm)*
G04 Created by KiCad (PCBNEW (5.99.0-11144-gea0c162604)) date 2021-09-24 14:59:39*
%MOMM*%
%LPD*%
G01*
G04 APERTURE LIST*
G04 Aperture macros list*
%AMRoundRect*
0 Rectangle with rounded corners*
0 $1 Rounding radius*
0 $2 $3 $4 $5 $6 $7 $8 $9 X,Y pos of 4 corners*
0 Add a 4 corners polygon primitive as box body*
4,1,4,$2,$3,$4,$5,$6,$7,$8,$9,$2,$3,0*
0 Add four circle primitives for the rounded corners*
1,1,$1+$1,$2,$3*
1,1,$1+$1,$4,$5*
1,1,$1+$1,$6,$7*
1,1,$1+$1,$8,$9*
0 Add four rect primitives between the rounded corners*
20,1,$1+$1,$2,$3,$4,$5,0*
20,1,$1+$1,$4,$5,$6,$7,0*
20,1,$1+$1,$6,$7,$8,$9,0*
20,1,$1+$1,$8,$9,$2,$3,0*%
G04 Aperture macros list end*
%ADD10RoundRect,0.250000X0.450000X-0.350000X0.450000X0.350000X-0.450000X0.350000X-0.450000X-0.350000X0*%
%ADD11R,1.700000X1.700000*%
%ADD12O,1.700000X1.700000*%
%ADD13RoundRect,0.250000X-0.337500X-0.475000X0.337500X-0.475000X0.337500X0.475000X-0.337500X0.475000X0*%
%ADD14RoundRect,0.250000X-0.450000X0.350000X-0.450000X-0.350000X0.450000X-0.350000X0.450000X0.350000X0*%
%ADD15RoundRect,0.250000X0.337500X0.475000X-0.337500X0.475000X-0.337500X-0.475000X0.337500X-0.475000X0*%
%ADD16RoundRect,0.250000X-0.350000X-0.450000X0.350000X-0.450000X0.350000X0.450000X-0.350000X0.450000X0*%
%ADD17RoundRect,0.100000X-0.637500X-0.100000X0.637500X-0.100000X0.637500X0.100000X-0.637500X0.100000X0*%
%ADD18RoundRect,0.250000X0.350000X0.450000X-0.350000X0.450000X-0.350000X-0.450000X0.350000X-0.450000X0*%
%ADD19RoundRect,0.150000X0.150000X-0.587500X0.150000X0.587500X-0.150000X0.587500X-0.150000X-0.587500X0*%
%ADD20RoundRect,0.150000X-0.825000X-0.150000X0.825000X-0.150000X0.825000X0.150000X-0.825000X0.150000X0*%
%ADD21R,1.944599X1.345400*%
G04 APERTURE END LIST*
D10*
%TO.C,R5*%
X117500000Y-57000000D03*
X117500000Y-55000000D03*
%TD*%
D11*
%TO.C,J10*%
X162000000Y-60000000D03*
D12*
X162000000Y-57460000D03*
X162000000Y-54920000D03*
%TD*%
D11*
%TO.C,J17*%
X180000000Y-143000000D03*
D12*
X180000000Y-140460000D03*
X180000000Y-137920000D03*
X180000000Y-135380000D03*
X180000000Y-132840000D03*
X180000000Y-130300000D03*
X180000000Y-127760000D03*
X180000000Y-125220000D03*
X180000000Y-122680000D03*
X180000000Y-120140000D03*
X180000000Y-117600000D03*
X180000000Y-115060000D03*
X180000000Y-112520000D03*
X180000000Y-109980000D03*
X180000000Y-107440000D03*
%TD*%
D11*
%TO.C,J16*%
X175240000Y-143020000D03*
D12*
X175240000Y-140480000D03*
X175240000Y-137940000D03*
X175240000Y-135400000D03*
X175240000Y-132860000D03*
X175240000Y-130320000D03*
X175240000Y-127780000D03*
X175240000Y-125240000D03*
X175240000Y-122700000D03*
X175240000Y-120160000D03*
X175240000Y-117620000D03*
X175240000Y-115080000D03*
X175240000Y-112540000D03*
X175240000Y-110000000D03*
X175240000Y-107460000D03*
%TD*%
D13*
%TO.C,C1*%
X176925000Y-55000000D03*
X179000000Y-55000000D03*
%TD*%
D14*
%TO.C,R11*%
X167000000Y-59000000D03*
X167000000Y-61000000D03*
%TD*%
D10*
%TO.C,R2*%
X106000000Y-71500000D03*
X106000000Y-69500000D03*
%TD*%
D11*
%TO.C,J2*%
X105000000Y-127000000D03*
D12*
X105000000Y-124460000D03*
X107540000Y-127000000D03*
X107540000Y-124460000D03*
X110080000Y-127000000D03*
X110080000Y-124460000D03*
X112620000Y-127000000D03*
X112620000Y-124460000D03*
X115160000Y-127000000D03*
X115160000Y-124460000D03*
X117700000Y-127000000D03*
X117700000Y-124460000D03*
X120240000Y-127000000D03*
X120240000Y-124460000D03*
X122780000Y-127000000D03*
X122780000Y-124460000D03*
X125320000Y-127000000D03*
X125320000Y-124460000D03*
X127860000Y-127000000D03*
X127860000Y-124460000D03*
X130400000Y-127000000D03*
X130400000Y-124460000D03*
X132940000Y-127000000D03*
X132940000Y-124460000D03*
X135480000Y-127000000D03*
X135480000Y-124460000D03*
X138020000Y-127000000D03*
X138020000Y-124460000D03*
X140560000Y-127000000D03*
X140560000Y-124460000D03*
X143100000Y-127000000D03*
X143100000Y-124460000D03*
X145640000Y-127000000D03*
X145640000Y-124460000D03*
X148180000Y-127000000D03*
X148180000Y-124460000D03*
X150720000Y-127000000D03*
X150720000Y-124460000D03*
X153260000Y-127000000D03*
X153260000Y-124460000D03*
%TD*%
D13*
%TO.C,C6*%
X181900000Y-81500000D03*
X183975000Y-81500000D03*
%TD*%
D11*
%TO.C,J8*%
X136000000Y-54920000D03*
D12*
X136000000Y-57460000D03*
%TD*%
D10*
%TO.C,R3*%
X110000000Y-57000000D03*
X110000000Y-55000000D03*
%TD*%
%TO.C,R6*%
X124500000Y-71500000D03*
X124500000Y-69500000D03*
%TD*%
D15*
%TO.C,C5*%
X175500000Y-85000000D03*
X173425000Y-85000000D03*
%TD*%
D16*
%TO.C,R9*%
X143500000Y-104000000D03*
X145500000Y-104000000D03*
%TD*%
D11*
%TO.C,J3*%
X105000000Y-112000000D03*
D12*
X105000000Y-109460000D03*
X107540000Y-112000000D03*
X107540000Y-109460000D03*
X110080000Y-112000000D03*
X110080000Y-109460000D03*
X112620000Y-112000000D03*
X112620000Y-109460000D03*
X115160000Y-112000000D03*
X115160000Y-109460000D03*
X117700000Y-112000000D03*
X117700000Y-109460000D03*
X120240000Y-112000000D03*
X120240000Y-109460000D03*
X122780000Y-112000000D03*
X122780000Y-109460000D03*
X125320000Y-112000000D03*
X125320000Y-109460000D03*
X127860000Y-112000000D03*
X127860000Y-109460000D03*
X130400000Y-112000000D03*
X130400000Y-109460000D03*
X132940000Y-112000000D03*
X132940000Y-109460000D03*
X135480000Y-112000000D03*
X135480000Y-109460000D03*
X138020000Y-112000000D03*
X138020000Y-109460000D03*
X140560000Y-112000000D03*
X140560000Y-109460000D03*
X143100000Y-112000000D03*
X143100000Y-109460000D03*
X145640000Y-112000000D03*
X145640000Y-109460000D03*
X148180000Y-112000000D03*
X148180000Y-109460000D03*
X150720000Y-112000000D03*
X150720000Y-109460000D03*
X153260000Y-112000000D03*
X153260000Y-109460000D03*
%TD*%
D17*
%TO.C,U2*%
X180137500Y-84875000D03*
X180137500Y-85525000D03*
X180137500Y-86175000D03*
X180137500Y-86825000D03*
X180137500Y-87475000D03*
X180137500Y-88125000D03*
X180137500Y-88775000D03*
X180137500Y-89425000D03*
X180137500Y-90075000D03*
X180137500Y-90725000D03*
X185862500Y-90725000D03*
X185862500Y-90075000D03*
X185862500Y-89425000D03*
X185862500Y-88775000D03*
X185862500Y-88125000D03*
X185862500Y-87475000D03*
X185862500Y-86825000D03*
X185862500Y-86175000D03*
X185862500Y-85525000D03*
X185862500Y-84875000D03*
%TD*%
D18*
%TO.C,R12*%
X189950000Y-81500000D03*
X187950000Y-81500000D03*
%TD*%
D10*
%TO.C,R4*%
X115500000Y-71500000D03*
X115500000Y-69500000D03*
%TD*%
D11*
%TO.C,J5*%
X151000000Y-54920000D03*
D12*
X151000000Y-57460000D03*
%TD*%
D11*
%TO.C,J13*%
X121000000Y-54920000D03*
D12*
X121000000Y-57460000D03*
%TD*%
D13*
%TO.C,C2*%
X168425000Y-85000000D03*
X170500000Y-85000000D03*
%TD*%
D19*
%TO.C,Q2*%
X115500000Y-65000000D03*
X117400000Y-65000000D03*
X116450000Y-63125000D03*
%TD*%
D11*
%TO.C,J9*%
X143500000Y-54920000D03*
D12*
X143500000Y-57460000D03*
%TD*%
D10*
%TO.C,R1*%
X103000000Y-57000000D03*
X103000000Y-55000000D03*
%TD*%
D11*
%TO.C,J12*%
X113500000Y-54920000D03*
D12*
X113500000Y-57460000D03*
%TD*%
D11*
%TO.C,J15*%
X160000000Y-143020000D03*
D12*
X160000000Y-140480000D03*
X160000000Y-137940000D03*
X160000000Y-135400000D03*
X160000000Y-132860000D03*
X160000000Y-130320000D03*
X160000000Y-127780000D03*
X160000000Y-125240000D03*
X160000000Y-122700000D03*
X160000000Y-120160000D03*
X160000000Y-117620000D03*
X160000000Y-115080000D03*
X160000000Y-112540000D03*
X160000000Y-110000000D03*
X160000000Y-107460000D03*
%TD*%
D11*
%TO.C,J4*%
X193000000Y-59000000D03*
D12*
X193000000Y-61540000D03*
X193000000Y-64080000D03*
%TD*%
D19*
%TO.C,Q3*%
X124300000Y-65000000D03*
X126200000Y-65000000D03*
X125250000Y-63125000D03*
%TD*%
D13*
%TO.C,C3*%
X173425000Y-88000000D03*
X175500000Y-88000000D03*
%TD*%
D11*
%TO.C,J1*%
X105000000Y-141275000D03*
D12*
X105000000Y-138735000D03*
X107540000Y-141275000D03*
X107540000Y-138735000D03*
X110080000Y-141275000D03*
X110080000Y-138735000D03*
X112620000Y-141275000D03*
X112620000Y-138735000D03*
X115160000Y-141275000D03*
X115160000Y-138735000D03*
X117700000Y-141275000D03*
X117700000Y-138735000D03*
X120240000Y-141275000D03*
X120240000Y-138735000D03*
X122780000Y-141275000D03*
X122780000Y-138735000D03*
X125320000Y-141275000D03*
X125320000Y-138735000D03*
X127860000Y-141275000D03*
X127860000Y-138735000D03*
X130400000Y-141275000D03*
X130400000Y-138735000D03*
X132940000Y-141275000D03*
X132940000Y-138735000D03*
X135480000Y-141275000D03*
X135480000Y-138735000D03*
X138020000Y-141275000D03*
X138020000Y-138735000D03*
X140560000Y-141275000D03*
X140560000Y-138735000D03*
X143100000Y-141275000D03*
X143100000Y-138735000D03*
X145640000Y-141275000D03*
X145640000Y-138735000D03*
X148180000Y-141275000D03*
X148180000Y-138735000D03*
X150720000Y-141275000D03*
X150720000Y-138735000D03*
X153260000Y-141275000D03*
X153260000Y-138735000D03*
%TD*%
D14*
%TO.C,R14*%
X176500000Y-66000000D03*
X176500000Y-68000000D03*
%TD*%
D20*
%TO.C,U1*%
X174025000Y-58595000D03*
X174025000Y-59865000D03*
X174025000Y-61135000D03*
X174025000Y-62405000D03*
X178975000Y-62405000D03*
X178975000Y-61135000D03*
X178975000Y-59865000D03*
X178975000Y-58595000D03*
%TD*%
D16*
%TO.C,R8*%
X138500000Y-104000000D03*
X140500000Y-104000000D03*
%TD*%
%TO.C,R10*%
X148500000Y-104000000D03*
X150500000Y-104000000D03*
%TD*%
D19*
%TO.C,Q1*%
X106100000Y-65000000D03*
X108000000Y-65000000D03*
X107050000Y-63125000D03*
%TD*%
D11*
%TO.C,J7*%
X128500000Y-54920000D03*
D12*
X128500000Y-57460000D03*
%TD*%
D11*
%TO.C,J6*%
X193000000Y-86460000D03*
D12*
X193000000Y-89000000D03*
%TD*%
D13*
%TO.C,C4*%
X173425000Y-91000000D03*
X175500000Y-91000000D03*
%TD*%
D14*
%TO.C,R7*%
X149500000Y-64000000D03*
X149500000Y-66000000D03*
%TD*%
D11*
%TO.C,J14*%
X195240000Y-142970000D03*
D12*
X195240000Y-140430000D03*
X195240000Y-137890000D03*
X195240000Y-135350000D03*
X195240000Y-132810000D03*
X195240000Y-130270000D03*
X195240000Y-127730000D03*
X195240000Y-125190000D03*
X195240000Y-122650000D03*
X195240000Y-120110000D03*
X195240000Y-117570000D03*
X195240000Y-115030000D03*
X195240000Y-112490000D03*
X195240000Y-109950000D03*
X195240000Y-107410000D03*
%TD*%
D11*
%TO.C,J11*%
X106270000Y-55027500D03*
D12*
X106270000Y-57567500D03*
%TD*%
D14*
%TO.C,R13*%
X184500000Y-66000000D03*
X184500000Y-68000000D03*
%TD*%
D21*
%TO.C,TR1*%
X149779800Y-70460000D03*
X149779800Y-73000000D03*
X149779800Y-75540000D03*
X159000000Y-75540000D03*
X159000000Y-73000000D03*
X159000000Y-70460000D03*
%TD*%
M02*
